<svg id="Layer_1" data-name="Layer 1" xmlns="http://www.w3.org/2000/svg" viewBox="0 0 313.82 262.98"><defs><style>.cls-1{fill:#f2f1f0;}.cls-2{fill:#1f1d23;}.cls-3{fill:#405364;}.cls-4{fill:#4b6070;}.cls-10,.cls-5{fill:teal;}.cls-6{fill:#008d97;}.cls-7{fill:#028c96;}.cls-8{fill:#d5dada;}.cls-9{fill:#2b2653;}.cls-10{fill-opacity:0.57;}.cls-11{fill:#2e2f4b;}.cls-12{fill:#fbbca3;}.cls-13{fill:#ced5d4;}.cls-14{fill:#006b68;}.cls-15{fill:#3f346d;}.cls-16{fill:#ed767f;}.cls-17{fill:#ed757f;}.cls-18{fill:#ec757f;}.cls-19{fill:#614e74;}.cls-20{fill:#d5d4d3;}.cls-21{fill:#d6d5d4;}.cls-22{fill:#d0d6d5;}.cls-23{fill:#ecf1f3;}.cls-24{fill:#2f304b;}.cls-25{fill:#fabca3;}.cls-26{fill:#f8baa2;}.cls-27{fill:#3d505b;}.cls-28{fill:#fefcfb;}.cls-29{fill:#fef9f2;}.cls-30{fill:#fe659f;}.cls-31{fill:#3b3850;}.cls-32{fill:#fe2d81;}</style></defs><path class="cls-1" d="M248.87,234.72c4.5,0,9-.07,13.51,0a8.12,8.12,0,0,1,7.79,8.09q.06,29.2,0,58.42a8,8,0,0,1-7.65,7.54H87.27a8.05,8.05,0,0,1-7.71-7.83V253.6c0-1.55-.38-2-1.93-1.93-3.28.12-6.57,0-9.86,0-.7,0-1.36,0-1.32,1-.81-.35-.63-.86-.22-1.41a4.13,4.13,0,0,1,2.22-.33H81.19c2,0,2.09-.07,2.1-2.16V243c0-2.3,0-2.33-2.41-2.33h-14c-.79,0-1.64.17-2.28-.53.48-.41,1.07-.24,1.61-.24H79c.64,0,1.19.07,1.57-.77a7.31,7.31,0,0,1,7.17-4.37h68.89c2.43,0,2.43,0,2.43-2.37v-6.22c0-.48-.18-1,.3-1.42a2.79,2.79,0,0,1,.48,2v5.91c0,1.16.46,1.61,1.62,1.61h27.71c1.18,0,1.61-.49,1.59-1.63v-5.3a2.48,2.48,0,0,1,.49-2c.63,1.34.18,2.77.28,4.15.07,1.1,0,2.22,0,3.33,0,1.35.55,2,2,2h24.68a2.38,2.38,0,0,1,.43,1.86V244c0,.9.06,1.72,1,2.2a1,1,0,0,1,.53.72c.3,1.75,1.54,1.83,2.95,1.78,1.92-.07,3.84,0,5.76,0,.9,0,1.6-.2,1.68-1.28a1.34,1.34,0,0,1,1.26-1.4H232c1,0,2.31-.34,2.7,1s1.32,1.7,2.61,1.65c1.57-.07,3.13,0,4.7,0,2.58,0,2.58,0,3.4-2.28,2.09-.91,3.16-.6,4.16,1.29a1.78,1.78,0,0,0,1.72,1h6.65a1.51,1.51,0,0,0,1.7-1.3,2.29,2.29,0,0,0,0-.37v-1.36c-.07-1.6-.49-2.11-2.11-2.1a48.59,48.59,0,0,0-8,.2.75.75,0,0,1-.82-.2A21.39,21.39,0,0,1,248.87,234.72Z" transform="translate(-28.58 -45.79)"/><path class="cls-2" d="M269,186.17q0,11.31-.08,22.61c0,.66.27,1.44-.5,1.92a3.15,3.15,0,0,1-1.64.14h-171c-2.61,0-3.07-.61-2.49-3.26.54-.83,1.4-.61,2.17-.67a4.34,4.34,0,0,0,1.34-.14c.52-.21.53-.67.51-1.13,0-.65-.48-.8-1-.86-1-.11-2,.24-2.89-.49a2.15,2.15,0,0,1,.08-2.23c.49-.49,1.12-.38,1.72-.38q80.82.06,161.63,0h1.22c1.13,0,1.68-.52,1.65-1.66v-80.7c0-3.1,0-3.1-3.07-3.1H96.5c-3.09,0-3.09,0-3.09,3.07v75.13a10.54,10.54,0,0,1-.17,2.86c-.2.6-.69.68-1.21.59a2.07,2.07,0,0,0-2.6,1.32,2.33,2.33,0,0,0-.08.36,1.16,1.16,0,0,1-.64.79c-2.76-.06-5.32.87-7.91,1.63,0-.55-.08-1.11-.08-1.66V109.22c0-2,0-2,2-2.16h175c.91,0,1.82,0,2.73.07,1.2.68,1.36,2,1.7,3.09a149.74,149.74,0,0,1,3.57,15.49c.3,1.59.48,3.21,1.52,4.55a1.17,1.17,0,0,1,.09.45,2,2,0,0,1-.27,1.29c-1.29,1.32-.24,2.1.58,3s1.6,1.38,1.72,2.54c.14,4.47,0,9,.05,13.42a2.61,2.61,0,0,1-.31,1.45c-.81.74-1.82.51-2.75.5-1.11,0-1.52.46-1.51,1.54v7.28c0,1.56.2,1.71,1.74,1.8a3.42,3.42,0,0,1,2.47.47c.68,1.64.24,3.37.35,5,.07.95-.06,1.9,0,2.86.05,4.08,0,8.17,0,12.26A4.17,4.17,0,0,1,269,186.17Z" transform="translate(-28.58 -45.79)"/><path class="cls-3" d="M285.34,115.32c7-8.4,15.93-12.27,26.79-11.78a32,32,0,1,1-17.14,60c-.78-.5-.66-1.31-.67-2q-.06-3.48,0-7c0-1.23-.47-1.71-1.7-1.69h-7.41a5.49,5.49,0,0,1-2.09-.22c-1.8-1.69-2.45-4-3.35-6.18-1.93-4.64-2-9.54-1.78-14.45a2.11,2.11,0,0,1,.5-1.4.49.49,0,0,1,.46-.16,1.66,1.66,0,0,1,.63,1.78,3.62,3.62,0,0,0,.33,2.91,30.13,30.13,0,0,0,2.7,4.88c.45.56.91,1.43,1.8,1.06a1.82,1.82,0,0,0,.81-2.11,15.59,15.59,0,0,0-1.91-6.32,3.24,3.24,0,0,1-.37-.83,5.88,5.88,0,0,1,0-2.29c1.16-2.64,1.12-5.49,1.35-8.28.12-1.51.36-3,.39-4.51A1.87,1.87,0,0,1,285.34,115.32Z" transform="translate(-28.58 -45.79)"/><path class="cls-4" d="M66.21,251.41a1.72,1.72,0,0,0,.27,1.23,125.83,125.83,0,0,0,3.28,15.61c.39,1.57,1.1,3.22-.25,4.72a4.09,4.09,0,0,1-4.53.92,3.19,3.19,0,0,1-2.42-2.57c-1.84-5.93-3.46-11.92-4.93-18-.17-.68-.43-1.34-.64-2a11.9,11.9,0,0,1-1.27-3.84,63.5,63.5,0,0,1-1.85-7.43,17.81,17.81,0,0,0-3.54-6.38,3.66,3.66,0,0,0-.65,2c-1.58,6.93-3.33,13.83-3.43,21-.07,4.14.33,8.26.59,12.39a5.46,5.46,0,0,1-1.27,4.19c-1.16,1.22-2.6,1.32-4.55.32-1.38-.53-1.74-1.67-1.87-3-.84-8.9-.94-17.82-.93-26.75a143.76,143.76,0,0,0-.52-15.11,38.64,38.64,0,0,0-1.38-6,12,12,0,0,1-.41-5.08c.62-.32,1.17,0,1.73.22,6,2,11.94,2.21,17.67-1,.88-.26,1.6-1,2.63-.83,3.09,5.61,4.28,11.78,5.25,18a36.92,36.92,0,0,0,1.15,6.07,2.41,2.41,0,0,1,.43,1.12c.42,3,.87,6,1.47,8.95A2.64,2.64,0,0,1,66.21,251.41Z" transform="translate(-28.58 -45.79)"/><path class="cls-4" d="M262,63.16a3,3,0,0,1,1.6,2.09c.79,4.57,1.82,9.09,2,13.74a8.79,8.79,0,0,1-3.07,7.26,2.61,2.61,0,0,1-2.06.69,11.65,11.65,0,0,1-2.47-.57c-1.64-.4-1.8-.3-2.06,1.32a7.3,7.3,0,0,0-.12,2.83,36.19,36.19,0,0,1-1.11,6.7c-.89,3.28-2.82,4.35-6.15,3.63-4.67-1-9.22-2.29-13.26-4.94-1.58-1-3.3-2-4.18-3.83-5.3-6.57-4.21-13.93.47-20.4a45.36,45.36,0,0,1,14.12-12.43,4.63,4.63,0,0,1,2-.68c1.88-.19,2-.13,2.29,1.64a4.34,4.34,0,0,0,.11.59c.51,2.79,1.34,3.17,3.86,1.8a2.5,2.5,0,0,1,.84-.31c.92,0,1.83.19,2.75.15C259.08,62.45,260.63,62.24,262,63.16Z" transform="translate(-28.58 -45.79)"/><path class="cls-5" d="M55.59,217.1c-3.17,2.19-6.75,2.68-10.48,2.55a23.57,23.57,0,0,1-9.21-2,5.42,5.42,0,0,1-.08-3.64c.36-1.4.65-2.8,1-4.2a16.73,16.73,0,0,0,.86-7.29,18.44,18.44,0,0,0-.2,3.06,3.91,3.91,0,0,1-.7,2.71,19.68,19.68,0,0,1-7.58-9,7.88,7.88,0,0,1,.42-7,65.78,65.78,0,0,1,7.14-11.82,5.32,5.32,0,0,0,.37-.66c1.13-.79,2.48-.65,3.74-.77a13,13,0,0,0,4.49-1.15c1-.46,1.34-1.45,2.17-2a1.29,1.29,0,0,0,1,1.19c1.16.34,2.26.9,3.44,1.14,5.07,1,7.64,5,7.9,10.07.15,3.07-.08,6.15.22,9.23a15.71,15.71,0,0,0,3.63,8.8,19.17,19.17,0,0,1,2.2,3.23,5.05,5.05,0,0,1-1.57,3.62,3.33,3.33,0,0,1-2.7-1.1c-.91-.87-1.84-1.71-2.82-2.5-.42-.34-.82-1-1.54-.46-.74-.24-.85-1-1.13-1.52a38.23,38.23,0,0,1-3.4-23.27,54.69,54.69,0,0,0,.52,21.29c.74,3,1.43,6.1,2.19,9.14A3,3,0,0,1,55.59,217.1Z" transform="translate(-28.58 -45.79)"/><path class="cls-5" d="M231.13,92.08c5.17,5.13,11.71,7.28,18.63,8.6,2.11.4,4-1,4.61-3.59.4-1.66.62-3.37.93-5,.1-.49.24-1,.35-1.46.73-.41,1.38,0,2,.23a14.38,14.38,0,0,0,4.15.79c2.48,0,3.77-1,4.38-3.44a1,1,0,0,1,.37-.63A39.67,39.67,0,0,1,274.3,90c5.56,2.34,8.46,6.66,9.57,12.34.78,3.88.74,7.82,1.14,11.72.05.43-.13.93.33,1.25q-.43,4.63-.88,9.27c-.16,1.75-.2,3.52-1.21,5.06-1.21,1.22-2.7,1.17-4.23.94h-.26c-1.5-.7-1.65-2.07-1.66-3.45a79.33,79.33,0,0,0-1-11.92,34.85,34.85,0,0,0-1.34-5.44,4.32,4.32,0,0,0-2-2.55c.16,2.14.5,4,.66,6a48.94,48.94,0,0,1,0,9.53c-.2,1.91.1,3.85-.41,5.73a4.48,4.48,0,0,1-1.36,2.64,5.17,5.17,0,0,1-4.54-.51c-1.49-1.14-1.49-2.92-1.77-4.51q-1.39-8-3.58-15.9a16.46,16.46,0,0,0-1.28-3.07,3.3,3.3,0,0,0-2.1-2.74,13.64,13.64,0,0,0-5.27-1.15c-4.12-.26-8.27.12-12.38-.58-2.65-.46-5.08-1.27-6.88-3.39a14.86,14.86,0,0,1-2.54-5.43C230.87,93.32,231.2,92.66,231.13,92.08Z" transform="translate(-28.58 -45.79)"/><path class="cls-6" d="M231.28,93.82a33.12,33.12,0,0,1,2.54,5.43c-.17,3.13-.17,3.13-3.34,3.13h-80c-1.3,0-1.88-.21-1.77-1.69a50.31,50.31,0,0,0,0-5.76c0-.78.24-1.13,1-1.08h79.52C230,93.88,230.63,93.84,231.28,93.82Z" transform="translate(-28.58 -45.79)"/><path class="cls-3" d="M94.42,93.83H65.91c-1.18,0-1.55-.28-1.51-1.49.1-2.68.08-5.36,0-8,0-1.15.25-1.59,1.49-1.59,7.63,0,15.26-.16,22.89-.18H122a13.14,13.14,0,0,0,1.66,0c.74,0,1,.27,1,1,0,3.08,0,6.17,0,9.25,0,1.2-.73,1-1.4,1H94.42Z" transform="translate(-28.58 -45.79)"/><path class="cls-3" d="M272,224.32H243.36c-1.12,0-1.46-.25-1.43-1.41.09-2.78.08-5.56,0-8.34,0-1,.31-1.31,1.26-1.31,3.08,0,6.17-.15,9.25-.16,16.08-.09,32.16-.16,48.25,0,1.19,0,1.55.34,1.52,1.53q-.13,4.1,0,8.19c0,1.18-.29,1.53-1.5,1.52Q286.39,224.31,272,224.32Z" transform="translate(-28.58 -45.79)"/><path class="cls-7" d="M283,152.41c3.43,0,6.86.1,10.28,0,1.32,0,1.59.42,1.59,1.64a83.8,83.8,0,0,0,.14,9.51c-1.09.74-2.31.26-3.46.37-.74.08-1.48.06-2.22.08a4.62,4.62,0,0,1-2,.43H271a3.18,3.18,0,0,1-2-.43c-1.16,0-2.31-.08-3.47-.09-.74,0-1.09-.31-1.08-1.09v-9.36c0-.82.32-1.05,1.08-1H269a2.77,2.77,0,0,1,1.87-.48H281.2A2.74,2.74,0,0,1,283,152.41Z" transform="translate(-28.58 -45.79)"/><path class="cls-3" d="M123,66.21h13.81c1.16,0,1.43.32,1.4,1.43-.08,2.83-.06,5.67,0,8.5,0,1-.19,1.31-1.23,1.3q-14-.06-27.92,0c-.86,0-1.27-.13-1.25-1.14.07-3,.08-6,0-9,0-1,.4-1.13,1.25-1.13C113.66,66.23,118.31,66.21,123,66.21Z" transform="translate(-28.58 -45.79)"/><path class="cls-6" d="M248.87,234.72l.12,8.75a1.46,1.46,0,0,1,.17,1.44,1.36,1.36,0,0,1-1.34,1q-6.88.26-13.77.08c-4-.1-8,.13-12,.12-3.65,0-3.69,0-3.64-3.56a68.73,68.73,0,0,1,.14-7.86Z" transform="translate(-28.58 -45.79)"/><path class="cls-8" d="M191.28,225.32v8c0,1-.23,1.42-1.34,1.42q-14.61-.06-29.21,0c-1.09,0-1.37-.38-1.35-1.41.05-2.88,0-5.75,0-8.63h29.23C189.51,224.69,190.68,223.85,191.28,225.32Z" transform="translate(-28.58 -45.79)"/><path class="cls-5" d="M80.76,201.94a11.2,11.2,0,0,1,7.88-1.79,2.23,2.23,0,0,1,.46,1.71v19.58c0,1.95-.36,2.25-2.3,2.32a10.3,10.3,0,0,1-9.31-7.23c-.56-1.85-1.38-2.42-3.14-2.15a14.86,14.86,0,0,1-2.11,0c-.81-1-1.31-2.25-2.49-2.94a.67.67,0,0,1-.31-.91c.2-.4.61-.26.94-.28,1.93-.11,3.87.22,5.8-.18a1,1,0,0,0,.53-.86A13.58,13.58,0,0,1,80.76,201.94Z" transform="translate(-28.58 -45.79)"/><path class="cls-9" d="M47.53,175.9c.07,1-.63,1.5-1.34,2-2.28,1.61-5,1.49-7.55,1.8-.5.06-1,.07-1.51.1-1.65-.5-1.85-.76-1.2-2.34a15.39,15.39,0,0,0,.62-8.63,10.77,10.77,0,0,1,.28-5.82,5.3,5.3,0,0,1,3.69-3.68c1.3-.33,2.38-1.28,3.72-1.63,3.73-.94,7.12,1,7.36,4.36-.28,2.06-1.59,3.54-2.85,5.05-.65.78-1.64.26-2.56.54A10.8,10.8,0,0,1,47.41,174Z" transform="translate(-28.58 -45.79)"/><path class="cls-3" d="M66.21,251.41a56.57,56.57,0,0,1-1.87-11.27h.34c5.81,0,11.61,0,17.41-.1,1.52,0,1.86.44,1.8,1.86-.12,2.68-.09,5.36,0,8,0,1.14-.23,1.55-1.47,1.53C77,251.32,71.61,251.4,66.21,251.41Z" transform="translate(-28.58 -45.79)"/><path class="cls-3" d="M276.47,164h12.84c-6.75,7.4-13.37,14.93-20.31,22.15V171.77A45,45,0,0,1,276.47,164Z" transform="translate(-28.58 -45.79)"/><path class="cls-10" d="M86.84,223.76c1.67-.17,1.89-1.21,1.87-2.69-.07-7,0-13.94,0-20.92q.14-.27.24-.54c.75-2.49,1.42-2.82,3.89-1.9a4.36,4.36,0,0,1,.87,4.43l-.09,2.14a3,3,0,0,1,0,3.09c.07,3.31-.87,3.22,3.21,3.22H266.46c.65,0,1.3.07,2,.11-.63.49-1.37.25-2,.25H95.64c-2.31,0-2-.27-2,2v3.64c0,.89.32,1.08,1.14,1.1,1,0,2.09-.33,3.06.25-.67.65-1.52.38-2.31.45-.59.06-1.28-.06-1.42.78s.4,1,1,1.21c.28.07.6.17.56.58a6.14,6.14,0,0,1-1,0c-.89-.15-1.09.28-.93,1a5.85,5.85,0,0,1-.19,3.13,2.17,2.17,0,0,1-2.09,1.67c-1.06.05-2.07-.25-2.31-1.28C88.76,224.26,87.87,224,86.84,223.76Z" transform="translate(-28.58 -45.79)"/><path class="cls-11" d="M249.52,57.43c-1.9-.88-2.35-2.5-2.22-4.39.14-2,.94-3.75,3-4.47a7.76,7.76,0,0,0,3.86-2.19,2.09,2.09,0,0,1,2.41-.35c2.19.82,4.63,1,6.48,2.69a1.49,1.49,0,0,0,.7.26,2.6,2.6,0,0,1,2.49,2.7v0a3.32,3.32,0,0,1-2.48,3.21,3.87,3.87,0,0,1-.59.13,5,5,0,0,1-5.73-2.29c-.69-1-1.46-1-2.29-.19-.3.27-.58.56-.88.83-.53.48-1.08.75-1.73.16-.25-.23-.54-.54-.92-.34s-.28.71-.23,1.09a3.32,3.32,0,0,1-.63,2.42C250.44,57.12,250.17,57.61,249.52,57.43Z" transform="translate(-28.58 -45.79)"/><path class="cls-12" d="M249.52,57.43a2.86,2.86,0,0,0,1.4-3.45c-.14-.52-.32-1,.24-1.32a1,1,0,0,1,1.39.26,1.08,1.08,0,0,1,.12.24c.45.83.84.6,1.33.05a8.19,8.19,0,0,1,1.4-1.36c.73-.52,1.6-.63,2.08.27,1.23,2.32,3.24,3,5.66,2.92-2.18.6-2.32.87-1.62,3.19a16.06,16.06,0,0,1,.48,4.93,33,33,0,0,0-4.55-.31c-.26-.5-.07-1.25-.92-1.39s-1.37.43-1.79,1.08c-2.89,2.52-4.85,1.5-5.1-2.22-.1-1.42-.65-1.86-1.92-1.75C248.18,58,249.62,58.91,249.52,57.43Z" transform="translate(-28.58 -45.79)"/><path class="cls-13" d="M218.59,234.69v10.15c0,.94.57.89,1.19.88h27.58c.84,0,1.5-.09,1.59-1.09.53.91.32,1.38-.79,1.42a6.49,6.49,0,0,0-2.52.17v1.51c-.07.73-.37,1.22-1.23,1.21h-8.48c-1.08,0-1.15-.7-1.33-1.45a2.4,2.4,0,0,0-3.17-1.21h0c-.45.31-.32.82-.3,1.25,0,.93-.3,1.41-1.31,1.4h-8.32a2.23,2.23,0,0,1-.85-.14c-.08-1.8-2.23-2.54-2.27-4.29-.07-3.28,0-6.56,0-9.84Z" transform="translate(-28.58 -45.79)"/><path class="cls-14" d="M55.59,217.1c-1.31-6-3.25-11.86-3.84-18a52.33,52.33,0,0,1,.1-11.19,19.63,19.63,0,0,1,.81-4.44c.09-.27.2-.67.57-.59.53.11.3.52.23.86a36.13,36.13,0,0,0,2,21.2c.59,1.39,1.21,2.77,1.81,4.15.52,2.29,1.63,4.51.68,6.94Z" transform="translate(-28.58 -45.79)"/><path class="cls-15" d="M72.12,277.05a52.66,52.66,0,0,1,5.4,3.88,1.59,1.59,0,0,1,.7,1.7c-.26.87-1,.55-1.51.56-2.12,0-4.24.06-6.36,0-1.57-.05-3.12-.48-4.7,0-.86.25-1.24-.21-1.3-1.13-.11-1.5-.4-3-.56-4.5-.08-.81-.06-1.65.93-2a7.76,7.76,0,0,1,2.89,2.08,7.61,7.61,0,0,0,2.19,1.58c1.26.48,1.86.08,1.93-1.27C71.76,277.59,71.76,277.23,72.12,277.05Z" transform="translate(-28.58 -45.79)"/><path class="cls-15" d="M47.68,276.9a54.87,54.87,0,0,1,5.57,3.88,1.67,1.67,0,0,1,.78,1.94c-.28.83-1,.45-1.57.47-2,.06-4,.09-6,0-1.59,0-3.14-.55-4.77-.07-.92.26-1.42-.36-1.49-1.37s-.44-2.24-.44-3.43-.2-2.14.94-2.79c.72-.11,1.06.47,1.47.87a19.54,19.54,0,0,0,2.73,2.33,2.16,2.16,0,0,0,2.37.39c.89-.45.17-1.14.21-1.72A.82.82,0,0,1,47.68,276.9Z" transform="translate(-28.58 -45.79)"/><path class="cls-12" d="M266.58,87.53c-.1,2.92-1.69,4.47-4.63,4.48a20.11,20.11,0,0,1-6.3-1.43c-.79-1.48,0-2.91.18-4.36.07-.71.82-.63,1.36-.5,1.11.28,2.21.61,3.32.91,1,.7,2,.19,2.94,0C264.58,86.64,265.89,86,266.58,87.53Z" transform="translate(-28.58 -45.79)"/><path class="cls-16" d="M76.22,210.07c-1.76.63-3.58.1-5.36.3-.42,0-1-.24-1.2.32s.54.64.9.84a3.37,3.37,0,0,1,1.72,2.85,2.66,2.66,0,0,1-2.89,1c-1.89-.33-3.73-.7-5.07-2.23.52-1.21,1.05-2.41,1.57-3.62,1.32-.11,2.64-.94,3.93.4.39.41,1.54.08,2.34.08A25,25,0,0,1,76.22,210.07Z" transform="translate(-28.58 -45.79)"/><path class="cls-17" d="M47.41,174a12.05,12.05,0,0,1-.5-3.27,3.66,3.66,0,0,0-1-2.45c-.31-.27-.58-.63-.3-1a.83.83,0,0,1,1.1-.21c1.15.56,1.67-.11,2.35-.9a38,38,0,0,0,2.51-4.09,16.34,16.34,0,0,1,1.27,7.69,3.65,3.65,0,0,1-3.59,3.71l-.41,0C48.33,173.46,47.69,173.32,47.41,174Z" transform="translate(-28.58 -45.79)"/><path class="cls-18" d="M72.12,277.05a1,1,0,0,0-.12.86c.32,1.44-.32,2.09-1.81,1.84a4.6,4.6,0,0,1-2.2-1.26c-1.1-1-2.18-2-3.27-2.94a3.5,3.5,0,0,0,.29-1.66,12.38,12.38,0,0,0,4.53-.92A17.91,17.91,0,0,0,72.12,277.05Z" transform="translate(-28.58 -45.79)"/><path class="cls-16" d="M47.68,276.9l.06.6c0,.61,1.07,1.19.17,1.82a2.3,2.3,0,0,1-2.69.13A21,21,0,0,1,43,277.73c-.79-.69-1.53-1.44-2.29-2.16.11-.66.23-1.31.35-2,1.52,0,3.1.71,4.55-.32Z" transform="translate(-28.58 -45.79)"/><path class="cls-3" d="M53.87,240.11c1,1.52,1.11,3.31,1.58,5A37.63,37.63,0,0,1,57,251.39c-3.49,0-3.49,0-3.49-3.46v-6.07A2.82,2.82,0,0,1,53.87,240.11Z" transform="translate(-28.58 -45.79)"/><path class="cls-5" d="M95.62,221c-.23-.08-.47-.25-.68-.23-1.29.16-1.43-.53-1.46-1.6,0-1.28.72-1.2,1.56-1.18s1.81,0,2.71,0c0,.29.06.59.07.89C97.85,221.12,97.85,221.12,95.62,221Z" transform="translate(-28.58 -45.79)"/><path class="cls-14" d="M36.76,208.26c.61-2.19,0-4.52.65-6.87a2,2,0,0,1,.83,1.79c-.12,2.27.13,4.64-1.44,6.6C36.76,209.32,36.76,208.77,36.76,208.26Z" transform="translate(-28.58 -45.79)"/><path class="cls-19" d="M263.45,86.63c-1,.68-2,1.4-2.94,0l2.07-.38Z" transform="translate(-28.58 -45.79)"/><path class="cls-6" d="M80.47,283.32c0-2.38,0-4.76-.07-7.13,0-.82.18-1.27,1.08-1.14a4.82,4.82,0,0,0,.76,0h81.34c1.57,0,2,.43,1.92,1.92-.12,2.12,0,4.25,0,6.37a2.69,2.69,0,0,1-2.16.48,81.75,81.75,0,0,1-9.39-.17,46.33,46.33,0,0,0-5,.19H129.4c-12.53,0-25.06.11-37.58,0A91.56,91.56,0,0,1,80.47,283.32Z" transform="translate(-28.58 -45.79)"/><path class="cls-20" d="M174.76,300.56H149.42c-1.45,0-1.88-.6-1.89-1.85v-6.83c0-1.32.52-2,2.12-2,16.83.06,33.67,0,50.51,0,1.82,0,2,.15,2,2v6.37c0,2.1-.18,2.27-2.23,2.27Z" transform="translate(-28.58 -45.79)"/><path class="cls-21" d="M244.11,277.19H257.6c2.22,0,2.58.37,2.58,2.54v5.15c0,.92-.3,1.29-1.28,1.46a39.07,39.07,0,0,1-6.49.25H231.19c-3.2,0-3.2,0-3.2-3.11v-3.94c0-1.91.4-2.33,2.31-2.34C234.91,277.17,239.51,277.19,244.11,277.19Z" transform="translate(-28.58 -45.79)"/><path class="cls-20" d="M247.24,265h11.07c1.38,0,1.92.55,1.88,1.91-.05,1.81,0,3.64,0,5.46,0,1.19-.46,1.77-1.7,1.76H236.34c-1.2,0-1.74-.43-1.69-1.71.08-2,.06-3.94,0-5.91,0-1.12.4-1.52,1.51-1.51C239.85,265.07,243.55,265,247.24,265Z" transform="translate(-28.58 -45.79)"/><path class="cls-20" d="M102.46,265c3.64,0,7.28,0,10.92,0,1.35,0,1.77.47,1.72,1.77-.09,1.87,0,3.74,0,5.61,0,1.2-.46,1.77-1.69,1.76H91.27c-1.22,0-1.63-.66-1.65-1.68-.05-1.92,0-3.84,0-5.76,0-1.13.55-1.72,1.8-1.7C95.08,265.08,98.76,265,102.46,265Z" transform="translate(-28.58 -45.79)"/><path class="cls-22" d="M80.47,283.32c1.11,0,2.22.09,3.33.09h79.71c.65,0,1.31-.06,2-.1.86,2.59.34,3.34-2.33,3.34h-6.52c-1,0-1.81-.23-1.89-1.43-.12-1.75-1.43-1.24-2.45-1.33-1.24-.1-1,.76-1.1,1.5a1.25,1.25,0,0,1-1.27,1.25h-8.19a1.28,1.28,0,0,1-1.43-1.11.57.57,0,0,1,0-.13c-.12-1.31-.86-1.54-2-1.53s-1.27.56-1.35,1.46a1.34,1.34,0,0,1-1.36,1.34H127.7a1.54,1.54,0,0,1-1.74-1.31s0-.09,0-.13c-.3-1.46-2.71-2.14-3.86-1.17a1,1,0,0,0-.23.85c.11,1.4-.77,1.72-1.9,1.75s-2,0-3,0H92.38c-1.5,0-2.62-.22-2.67-2,0-.85-.65-.74-1.2-.74a46.82,46.82,0,0,1-6.8-.26C81.19,283.54,80.76,283.67,80.47,283.32Z" transform="translate(-28.58 -45.79)"/><path class="cls-21" d="M138.62,300.56a25.26,25.26,0,0,0-3.48,0c-1.48.21-2-.48-2.07-1.77a35.67,35.67,0,0,1,.21-8,.94.94,0,0,1,1-.89h8.8a1,1,0,0,1,1.12.86,1,1,0,0,1,0,.25v8.34c0,.83-.37,1.19-1.2,1.18Z" transform="translate(-28.58 -45.79)"/><path class="cls-21" d="M124,300.56h-4.2c-.56,0-.94-.11-1-.8a34.57,34.57,0,0,1,0-8.86,1,1,0,0,1,1-1h8.72c1,0,1.2.63,1.2,1.4v8c0,.92-.43,1.24-1.3,1.23Z" transform="translate(-28.58 -45.79)"/><path class="cls-21" d="M109.53,300.56h-4.09c-.88,0-1.22-.33-1.33-1.24a33.34,33.34,0,0,1,0-8.11c.11-.86.34-1.31,1.26-1.3h8.33c1,0,1.36.53,1.36,1.4v8c0,.93-.44,1.24-1.31,1.23Z" transform="translate(-28.58 -45.79)"/><path class="cls-21" d="M254.66,300.56h-4.24c-.82,0-1.2-.21-1.19-1.1v-8.34c0-.82.35-1.21,1.18-1.21h8.49c1,0,1.25.56,1.25,1.35v8.18c0,.87-.49,1.12-1.27,1.11Z" transform="translate(-28.58 -45.79)"/><path class="cls-21" d="M240.21,289.92h3.94c1,0,1.49.32,1.47,1.4q-.06,3.93,0,7.88c0,1.07-.45,1.4-1.46,1.38h-8c-1.15,0-1.5-.47-1.48-1.55,0-2.52.06-5,0-7.57,0-1.23.48-1.6,1.63-1.55S238.9,289.92,240.21,289.92Z" transform="translate(-28.58 -45.79)"/><path class="cls-20" d="M94.93,300.56H91c-1,0-1.39-.46-1.4-1.35v-7.88c0-1,.42-1.45,1.48-1.43h8c1,0,1.43.4,1.42,1.44v7.87c0,1-.37,1.38-1.34,1.35C97.76,300.53,96.34,300.56,94.93,300.56Z" transform="translate(-28.58 -45.79)"/><path class="cls-21" d="M225.49,300.56h-3.94c-.7,0-1.08-.14-1.19-1a33.49,33.49,0,0,1,0-8.72c.11-.84.5-1,1.2-1h8c1,0,1.48.33,1.46,1.4,0,2.63,0,5.25,0,7.88,0,1.09-.47,1.42-1.47,1.38C228.22,300.53,226.85,300.56,225.49,300.56Z" transform="translate(-28.58 -45.79)"/><path class="cls-20" d="M211.3,289.93h4.09c.77,0,1.09.26,1.09,1.05v8.33c0,.91-.37,1.28-1.27,1.27h-8.33c-.55,0-1-.07-1-.77a35.58,35.58,0,0,1,0-8.87c.1-.79.54-1,1.23-1Z" transform="translate(-28.58 -45.79)"/><path class="cls-21" d="M138.76,252.32h3.64c1.21,0,1.88.45,1.85,1.77-.05,2-.06,3.94,0,5.91a1.48,1.48,0,0,1-1.63,1.72h-7.89c-1.28,0-1.66-.86-1.69-1.88-.07-2,0-3.95,0-5.92,0-1.12.73-1.6,1.79-1.61Z" transform="translate(-28.58 -45.79)"/><path class="cls-21" d="M153.14,252.32h4a1.43,1.43,0,0,1,1.65,1.19,1.22,1.22,0,0,1,0,.33c.06,2.17,0,4.35,0,6.52,0,1-.73,1.34-1.5,1.35-2.58.06-5.16.07-7.74,0a1.81,1.81,0,0,1-2-1.56,1.73,1.73,0,0,1,0-.64c.12-1.76,0-3.53,0-5.3,0-1.28.54-2,1.94-1.88Z" transform="translate(-28.58 -45.79)"/><path class="cls-21" d="M124.07,252.32h4c1.15,0,1.64.54,1.63,1.67v6.07a1.44,1.44,0,0,1-1.19,1.64,1.36,1.36,0,0,1-.35,0q-3.86.07-7.73,0a1.64,1.64,0,0,1-1.82-1.46,1.62,1.62,0,0,1,0-.22,47.92,47.92,0,0,1-.08-6.34c0-.91.64-1.4,1.65-1.36Z" transform="translate(-28.58 -45.79)"/><path class="cls-21" d="M196.65,261.7h-3.78a1.46,1.46,0,0,1-1.63-1.27s0-.07,0-.11a31.8,31.8,0,0,1-.23-6.47c0-1.06.59-1.61,1.76-1.58,2.47.06,4.94,0,7.41,0,1.68,0,2,.39,2,2.07v5.29c0,1.76-.36,2-2.06,2C199,261.71,197.81,261.7,196.65,261.7Z" transform="translate(-28.58 -45.79)"/><path class="cls-21" d="M174.76,277.19h3.78c1.26,0,1.86.51,1.81,1.85a52.3,52.3,0,0,0,0,5.6c.08,1.26-.54,1.85-1.6,1.88-2.71.08-5.42.07-8.13,0a1.47,1.47,0,0,1-1.54-1.41,1.29,1.29,0,0,1,0-.28,47.65,47.65,0,0,1,.25-6.32,1.32,1.32,0,0,1,1.33-1.31h.15C172.15,277.18,173.46,277.19,174.76,277.19Z" transform="translate(-28.58 -45.79)"/><path class="cls-21" d="M109.76,252.32h3.79a1.38,1.38,0,0,1,1.58,1.15,1.48,1.48,0,0,1,0,.42v6.22a1.42,1.42,0,0,1-1.22,1.6,1.15,1.15,0,0,1-.37,0c-2.53.05-5.05.06-7.58,0-1.1,0-1.72-.53-1.9-1.84a22.56,22.56,0,0,1,.16-6.46c.13-.85.79-1.08,1.58-1.08Z" transform="translate(-28.58 -45.79)"/><path class="cls-21" d="M225.69,252.32h3.94c.92,0,1.43.27,1.41,1.29v6.82c0,.84-.41,1.26-1.16,1.27h-8.49c-.59,0-.88-.31-1-.91-.54-2.4-.26-4.82-.21-7.23,0-.82.62-1.32,1.57-1.28C223.06,252.32,224.38,252.32,225.69,252.32Z" transform="translate(-28.58 -45.79)"/><path class="cls-21" d="M167.76,252.32h3.63c1.21,0,1.72.43,1.71,1.59v6.21a1.42,1.42,0,0,1-1.23,1.59,1.09,1.09,0,0,1-.36,0c-2.68.05-5.35,0-8,0a1.2,1.2,0,0,1-1.31-1.1,1,1,0,0,1,0-.24V254c0-1.12.52-1.78,1.78-1.71S166.46,252.32,167.76,252.32Z" transform="translate(-28.58 -45.79)"/><path class="cls-21" d="M182.13,252.32h3.79c1.26,0,1.74.55,1.71,1.75,0,2,0,3.95,0,5.92a1.46,1.46,0,0,1-1.16,1.71,1.77,1.77,0,0,1-.46,0c-2.47.05-4.95.06-7.43,0-1.24,0-2-.52-1.93-2a55.33,55.33,0,0,0,0-5.76c0-1.13.47-1.57,1.52-1.57Z" transform="translate(-28.58 -45.79)"/><path class="cls-21" d="M211,252.32h3.79c1.26,0,1.67.5,1.66,1.65v6.36a1.21,1.21,0,0,1-1,1.39,1.28,1.28,0,0,1-.39,0h-8.18a1,1,0,0,1-1.11-1,32.22,32.22,0,0,1-.24-6.94,1.4,1.4,0,0,1,1.25-1.54,1.43,1.43,0,0,1,.41,0C208.5,252.32,209.76,252.32,211,252.32Z" transform="translate(-28.58 -45.79)"/><path class="cls-21" d="M240,261.69h-3.48a1.72,1.72,0,0,1-1.92-2.06,55.05,55.05,0,0,0,0-5.6c0-1.22.51-1.75,1.72-1.74h7.56c1.25,0,1.7.6,1.68,1.78,0,1.87-.11,3.74,0,5.6.1,1.54-.73,2-2,2Z" transform="translate(-28.58 -45.79)"/><path class="cls-21" d="M189.28,277.19h3.63c1.21,0,2.16.51,2,2.12a44.07,44.07,0,0,0,0,5.14,1.82,1.82,0,0,1-1.51,2.09,2,2,0,0,1-.49,0c-2.51.08-5,0-7.56,0-1,0-1.44-.47-1.41-1.51.05-2.12.06-4.24,0-6.36,0-1.14.51-1.53,1.54-1.53Z" transform="translate(-28.58 -45.79)"/><path class="cls-21" d="M182.15,265h4.09c.94,0,1.41.3,1.39,1.31v6.22a1.37,1.37,0,0,1-1.11,1.59,1.7,1.7,0,0,1-.45,0h-7.89a1.57,1.57,0,0,1-1.77-1.34,1.55,1.55,0,0,1,0-.43v-5.92c0-1,.44-1.47,1.49-1.42C179.32,265.09,180.76,265,182.15,265Z" transform="translate(-28.58 -45.79)"/><path class="cls-21" d="M153.1,265H157c1.32,0,1.77.46,1.75,1.7v5.75c0,1.13-.48,1.68-1.63,1.67h-7.72c-1.34,0-1.9-.69-1.89-2v-5.45c0-1.24.57-1.73,1.77-1.69S151.84,265,153.1,265Z" transform="translate(-28.58 -45.79)"/><path class="cls-21" d="M138.66,274.15h-4c-.85,0-1.3-.34-1.49-1.31a39.21,39.21,0,0,1-.21-6.5,1.2,1.2,0,0,1,1.37-1.28h8.43a1.32,1.32,0,0,1,1.49,1.12,1.21,1.21,0,0,1,0,.38v6.07c0,1.09-.56,1.55-1.61,1.54C141.29,274.14,140,274.15,138.66,274.15Z" transform="translate(-28.58 -45.79)"/><path class="cls-21" d="M218.5,277.19H222a1.59,1.59,0,0,1,1.78,1.37,1.41,1.41,0,0,1,0,.41v6c0,.58-.06,1.13-.79,1.25a30.17,30.17,0,0,1-9,.08c-.9-.13-1.17-.58-1.15-1.42,0-1.91.06-3.83,0-5.74a1.76,1.76,0,0,1,1.91-2C215.94,277.07,217.24,277.19,218.5,277.19Z" transform="translate(-28.58 -45.79)"/><path class="cls-21" d="M254.57,252.32h3.79a1.66,1.66,0,0,1,1.81,1.5,1.4,1.4,0,0,1,0,.29v5.61a1.84,1.84,0,0,1-1.66,2h-.34c-2.23,0-4.45.07-6.67,0-1.79-.06-2.25-.64-2.25-2.47V254.4c0-1.77.28-2.05,2-2.06Z" transform="translate(-28.58 -45.79)"/><path class="cls-21" d="M124.22,265h4.24c.82,0,1.19.36,1.19,1.19v6.51a1.27,1.27,0,0,1-1.12,1.4h-8.48a1.21,1.21,0,0,1-1.35-1.05,1.34,1.34,0,0,1,0-.2,23.54,23.54,0,0,1,0-6.6c.16-1,.56-1.27,1.46-1.25C121.49,265.07,122.86,265,124.22,265Z" transform="translate(-28.58 -45.79)"/><path class="cls-21" d="M95.25,252.32h3.34c1.33,0,1.93.65,1.92,2,0,1.77-.05,3.54,0,5.31a1.83,1.83,0,0,1-1.52,2.1,1.93,1.93,0,0,1-.48,0c-2.22.07-4.45.08-6.67,0-1.69,0-2.24-.7-2.26-2.38s0-3.13,0-4.7.67-2.26,2.33-2.3C93,252.32,94.14,252.32,95.25,252.32Z" transform="translate(-28.58 -45.79)"/><path class="cls-21" d="M196.64,274.15H192.7c-.95,0-1.41-.39-1.47-1.46a26.27,26.27,0,0,1,0-6.14c.17-1.05.38-1.54,1.52-1.52,2.57.06,5.14.05,7.72,0,1.32,0,1.79.59,1.76,1.85,0,1.82,0,3.63,0,5.45,0,1.27-.48,1.87-1.79,1.83S197.9,274.15,196.64,274.15Z" transform="translate(-28.58 -45.79)"/><path class="cls-21" d="M167.65,274.15h-3.94a1.36,1.36,0,0,1-1.58-1.1,1.7,1.7,0,0,1,0-.45v-5.9c0-1.14.48-1.67,1.64-1.67h8c.88,0,1.29.34,1.28,1.25v6.36c0,1.09-.59,1.52-1.62,1.51C170.17,274.13,168.91,274.15,167.65,274.15Z" transform="translate(-28.58 -45.79)"/><path class="cls-20" d="M211.23,265H215c1,0,1.49.31,1.47,1.39,0,2.12,0,4.24,0,6.36,0,.94-.33,1.39-1.32,1.38h-7.73c-1.1,0-1.49-.43-1.66-1.6a24.6,24.6,0,0,1,0-6.3c.1-.92.48-1.23,1.34-1.22C208.5,265.06,209.86,265,211.23,265Z" transform="translate(-28.58 -45.79)"/><path class="cls-21" d="M225.76,265h3.79c1,0,1.5.3,1.47,1.39-.05,2,0,4,0,6.06,0,1.14-.48,1.68-1.64,1.67h-7.73c-.9,0-1.19-.38-1.3-1.26a28.11,28.11,0,0,1,0-6.61c.11-.9.44-1.26,1.32-1.25C223.05,265.06,224.42,265,225.76,265Z" transform="translate(-28.58 -45.79)"/><path class="cls-21" d="M203.65,286.32h-3.93c-.81,0-1.21-.21-1.19-1.1,0-2.21,0-4.42,0-6.65a1.15,1.15,0,0,1,.94-1.33,1.13,1.13,0,0,1,.32,0h7.71a1.6,1.6,0,0,1,1.75,1.43,1.57,1.57,0,0,1,0,.57,44.88,44.88,0,0,0,0,5.44c.07,1.37-.5,1.78-1.78,1.69S204.91,286.32,203.65,286.32Z" transform="translate(-28.58 -45.79)"/><path class="cls-21" d="M153.13,249.25h-2.87a3.56,3.56,0,0,1-1.61-.28c-2.1-1.21-.82-3.23-1-4.88-.16-1.17.87-1.21,1.79-1.2H157c1.27,0,1.89.47,1.82,1.78v2c0,2.27-.31,2.58-2.64,2.63C155.15,249.32,154.14,249.25,153.13,249.25Z" transform="translate(-28.58 -45.79)"/><path class="cls-21" d="M138.69,242.88h4.24c.89,0,1.32.34,1.29,1.26s0,1.72,0,2.58c0,2.19-.2,2.44-2.37,2.52a48.84,48.84,0,0,1-7.55-.27,1.18,1.18,0,0,1-1.11-.86,2.67,2.67,0,0,1-.19-.88c0-5.35-.39-4.24,4-4.34Z" transform="translate(-28.58 -45.79)"/><path class="cls-21" d="M124.15,242.88h4.09c1.06,0,1.47.41,1.41,1.44v2.43c0,2.16-.21,2.43-2.4,2.49a45.33,45.33,0,0,1-7.55-.27,1.18,1.18,0,0,1-1-.75,3.64,3.64,0,0,1-.22-.71c-.65-4.12-.23-4.62,3.89-4.62Z" transform="translate(-28.58 -45.79)"/><path class="cls-21" d="M109.76,242.88h4.1c.9,0,1.29.39,1.26,1.28s0,1.52,0,2.28c0,3,.13,2.42-2.42,2.72a21.83,21.83,0,0,1-7.39-.19h-.15c-2.25-.91-1-2.86-1.23-4.35-.14-1.07.45-1.79,1.73-1.73S108.35,242.88,109.76,242.88Z" transform="translate(-28.58 -45.79)"/><path class="cls-21" d="M196.88,242.88h3.33c2,0,2,0,2,2.05a11.13,11.13,0,0,0,0,2c.26,1.59-.55,2.23-2,2.31a49.17,49.17,0,0,1-8.14-.27,1,1,0,0,1-.89-.71,3,3,0,0,1-.23-.87c0-4.94-.5-4.5,3.93-4.48Z" transform="translate(-28.58 -45.79)"/><path class="cls-21" d="M167.88,249.24a28.11,28.11,0,0,1-4.49-.25,1.23,1.23,0,0,1-1.25-1.21h0v-.15c-.5-4.74-.5-4.74,4.16-4.74,1.67,0,3.34.08,5,0,1.45-.1,1.91.49,1.78,1.84a10.88,10.88,0,0,0,0,2.42c.21,1.59-.7,2-2,2.11C170.11,249.32,169.15,249.24,167.88,249.24Z" transform="translate(-28.58 -45.79)"/><path class="cls-21" d="M211.43,249.24a30.41,30.41,0,0,1-4.67-.27,1.13,1.13,0,0,1-1.2-1.05.67.67,0,0,1,0-.2v-3.64c0-.84.49-1.23,1.39-1.21h8.19c1,0,1.37.41,1.33,1.37a17.31,17.31,0,0,0,0,2.88c.2,1.61-.71,2-2,2.11C213.56,249.32,212.64,249.24,211.43,249.24Z" transform="translate(-28.58 -45.79)"/><path class="cls-21" d="M95,242.88h3.78c.4,0,.87-.07,1.14.27,1.13,1.43.4,3.1.49,4.65.06,1-.86,1.26-1.58,1.31a31.46,31.46,0,0,1-8.11-.15,1.3,1.3,0,0,1-.77-.43c-.62-.76-.59-4.54,0-5.26a1.46,1.46,0,0,1,1.24-.39Z" transform="translate(-28.58 -45.79)"/><path class="cls-21" d="M245.61,246.24c.63-.6,1.41-.31,2.11-.29,1,0,1.37-.34,1.2-1.3a6.62,6.62,0,0,1,.07-1.18,4.31,4.31,0,0,1,2.6-.6H258c1.63,0,2.2.56,2.23,2.14.09,4.64-.3,3.92-3.81,3.94h-5.45c-.79,0-1.53-.19-1.62-1-.2-1.72-1.25-1.91-2.63-1.74C246.32,246.25,246,246.23,245.61,246.24Z" transform="translate(-28.58 -45.79)"/><path class="cls-21" d="M182.17,242.88h4.08c.95,0,1.42.32,1.38,1.32v3.48c0,.88-.34,1.3-1.25,1.29h-8.47c-.81,0-1.23-.33-1.22-1.16V244c0-.85.45-1.14,1.24-1.13C179.34,242.9,180.76,242.88,182.17,242.88Z" transform="translate(-28.58 -45.79)"/><path class="cls-23" d="M93.68,202.14c-.29-1.48-.23-3-.87-4.43,0-.65.07-1.31.07-2V117.9c0-2.24,0-2.24,2.23-2.24H257c3.29,0,3.19-.7,3.19,3.12v81.33c0,2,0,2.06-2,2.06H95.49C94.88,202.17,94.28,202.15,93.68,202.14Z" transform="translate(-28.58 -45.79)"/><path class="cls-24" d="M271.76,133c2.34.83,3.39,2.85,4.38,4.89a1.51,1.51,0,0,1-.33,1.81,1.35,1.35,0,0,1-1.68,0c-1.71-.9-3.4-1.83-5.1-2.74-.8-1.24-2.13-2-2.9-3.26-.31-.52-.52-.9.2-1.15s.33-1.2.8-1.65c.53.32.39.88.47,1.35.3,1.66,1.41,2.17,2.84,1.32C270.81,133.32,271.12,132.81,271.76,133Z" transform="translate(-28.58 -45.79)"/><path class="cls-25" d="M271.76,133c-.22.19-.45.38-.66.59a2.27,2.27,0,0,1-2.69.68,2.25,2.25,0,0,1-1.28-2.46v-.89l.07-.32a15.44,15.44,0,0,0,4.45.25A15.49,15.49,0,0,0,271.76,133Z" transform="translate(-28.58 -45.79)"/><path class="cls-5" d="M93.58,207.37v-3.05c1.11,0,2.22.06,3.33,0s.87.87.87,1.49.3,1.51-.88,1.5S94.68,207.32,93.58,207.37Z" transform="translate(-28.58 -45.79)"/><path class="cls-23" d="M287.76,135.32a22.5,22.5,0,0,1,45,.13h0c0,12.5-10.15,22.45-23,22.43C297.76,157.82,287.76,147.58,287.76,135.32Z" transform="translate(-28.58 -45.79)"/><path class="cls-11" d="M283.4,132.1c1.44,2,1.78,4.33,2.24,6.63a3.69,3.69,0,0,1-.11,1.48c-.14.64-.33,1.31-1.07,1.53s-1.21-.35-1.64-.83c-1.79-2-2.7-4.45-3.77-6.82a1.59,1.59,0,0,1,.21-1.71.84.84,0,0,1,.51.28c1.44,1.37,1.9,1.33,3.16-.28C283.06,132.22,283.16,132.05,283.4,132.1Z" transform="translate(-28.58 -45.79)"/><path class="cls-26" d="M283.4,132.1a2.26,2.26,0,0,1-2.13,1.94c-1.16.09-1.61-.78-2-1.66l-.24-1.8a17,17,0,0,0,4.23-.94Z" transform="translate(-28.58 -45.79)"/><path class="cls-27" d="M246.89,61.82a4.23,4.23,0,0,1,.93,5.9l-.21.26a43.91,43.91,0,0,1-3.93,3.54c-3.34,2.64-3.6,6.08-.58,9a11.13,11.13,0,0,0,6.94,3c1.29.13,2.57.38,3.86.58.29,0,.64.15.59.53s-.33.33-.59.39c-4.32,1-11.67-2.27-13.72-5.89-1.43-2.53-.24-5.46,1.75-7.86a12.54,12.54,0,0,1,3.18-2.53c2.08-1.31,2.22-3.21,1.93-5.3A4.45,4.45,0,0,1,246.89,61.82Z" transform="translate(-28.58 -45.79)"/><path class="cls-27" d="M256,65.56c.26,5.51.13,11,.8,16.53C254.92,80.32,254.35,69.1,256,65.56Z" transform="translate(-28.58 -45.79)"/><path class="cls-28" d="M254.76,62.54c0-.58-.15-1.32.65-1.44a2.5,2.5,0,0,1,2.13.26c.46.41.24,1-.07,1.49A4.75,4.75,0,0,1,254.76,62.54Z" transform="translate(-28.58 -45.79)"/><path class="cls-29" d="M36.69,195.06l.44,4.3C35.76,198.26,35.55,197.08,36.69,195.06Z" transform="translate(-28.58 -45.79)"/><path class="cls-30" d="M254.43,54.66a2,2,0,0,1,2.11,2.22,2.3,2.3,0,0,1-2.3,2.3h0a2.64,2.64,0,0,1-2.2-2.32,2.3,2.3,0,0,1,2.4-2.2Z" transform="translate(-28.58 -45.79)"/><path class="cls-31" d="M259.19,55.63a.67.67,0,0,1-.71.63h0a.62.62,0,0,1-.64-.62v-.07a.63.63,0,0,1,.61-.63h.09a.67.67,0,0,1,.66.68Z" transform="translate(-28.58 -45.79)"/><path class="cls-32" d="M52.54,168.67a2.13,2.13,0,1,1-2-2.26A2.37,2.37,0,0,1,52.54,168.67Z" transform="translate(-28.58 -45.79)"/><path class="cls-5" d="M155.76,157.85a47,47,0,0,1,2.49-16.39c2-5.61,5.49-10.12,11.5-11.77,7.94-2.18,15.85.25,20.29,8.77,2.21,4.25,3,8.83,3.53,13.53a50.32,50.32,0,0,1-2,22c-1.58,4.65-4,8.74-8.46,11.25-8.54,4.8-18.67,1.53-23.39-7.5-2.87-5.52-3.56-11.53-3.91-17.6C155.76,159.37,155.76,158.61,155.76,157.85Z" transform="translate(-28.58 -45.79)"/><path class="cls-3" d="M233.16,146.59v15c0,1.09.21,1.56,1.4,1.46s2.63,0,3.94,0c.8,0,1.21.15,1.18,1.07-.05,2.23,0,4.45,0,6.68,0,.8-.31,1.06-1.08,1h-4.25c-1-.05-1.19.3-1.18,1.21.05,3.84-.06,7.69.06,11.53,0,1.47-.46,1.77-1.79,1.71-2.22-.09-4.45,0-6.68,0-2,0-2,0-2-1.93,0-3.59-.08-7.18,0-10.77.05-1.48-.5-1.74-1.79-1.74H200.33c-1.26,0-1.74-.32-1.61-1.6a15,15,0,0,0-.11-2.41,9,9,0,0,1,1.21-5.81c6.4-9.89,12.43-20,18.57-30.06a3.57,3.57,0,0,1,3.54-2c3.23.12,6.47.06,9.71,0,1.13,0,1.56.35,1.54,1.58C233.12,136.58,233.16,141.58,233.16,146.59Z" transform="translate(-28.58 -45.79)"/><path class="cls-3" d="M143.65,146.6v15.18c0,1,.25,1.34,1.27,1.28,1.41-.08,2.83,0,4.25,0,.8,0,1.18.15,1.16,1.07-.07,2.17-.05,4.35,0,6.52,0,.81-.29,1.06-1.06,1H145c-1.08-.06-1.37.36-1.36,1.41v11.68c0,1.2-.33,1.57-1.53,1.52q-3.72-.12-7.43,0c-1.17,0-1.59-.27-1.56-1.51.07-3.79,0-7.59,0-11.38,0-1.31-.4-1.58-1.63-1.57H110.72c-1.14,0-1.45-.25-1.58-1.48-.47-4.47,1-8.21,3.38-11.93,5.7-8.84,11.11-17.85,16.6-26.82a2.87,2.87,0,0,1,2.8-1.62c3.28.06,6.58.09,9.86,0,1.52,0,1.85.5,1.83,1.92C143.6,136.78,143.65,141.69,143.65,146.6Z" transform="translate(-28.58 -45.79)"/><path class="cls-23" d="M166.32,157.73c.11-5.15.14-10.31,2.19-15.19a7.83,7.83,0,0,1,3.2-4.09c3.14-1.76,6.79-.65,8.71,2.63,1.73,3,2.14,6.26,2.49,9.59a59.61,59.61,0,0,1-.75,19.58,17.76,17.76,0,0,1-1.95,5.07c-2.58,4.32-7.92,4.44-10.7.23a18.93,18.93,0,0,1-2.53-7.7A59.08,59.08,0,0,1,166.32,157.73Z" transform="translate(-28.58 -45.79)"/><path class="cls-23" d="M209.6,163.09a225.67,225.67,0,0,0,13.16-22.69c0,3,.12,6,0,8.9-.21,4.09-.1,8.18-.1,12.27,0,1.16-.28,1.57-1.51,1.54C217.43,163,213.7,163.09,209.6,163.09Z" transform="translate(-28.58 -45.79)"/><path class="cls-23" d="M120.27,163.09c.31-.57.46-.89.64-1.18a206.44,206.44,0,0,0,12.44-21.59,7.18,7.18,0,0,1,.19,2.88c-.43,6.11-.29,12.23-.26,18.34,0,1.24-.29,1.65-1.58,1.62C128,163,124.23,163.09,120.27,163.09Z" transform="translate(-28.58 -45.79)"/></svg>