<svg width="985" height="304" xmlns="http://www.w3.org/2000/svg" xmlns:xlink="http://www.w3.org/1999/xlink" overflow="hidden"><defs><clipPath id="clip0"><rect x="169" y="433" width="985" height="304"/></clipPath><clipPath id="clip1"><rect x="169" y="433" width="974" height="303"/></clipPath><clipPath id="clip2"><rect x="169" y="433" width="974" height="303"/></clipPath><clipPath id="clip3"><rect x="169" y="15" width="974" height="721"/></clipPath><clipPath id="clip4"><rect x="169" y="433" width="984" height="254"/></clipPath><clipPath id="clip5"><rect x="169" y="432" width="984" height="255"/></clipPath><clipPath id="clip6"><rect x="169" y="15" width="984" height="672"/></clipPath></defs><g clip-path="url(#clip0)" transform="translate(-169 -433)"><g clip-path="url(#clip1)"><g clip-path="url(#clip2)"><g clip-path="url(#clip3)"><path d="M626.845 288.711C380.311 343.875 100.689 239.36 0 114.972L0 720.354C345.257 402.621 793.188 536.474 974 651.4L974 0.338194C961.007 44.28 873.38 233.547 626.845 288.711Z" fill="#E0E3E4" transform="matrix(1 0 0 1.00028 169 15.4464)"/></g></g></g><g clip-path="url(#clip4)"><g clip-path="url(#clip5)"><g clip-path="url(#clip6)"><path d="M480.255 508.965C237.643 508.965 58.9966 625.746 0 669.638L0 244.589C138.869 299.17 243.021 333.624 480.255 321.685 725.998 309.317 895.733 98.7007 983.659 0.340956L983.659 655.659C887.509 578.262 722.868 508.965 480.255 508.965Z" fill="#F5F8FA" transform="matrix(1 0 0 1.00261 169 15.6107)"/></g></g></g></g></svg>