<svg width="443" height="722" xmlns="http://www.w3.org/2000/svg" xmlns:xlink="http://www.w3.org/1999/xlink" overflow="hidden"><defs><clipPath id="clip0"><rect x="582" y="-1" width="443" height="722"/></clipPath></defs><g clip-path="url(#clip0)" transform="translate(-582 1)"><path d="M796 466.158 796 475.25C796 478.669 798.692 481.474 802.021 481.515L814.942 481.676C816.049 489.803 818.242 497.608 821.375 504.938L809.802 511.465C806.896 513.105 805.901 516.883 807.578 519.91L812.047 527.988C813.733 531.033 817.477 532.196 820.415 530.577L832.381 523.975C837.246 530.46 842.965 536.322 849.386 541.39L842.211 553.576C840.476 556.521 841.505 560.443 844.513 562.345L852.555 567.433C855.596 569.357 859.496 568.522 861.263 565.561L868.656 553.165C876.061 556.559 884.015 559.052 892.379 560.477L892.379 575.522C892.379 579.105 895.337 582.185 898.994 582.404L908.785 582.988C912.491 583.207 915.503 580.453 915.503 576.829L915.503 561.619C924.12 561.013 932.446 559.257 940.314 556.49L948.282 570.134C950.203 573.423 954.468 574.749 957.816 573.084L966.766 568.632C970.151 566.947 971.32 562.89 969.358 559.58L961.326 545.993C968.514 541.193 974.987 535.425 980.556 528.861L994.483 536.916C997.963 538.923 1002.41 537.971 1004.44 534.776L1009.82 526.255C1011.86 523.039 1010.64 518.812 1007.13 516.825L993.357 509.03C997.059 501.223 999.66 492.814 1000.97 483.982L1016.58 484.175C1020.67 484.225 1024 481.182 1024 477.372L1024 467.247C1024 463.441 1020.67 460.348 1016.58 460.341L1001.38 460.315C1000.34 451.272 997.971 442.621 994.458 434.552L1007.13 427.559C1010.64 425.62 1011.85 421.411 1009.82 418.167L1004.44 409.569C1002.41 406.347 997.954 405.332 994.483 407.289L982.236 414.198C976.625 407.108 969.998 400.852 962.585 395.628L969.358 384.271C971.32 380.987 970.151 376.912 966.766 375.181L957.814 370.602C954.466 368.891 950.201 370.155 948.279 373.417L941.745 384.518C933.459 381.348 924.646 379.299 915.503 378.54L915.503 366.261C915.503 362.639 912.489 359.839 908.785 360.007L898.994 360.453C895.335 360.619 892.379 363.66 892.379 367.242L892.379 379.387C883.511 380.785 875.102 383.392 867.321 387.006L861.265 376.764C859.499 373.777 855.598 372.888 852.557 374.769L844.515 379.744C841.507 381.606 840.478 385.514 842.212 388.481L848.255 398.829C841.647 404.127 835.812 410.285 830.922 417.116L820.417 411.173C817.479 409.509 813.735 410.621 812.05 413.643L807.58 421.656C805.905 424.661 806.898 428.451 809.804 430.134L820.442 436.285C817.469 443.757 815.471 451.71 814.605 459.996L802.023 459.975C798.692 459.971 796 462.739 796 466.158ZM839.646 469.598C839.646 434.887 867.915 406.061 903.88 405.188 941.108 404.286 972.267 433.488 972.267 470.445 972.267 507.399 941.108 536.205 903.88 534.828 867.915 533.498 839.646 504.312 839.646 469.598Z" fill="#4B6070" fill-rule="evenodd" fill-opacity="0.45098"/><path d="M946 370.308 954.924 370 958 378 946 370.308Z" fill="#BFC8D6" fill-rule="evenodd"/><path d="M857 374 846 374.093 846 381 857 374Z" fill="#BFC8D6" fill-rule="evenodd"/><path d="M817 410 807 410.471 809.499 417 817 410Z" fill="#BFC8D6" fill-rule="evenodd"/><path d="M801 460 791 460.843 794.267 466 801 460Z" fill="#BFC8D6" fill-rule="evenodd"/><path d="M818 531.599 808.2 533 807 525 818 531.599Z" fill="#BFC8D6" fill-rule="evenodd"/><path d="M857 568.523 847.736 570 847 564 857 568.523Z" fill="#BFC8D6" fill-rule="evenodd"/><path d="M902 585 911 583.538 903.252 573 902 585Z" fill="#BFC8D6" fill-rule="evenodd"/><path d="M947 576 956 574.01 949.055 565 947 576Z" fill="#BFC8D6" fill-rule="evenodd"/><path d="M1000 406 990 406.327 993.96 414 1000 406Z" fill="#BFC8D6" fill-rule="evenodd"/><path d="M1020 483.735 1010 485 1010.8 478 1020 483.735Z" fill="#BFC8D6" fill-rule="evenodd"/><path d="M1000 538.527 990.756 540 990 534 1000 538.527Z" fill="#BFC8D6" fill-rule="evenodd"/><path d="M786 467.109 786 476.283C786 479.732 788.716 482.563 792.075 482.605L805.107 482.768C806.224 490.969 808.438 498.843 811.599 506.239L799.925 512.825C796.991 514.48 795.989 518.29 797.679 521.345L802.189 529.496C803.89 532.569 807.666 533.743 810.631 532.107L822.703 525.446C827.611 531.988 833.378 537.903 839.857 543.016L832.618 555.312C830.869 558.283 831.907 562.24 834.941 564.16L843.054 569.293C846.121 571.233 850.055 570.392 851.838 567.404L859.294 554.897C866.764 558.32 874.788 560.838 883.226 562.277L883.226 577.457C883.226 581.071 886.208 584.181 889.898 584.399L899.775 584.988C903.514 585.21 906.552 582.429 906.552 578.774L906.552 563.428C915.246 562.816 923.644 561.046 931.579 558.254L939.616 572.021C941.554 575.34 945.857 576.677 949.234 574.996L958.266 570.505C961.683 568.806 962.855 564.711 960.879 561.371L952.776 547.663C960.023 542.819 966.555 536.998 972.169 530.374L986.23 538.504C989.729 540.53 994.225 539.568 996.265 536.345L1001.69 527.745C1003.75 524.5 1002.53 520.236 998.986 518.23L985.087 510.365C988.816 502.488 991.444 494.005 992.775 485.092L1008.52 485.287C1012.65 485.338 1016 482.266 1016 478.426L1016 468.21C1016 464.37 1012.65 461.249 1008.52 461.242L993.176 461.214C992.135 452.09 989.746 443.361 986.196 435.22L998.986 428.165C1002.53 426.211 1003.75 421.962 1001.69 418.688L996.265 410.013C994.225 406.761 989.729 405.737 986.23 407.713L973.875 414.685C968.21 407.529 961.527 401.22 954.049 395.948L960.881 384.489C962.857 381.176 961.684 377.064 958.268 375.317L949.236 370.697C945.859 368.97 941.555 370.246 939.618 373.537L933.026 384.738C924.666 381.54 915.777 379.472 906.554 378.707L906.554 366.317C906.554 362.662 903.514 359.838 899.777 360.007L889.9 360.456C886.21 360.624 883.228 363.691 883.228 367.305L883.228 379.561C874.281 380.971 865.8 383.601 857.949 387.246L851.84 376.913C850.059 373.899 846.123 373.001 843.055 374.9L834.944 379.919C831.909 381.796 830.872 385.74 832.62 388.736L838.714 399.177C832.048 404.521 826.161 410.736 821.228 417.627L810.631 411.63C807.666 409.953 803.89 411.072 802.189 414.122L797.679 422.209C795.989 425.242 796.991 429.066 799.925 430.762L810.656 436.967C807.658 444.506 805.642 452.532 804.768 460.891L792.077 460.87C788.716 460.867 786 463.659 786 467.109ZM830.03 470.58C830.03 435.556 858.548 406.472 894.826 405.59 932.381 404.679 963.809 434.145 963.809 471.432 963.809 508.719 932.381 537.783 894.826 536.393 858.546 535.053 830.03 505.606 830.03 470.58Z" fill="#CFD5E0" fill-rule="evenodd"/><path d="M756.5 686C760.642 686 764 682.642 764 678.5 764 674.358 760.642 671 756.5 671 752.358 671 749 674.358 749 678.5 749 682.642 752.358 686 756.5 686Z" fill="#405363" fill-rule="evenodd"/><path d="M838.5 686C842.642 686 846 682.642 846 678.5 846 674.358 842.642 671 838.5 671 834.358 671 831 674.358 831 678.5 831 682.642 834.358 686 838.5 686Z" fill="#405363" fill-rule="evenodd"/><path d="M861.973 482.999C919.731 413.23 1010 273.34 1010 201.557 1010 83.4527 914.19 0 796 0 677.81 0 582 83.4527 582 201.558 582 273.341 672.75 413.231 730.027 483L861.973 482.999Z" fill="#009999" fill-rule="evenodd"/><path d="M974 243.307C974 133.761 923.932 40.7167 854.325 7.22207 845.121 4.92388 835.663 3.17952 826 2 874.791 29.9673 910.8 127.398 910.8 243.307 910.8 357.083 876.104 453.054 828.682 483L862.211 483 874.519 467.644C902.282 432.075 934.933 384.152 961.202 336.592 969.444 307.774 974 276.292 974 243.307Z" fill="#A9D5D5" fill-rule="evenodd"/><path d="M683.445 243.43C683.445 127.248 719.803 29.6334 769 2 759.74 3.04619 750.671 4.62045 741.821 6.68483 671.069 39.4703 620 133.066 620 243.43 620 278.455 625.153 311.786 634.436 342.029 659.741 386.764 690.301 431.406 716.576 465.35L730.639 483 765.888 483C718.278 453.07 683.445 357.147 683.445 243.43Z" fill="#A9D5D5" fill-rule="evenodd"/><path d="M805.402 0.181855C802.351 0.0699925 799.287 0 796.205 0 793.669 0 791.147 0.0523632 788.631 0.128232 772.229 25.7033 760 124.825 760 243.207 760 357.03 771.305 453.042 786.757 483L807.244 483C822.695 453.042 834 357.029 834 243.207 834 124.904 821.79 25.8374 805.402 0.181855Z" fill="#A9D5D5" fill-rule="evenodd"/><path d="M796.408 357C739.278 357 687.54 361.891 650 369.803 665.189 394.403 681.415 418.295 697.004 439.637 726.528 443.056 760.396 445 796.409 445 832.5 445 866.436 443.047 896.005 439.615 911.625 418.289 927.84 394.419 943 369.841 905.444 361.906 853.63 357 796.408 357Z" fill="#45A7A8" fill-rule="evenodd"/><path d="M970.032 81C980.939 114.71 984.225 151.811 978.08 189.672 958.342 311.28 848.888 394.67 733.605 375.929 689.384 368.74 650.739 347.557 621 317.323 652.486 378.148 697.036 442.424 730.293 483L862.114 483C919.817 413.186 1010 273.207 1010 201.377 1010 154.895 995.184 113.783 970.032 81Z" fill="#405363" fill-rule="evenodd" fill-opacity="0.180392"/><path d="M846.615 537 745.384 537C743.583 537 742.02 535.753 741.62 533.995L730 483 862 483 850.38 533.995C849.98 535.753 848.416 537 846.615 537Z" fill="#405363" fill-rule="evenodd"/><path d="M758.494 659C758.267 659 758.061 658.847 758.004 658.617L738.884 583.695 677.03 410.681C676.936 410.416 677.072 410.125 677.334 410.029 677.595 409.937 677.887 410.071 677.982 410.336L739.851 583.397 758.984 658.364C759.053 658.635 758.891 658.913 758.62 658.983 758.578 658.995 758.536 659 758.494 659Z" fill="#405363" fill-rule="evenodd"/><path d="M769.491 659C769.264 659 769.059 658.849 768.999 658.621 761.638 630.461 752.232 584.362 752.138 583.901 751.841 582.949 721.072 483.336 709.012 428.615 708.951 428.341 709.125 428.071 709.4 428.012 709.68 427.951 709.944 428.126 710.006 428.398 722.056 483.079 752.814 582.651 753.123 583.65 753.229 584.161 762.63 630.232 769.983 658.365 770.055 658.636 769.892 658.913 769.619 658.984 769.576 658.995 769.532 659 769.491 659Z" fill="#405363" fill-rule="evenodd"/><path d="M780.486 659C780.24 659 780.021 658.821 779.981 658.571 775.454 630.049 766.12 584.19 766.026 583.73 765.87 582.762 750.662 488.328 743.006 439.586 742.963 439.308 743.153 439.048 743.433 439.005 743.714 438.966 743.975 439.151 744.018 439.429 751.672 488.17 766.881 582.602 767.034 583.55 767.124 583.99 776.462 629.869 780.994 658.413 781.038 658.69 780.846 658.951 780.567 658.995 780.541 658.998 780.514 659 780.486 659Z" fill="#405363" fill-rule="evenodd"/><path d="M790.506 659C790.244 659 790.027 658.79 790.013 658.519 788.542 629.851 785.506 584.205 785.475 583.747 785.425 582.82 780.522 491.214 778.001 445.536 777.985 445.255 778.194 445.015 778.466 445 778.779 444.997 778.973 445.199 778.987 445.478 781.508 491.158 786.411 582.764 786.461 583.685 786.49 584.136 789.529 629.79 790.999 658.465 791.014 658.745 790.804 658.985 790.532 658.999 790.524 659 790.515 659 790.506 659Z" fill="#405363" fill-rule="evenodd"/><path d="M801.532 659C801.522 659 801.513 659 801.504 658.999 801.211 658.985 800.985 658.745 801.001 658.465 802.585 629.79 805.856 584.136 805.888 583.679 805.941 582.766 811.223 491.158 813.936 445.478 813.953 445.199 814.175 444.997 814.498 445 814.791 445.015 815.016 445.255 814.999 445.535 812.285 491.215 807.004 582.821 806.95 583.741 806.917 584.205 803.646 629.85 802.063 658.518 802.048 658.789 801.813 659 801.532 659Z" fill="#405363" fill-rule="evenodd"/><path d="M812.514 659C812.487 659 812.46 658.998 812.433 658.994 812.153 658.951 811.963 658.69 812.006 658.412 816.537 629.869 825.876 583.989 825.969 583.529 826.119 582.602 841.328 488.17 848.982 439.43 849.026 439.152 849.293 438.962 849.567 439.006 849.846 439.049 850.037 439.309 849.994 439.587 842.339 488.328 827.13 582.762 826.978 583.71 826.88 584.191 817.545 630.048 813.019 658.57 812.98 658.821 812.761 659 812.514 659Z" fill="#405363" fill-rule="evenodd"/><path d="M823.509 659C823.467 659 823.423 658.995 823.381 658.984 823.109 658.913 822.946 658.636 823.017 658.365 830.369 630.232 839.77 584.162 839.863 583.7 840.185 582.652 870.945 483.079 882.995 428.398 883.054 428.126 883.325 427.951 883.601 428.012 883.875 428.072 884.049 428.341 883.988 428.615 871.93 483.337 841.158 582.95 840.848 583.95 840.767 584.364 831.361 630.461 824.001 658.621 823.941 658.849 823.735 659 823.509 659Z" fill="#405363" fill-rule="evenodd"/><path d="M833.512 659C833.47 659 833.427 658.995 833.385 658.985 833.111 658.914 832.946 658.636 833.016 658.365L852.367 583.446 915.006 410.337C915.102 410.071 915.398 409.936 915.661 410.029 915.927 410.124 916.065 410.416 915.97 410.681L853.345 583.745 834.008 658.617C833.949 658.848 833.741 659 833.512 659Z" fill="#405363" fill-rule="evenodd"/><path d="M828.383 715 763.616 715C761.271 715 759.256 713.315 758.819 710.988L751.087 669.853C750.516 666.814 752.822 664 755.884 664L836.115 664C839.177 664 841.484 666.814 840.913 669.853L833.181 710.988C832.743 713.315 830.729 715 828.383 715Z" fill="#009999" fill-rule="evenodd"/><path d="M831.499 714 761.5 714C760.672 714 760 714.714 760 715.597L760 718.403C760 719.286 760.672 720 761.5 720L831.499 720C832.328 720 833 719.286 833 718.403L833 715.597C833 714.714 832.328 714 831.499 714Z" fill="#405363" fill-rule="evenodd"/><path d="M838.5 658 754.501 658C753.671 658 753 658.714 753 659.597L753 662.403C753 663.286 753.671 664 754.501 664L838.5 664C839.329 664 840 663.286 840 662.403L840 659.597C840 658.715 839.329 658 838.5 658Z" fill="#405363" fill-rule="evenodd"/><path d="M838.5 658 754.501 658C753.671 658 753 658.714 753 659.597L753 662.403C753 663.286 753.671 664 754.501 664L838.5 664C839.329 664 840 663.286 840 662.403L840 659.597C840 658.715 839.329 658 838.5 658Z" fill="#405363" fill-rule="evenodd"/><path d="M855.509 581 737.489 581C736.667 581 736 581.595 736 582.33L736 584.669C736 585.404 736.667 586 737.489 586L855.51 586C856.333 586 857 585.404 857 584.669L857 582.33C857 581.595 856.333 581 855.509 581Z" fill="#405363" fill-rule="evenodd"/><path d="M780 678.585C780 682.679 776.643 686 772.501 686 768.357 686 765 682.68 765 678.585 765 674.49 772.501 663 772.501 663 772.501 663 780 674.49 780 678.585Z" fill="#405363" fill-rule="evenodd"/><path d="M804 678.585C804 682.679 800.642 686 796.5 686 792.358 686 789 682.68 789 678.585 789 674.49 796.5 663 796.5 663 796.5 663 804 674.49 804 678.585Z" fill="#405363" fill-rule="evenodd"/><path d="M828 678.585C828 682.679 824.642 686 820.5 686 816.358 686 813 682.68 813 678.585 813 674.49 820.5 663 820.5 663 820.5 663 828 674.49 828 678.585Z" fill="#405363" fill-rule="evenodd"/><path d="M903.5 527C933.599 527 958 502.599 958 472.5 958 442.4 933.599 418 903.5 418 873.4 418 849 442.4 849 472.5 849 502.599 873.4 527 903.5 527Z" fill="#1D425D" fill-rule="evenodd"/><path d="M903.5 516C927.525 516 947 496.524 947 472.5 947 448.475 927.525 429 903.5 429 879.475 429 860 448.475 860 472.5 860 496.524 879.475 516 903.5 516Z" fill="#50ABAA" fill-rule="evenodd"/><path d="M873.5 465.268 890.419 489.5 934.5 455.5" stroke="#FFFFFF" stroke-width="6.8274" stroke-miterlimit="8" fill="none" fill-rule="evenodd"/></g></svg>