<svg width="2717" height="362" xmlns="http://www.w3.org/2000/svg" xmlns:xlink="http://www.w3.org/1999/xlink" overflow="hidden"><defs><clipPath id="clip0"><rect x="-673" y="-1" width="2717" height="362"/></clipPath><clipPath id="clip1"><rect x="-672" y="0" width="2688" height="360"/></clipPath><clipPath id="clip2"><rect x="-672" y="0" width="2687" height="360"/></clipPath><clipPath id="clip3"><rect x="-672" y="0" width="2687" height="720"/></clipPath><clipPath id="clip4"><rect x="-672" y="1" width="2716" height="359"/></clipPath><clipPath id="clip5"><rect x="-672" y="1" width="2715" height="359"/></clipPath><clipPath id="clip6"><rect x="-672" y="1" width="2715" height="670"/></clipPath></defs><g clip-path="url(#clip0)" transform="translate(673 1)"><g clip-path="url(#clip1)"><g clip-path="url(#clip2)"><g clip-path="url(#clip3)"><path d="M626.537 288.569C380.124 343.706 100.639 239.243 0 114.915L0 720C345.087 402.423 792.798 536.211 973.521 651.079L973.521 0.338028C960.534 44.2582 872.951 233.432 626.537 288.569Z" fill="#E0E3E4" transform="matrix(2.76008 0 0 1 -672 0)"/></g></g></g><g clip-path="url(#clip4)"><g clip-path="url(#clip5)"><g clip-path="url(#clip6)"><path d="M480.183 508.89C237.608 508.89 58.9879 625.653 0 669.539L0 244.553C138.848 299.126 242.985 333.575 480.183 321.637 725.891 309.271 895.6 98.6861 983.513 0.340906L983.513 655.562C887.378 578.176 722.761 508.89 480.183 508.89Z" fill="#F5F8FA" transform="matrix(2.75956 0 0 1 -672 1)"/></g></g></g></g></svg>