<svg width="985" height="722" xmlns="http://www.w3.org/2000/svg" xmlns:xlink="http://www.w3.org/1999/xlink" overflow="hidden"><defs><clipPath id="clip0"><rect x="153" y="-1" width="985" height="722"/></clipPath><clipPath id="clip1"><rect x="153" y="0" width="974" height="720"/></clipPath><clipPath id="clip2"><rect x="153" y="0" width="974" height="720"/></clipPath><clipPath id="clip3"><rect x="153" y="0" width="974" height="720"/></clipPath><clipPath id="clip4"><rect x="153" y="1" width="984" height="670"/></clipPath><clipPath id="clip5"><rect x="153" y="1" width="984" height="671"/></clipPath><clipPath id="clip6"><rect x="153" y="1" width="984" height="671"/></clipPath></defs><g clip-path="url(#clip0)" transform="translate(-153 1)"><g clip-path="url(#clip1)"><g clip-path="url(#clip2)"><g clip-path="url(#clip3)"><path d="M626.537 288.569C380.124 343.706 100.639 239.243 0 114.915L0 720C345.087 402.423 792.798 536.211 973.521 651.079L973.521 0.338028C960.534 44.2582 872.951 233.432 626.537 288.569Z" fill="#E0E3E4" transform="matrix(1.00049 0 0 1 153 0)"/></g></g></g><g clip-path="url(#clip4)"><g clip-path="url(#clip5)"><g clip-path="url(#clip6)"><path d="M480.255 508.965C237.643 508.965 58.9966 625.746 0 669.638L0 244.589C138.869 299.17 243.021 333.624 480.255 321.685 725.998 309.317 895.733 98.7007 983.659 0.340956L983.659 655.659C887.509 578.262 722.868 508.965 480.255 508.965Z" fill="#F5F8FA" transform="matrix(1 0 0 1.00054 153 1)"/></g></g></g></g></svg>