<svg width="631" height="631" viewBox="0 0 631 631" fill="none" xmlns="http://www.w3.org/2000/svg">
<path d="M562.281 145.481C562.391 145.918 562.213 146.377 561.835 146.625L551.069 153.684C551.178 159.694 550.329 165.766 548.458 171.665L556.762 181.492C557.052 181.837 557.093 182.329 556.862 182.716L548.96 195.984C548.729 196.372 548.278 196.571 547.836 196.479L535.239 193.858C530.945 198.311 526.009 201.951 520.672 204.718L519.594 217.547C519.556 217.996 519.237 218.374 518.799 218.484L503.831 222.279C503.394 222.389 502.933 222.211 502.686 221.833L495.628 211.067C489.617 211.176 483.545 210.327 477.647 208.456L467.819 216.76C467.474 217.051 466.983 217.091 466.595 216.86L453.327 208.958C452.939 208.727 452.74 208.276 452.832 207.834L455.453 195.238C450.998 190.943 447.36 186.007 444.593 180.67L431.764 179.592C431.315 179.555 430.939 179.235 430.827 178.798L427.032 163.829C426.922 163.392 427.1 162.933 427.478 162.684L438.244 155.626C438.135 149.615 438.984 143.543 440.853 137.645L432.55 127.818C432.259 127.472 432.218 126.981 432.449 126.595L440.351 113.327C440.583 112.939 441.033 112.74 441.476 112.832L454.072 115.453C458.366 110.998 463.302 107.36 468.639 104.593L469.718 91.764C469.755 91.315 470.075 90.9374 470.512 90.8269L485.481 87.0324C485.918 86.9218 486.377 87.1004 486.625 87.478L493.684 98.2441C499.694 98.1352 505.766 98.9839 511.665 100.855L521.492 92.5515C521.835 92.2606 522.329 92.2198 522.715 92.4511L535.983 100.353C536.371 100.584 536.57 101.035 536.478 101.477L533.857 114.074C538.309 118.368 541.949 123.304 544.716 128.641L557.546 129.719C557.995 129.757 558.372 130.076 558.483 130.514L562.281 145.481Z" fill="#008080"/>
<path d="M494.658 169.625C494.658 169.625 494.668 169.625 494.672 169.625C498.67 169.622 502.427 168.06 505.252 165.23C508.078 162.4 509.63 158.64 509.627 154.641C509.624 150.642 508.062 146.884 505.232 144.059C499.39 138.227 489.892 138.237 484.06 144.079C481.235 146.909 479.683 150.67 479.686 154.668C479.689 158.667 481.251 162.426 484.081 165.251C486.909 168.071 490.665 169.625 494.658 169.625ZM494.658 142.2C497.98 142.2 501.104 143.492 503.456 145.839C505.81 148.19 507.11 151.316 507.111 154.643C507.115 157.97 505.822 161.099 503.472 163.453C501.121 165.807 497.995 167.106 494.668 167.108C494.665 167.108 494.66 167.108 494.66 167.108C491.333 167.108 488.21 165.815 485.858 163.468C483.504 161.118 482.205 157.992 482.203 154.667C482.2 151.34 483.492 148.21 485.843 145.856C488.193 143.502 491.319 142.203 494.646 142.201C494.65 142.2 494.655 142.2 494.658 142.2Z" fill="#BDD0FB"/>
<path d="M494.27 193.221C507.411 193.221 520.23 186.506 527.429 174.42C528.836 172.059 529.989 169.552 530.858 166.971L528.474 166.168C527.661 168.581 526.582 170.925 525.268 173.133C517.286 186.532 501.907 192.872 487.413 190.044C487.385 190.039 487.358 190.034 487.331 190.029C487.302 190.023 487.277 190.018 487.248 190.011C483.348 189.233 479.516 187.789 475.91 185.642C467.648 180.722 461.797 172.878 459.433 163.555C458.684 160.601 458.314 157.609 458.315 154.64C458.317 148.238 460.04 141.93 463.401 136.286C473.56 119.231 495.701 113.618 512.758 123.777C518.366 127.117 522.956 131.905 526.03 137.62L528.246 136.427C524.956 130.311 520.046 125.189 514.046 121.613C495.798 110.747 472.109 116.749 461.239 134.997C457.642 141.037 455.8 147.784 455.798 154.633C455.798 157.812 456.193 161.011 456.994 164.171C459.521 174.145 465.782 182.538 474.621 187.802C480.785 191.474 487.571 193.221 494.27 193.221Z" fill="#BDD0FB"/>
<path d="M227.196 407.922C227.346 407.922 227.495 407.876 227.625 407.779C227.938 407.542 228.001 407.097 227.762 406.784C227.187 406.024 226.591 405.265 225.988 404.53C225.74 404.226 225.293 404.183 224.988 404.43C224.684 404.678 224.64 405.126 224.888 405.43C225.478 406.151 226.063 406.896 226.628 407.643C226.767 407.823 226.982 407.922 227.196 407.922Z" fill="#91B3FA"/>
<path d="M94.3748 438.339C94.7065 438.339 95.0041 438.104 95.0705 437.768C95.4463 435.883 95.9004 433.99 96.4243 432.141C96.5314 431.764 96.3121 431.371 95.9345 431.264C95.5586 431.151 95.164 431.376 95.0568 431.754C94.5245 433.638 94.0602 435.568 93.6775 437.489C93.601 437.873 93.851 438.247 94.2354 438.324C94.2813 438.336 94.3289 438.339 94.3748 438.339ZM98.9007 423.712C99.1762 423.712 99.4399 423.551 99.5555 423.28C100.307 421.518 101.142 419.759 102.035 418.052C102.217 417.703 102.083 417.275 101.734 417.093C101.387 416.909 100.957 417.045 100.775 417.392C99.865 419.132 99.0146 420.926 98.2476 422.722C98.0928 423.083 98.2612 423.501 98.6218 423.654C98.7136 423.695 98.8088 423.712 98.9007 423.712ZM106.321 410.317C106.546 410.317 106.767 410.211 106.906 410.01C108.005 408.429 109.177 406.874 110.39 405.389C110.638 405.085 110.592 404.638 110.289 404.389C109.987 404.141 109.539 404.185 109.289 404.49C108.053 406.003 106.859 407.587 105.74 409.199C105.515 409.521 105.595 409.965 105.918 410.187C106.039 410.276 106.18 410.317 106.321 410.317ZM218.974 398.743C219.163 398.743 219.352 398.668 219.491 398.52C219.76 398.234 219.748 397.785 219.462 397.516C218.041 396.173 216.547 394.868 215.022 393.637C214.717 393.39 214.268 393.438 214.022 393.744C213.775 394.05 213.823 394.497 214.129 394.744C215.625 395.952 217.092 397.234 218.486 398.55C218.624 398.678 218.799 398.743 218.974 398.743ZM116.293 398.7C116.468 398.7 116.645 398.635 116.781 398.504C118.174 397.185 119.637 395.904 121.132 394.696C121.438 394.45 121.484 394.002 121.237 393.696C120.991 393.39 120.543 393.344 120.237 393.589C118.715 394.819 117.222 396.125 115.802 397.472C115.516 397.742 115.504 398.192 115.774 398.476C115.917 398.627 116.106 398.7 116.293 398.7ZM206.827 389.417C207.065 389.417 207.298 389.298 207.433 389.08C207.638 388.747 207.535 388.308 207.201 388.102C205.531 387.07 203.803 386.094 202.068 385.199C201.72 385.019 201.291 385.157 201.111 385.505C200.93 385.854 201.068 386.282 201.417 386.463C203.119 387.34 204.815 388.3 206.455 389.312C206.57 389.383 206.7 389.417 206.827 389.417ZM128.432 389.38C128.559 389.38 128.687 389.346 128.804 389.274C130.434 388.271 132.129 387.317 133.845 386.437C134.194 386.259 134.332 385.83 134.153 385.481C133.975 385.133 133.546 384.995 133.196 385.174C131.447 386.068 129.719 387.041 128.058 388.063C127.724 388.269 127.619 388.706 127.825 389.041C127.961 389.259 128.194 389.38 128.432 389.38ZM193.047 382.738C193.338 382.738 193.61 382.559 193.716 382.27C193.85 381.901 193.659 381.493 193.29 381.359C191.448 380.69 189.559 380.086 187.671 379.566C187.293 379.462 186.902 379.683 186.797 380.061C186.693 380.438 186.914 380.831 187.293 380.935C189.144 381.447 190.998 382.039 192.806 382.694C192.884 382.724 192.967 382.738 193.047 382.738ZM142.224 382.736C142.304 382.736 142.385 382.723 142.465 382.694C144.271 382.042 146.127 381.454 147.979 380.944C148.358 380.84 148.58 380.449 148.476 380.069C148.372 379.692 147.981 379.469 147.602 379.573C145.714 380.092 143.822 380.692 141.982 381.357C141.613 381.49 141.423 381.896 141.555 382.267C141.661 382.558 141.933 382.736 142.224 382.736ZM157.079 379.037C157.113 379.037 157.147 379.035 157.181 379.03C159.079 378.758 161.016 378.557 162.936 378.433C163.327 378.408 163.625 378.071 163.599 377.678C163.574 377.287 163.23 376.999 162.844 377.015C160.887 377.141 158.914 377.345 156.978 377.622C156.59 377.678 156.32 378.037 156.376 378.426C156.427 378.782 156.732 379.037 157.079 379.037ZM178.192 379.025C178.541 379.025 178.844 378.768 178.895 378.415C178.949 378.027 178.68 377.666 178.291 377.61C176.352 377.334 174.377 377.13 172.423 377.008C172.025 377.001 171.694 377.282 171.67 377.673C171.646 378.064 171.942 378.401 172.335 378.426C174.252 378.547 176.189 378.746 178.09 379.017C178.126 379.023 178.158 379.025 178.192 379.025Z" fill="#91B3FA"/>
<path d="M92.975 450.614C93.3577 450.614 93.6741 450.309 93.6843 449.925C93.7132 448.993 93.7591 448.047 93.8237 447.115C93.8509 446.724 93.555 446.384 93.1638 446.357C92.7743 446.348 92.4325 446.625 92.407 447.017C92.3423 447.967 92.293 448.93 92.2658 449.881C92.2539 450.272 92.5617 450.6 92.9546 450.612C92.9614 450.614 92.9682 450.614 92.975 450.614Z" fill="#91B3FA"/>
<path d="M113.995 504.94C114.174 504.94 114.353 504.873 114.49 504.739C114.771 504.465 114.778 504.014 114.506 503.734C113.851 503.059 113.205 502.368 112.584 501.677C112.322 501.387 111.873 501.363 111.58 501.625C111.288 501.887 111.264 502.337 111.528 502.628C112.16 503.331 112.818 504.036 113.487 504.724C113.625 504.868 113.81 504.94 113.995 504.94Z" fill="#91B3FA"/>
<path d="M167.545 527.632L168.188 527.628C168.581 527.625 168.896 527.304 168.892 526.911C168.889 526.521 168.571 526.207 168.181 526.207C168.18 526.207 168.176 526.207 168.175 526.207L167.545 526.21C165.867 526.21 164.164 526.152 162.484 526.037C162.091 526.028 161.752 526.305 161.727 526.696C161.7 527.088 161.996 527.428 162.387 527.455C164.099 527.572 165.834 527.632 167.545 527.632ZM177.493 526.967C177.526 526.967 177.556 526.965 177.589 526.96C179.497 526.703 181.421 526.372 183.305 525.97C183.689 525.889 183.934 525.511 183.853 525.127C183.771 524.742 183.395 524.501 183.009 524.579C181.159 524.974 179.271 525.3 177.4 525.552C177.01 525.605 176.738 525.962 176.789 526.351C176.837 526.708 177.143 526.967 177.493 526.967ZM153.18 526.234C153.514 526.234 153.81 525.999 153.876 525.661C153.952 525.276 153.701 524.902 153.316 524.826C151.459 524.46 149.597 524.018 147.777 523.511C147.399 523.404 147.008 523.626 146.901 524.004C146.795 524.382 147.017 524.775 147.394 524.88C149.248 525.397 151.148 525.848 153.041 526.22C153.088 526.23 153.134 526.234 153.18 526.234ZM192.151 523.479C192.227 523.479 192.307 523.467 192.384 523.439C194.207 522.807 196.025 522.096 197.787 521.327C198.146 521.171 198.311 520.75 198.155 520.392C197.998 520.031 197.58 519.866 197.219 520.024C195.491 520.778 193.707 521.475 191.918 522.097C191.547 522.227 191.352 522.632 191.479 523.002C191.581 523.295 191.857 523.479 192.151 523.479ZM138.766 521.837C139.043 521.837 139.307 521.674 139.421 521.402C139.572 521.04 139.402 520.625 139.041 520.471C137.307 519.744 135.57 518.934 133.881 518.065C133.533 517.885 133.104 518.024 132.924 518.373C132.745 518.721 132.883 519.15 133.232 519.33C134.953 520.215 136.722 521.04 138.492 521.783C138.581 521.819 138.674 521.837 138.766 521.837ZM205.814 517.131C205.938 517.131 206.062 517.099 206.176 517.031C207.831 516.048 209.469 514.986 211.044 513.878C211.365 513.651 211.441 513.209 211.215 512.888C210.989 512.566 210.547 512.49 210.225 512.716C208.679 513.804 207.072 514.845 205.45 515.81C205.111 516.01 205.001 516.446 205.201 516.782C205.334 517.007 205.57 517.131 205.814 517.131ZM125.53 514.633C125.758 514.633 125.981 514.524 126.119 514.323C126.34 513.998 126.256 513.556 125.932 513.335C124.369 512.27 122.828 511.131 121.351 509.95C121.044 509.705 120.598 509.755 120.353 510.063C120.108 510.369 120.157 510.816 120.464 511.061C121.967 512.263 123.539 513.423 125.131 514.508C125.253 514.594 125.392 514.633 125.53 514.633ZM217.915 508.163C218.085 508.163 218.257 508.102 218.393 507.977C219.813 506.683 221.202 505.312 222.524 503.904C222.793 503.618 222.779 503.169 222.492 502.9C222.206 502.632 221.755 502.644 221.486 502.931C220.189 504.312 218.825 505.657 217.433 506.928C217.143 507.192 217.122 507.641 217.387 507.931C217.529 508.085 217.721 508.163 217.915 508.163ZM227.956 496.936C228.176 496.936 228.392 496.834 228.531 496.643C229.422 495.419 230.29 494.146 231.111 492.864C231.332 492.519 231.55 492.172 231.764 491.825C231.97 491.49 231.867 491.053 231.533 490.847C231.2 490.639 230.761 490.745 230.555 491.078C230.344 491.42 230.132 491.76 229.914 492.099C229.108 493.359 228.256 494.606 227.381 495.808C227.15 496.124 227.222 496.57 227.538 496.8C227.666 496.89 227.812 496.936 227.956 496.936ZM235.564 483.928C235.834 483.928 236.091 483.773 236.21 483.513C237.011 481.761 237.755 479.955 238.418 478.145C238.552 477.776 238.364 477.368 237.996 477.234C237.629 477.098 237.221 477.288 237.085 477.655C236.433 479.431 235.705 481.202 234.918 482.921C234.754 483.278 234.913 483.7 235.268 483.863C235.365 483.908 235.465 483.928 235.564 483.928ZM240.41 469.66C240.733 469.66 241.027 469.437 241.102 469.109C241.532 467.233 241.894 465.313 242.18 463.406C242.238 463.018 241.971 462.656 241.581 462.598C241.199 462.54 240.831 462.807 240.774 463.197C240.495 465.068 240.139 466.951 239.717 468.793C239.629 469.175 239.869 469.556 240.251 469.645C240.304 469.655 240.357 469.66 240.41 469.66Z" fill="#91B3FA"/>
<path d="M242.272 454.679C242.656 454.679 242.974 454.371 242.981 453.985C243.002 453.038 243.005 452.073 242.991 451.118C242.985 450.725 242.66 450.427 242.27 450.418C241.877 450.425 241.564 450.748 241.571 451.14C241.587 452.078 241.583 453.026 241.563 453.954C241.554 454.347 241.865 454.672 242.257 454.681C242.262 454.679 242.267 454.679 242.272 454.679Z" fill="#91B3FA"/>
<path d="M224.402 444.164C224.495 444.535 224.344 444.925 224.024 445.134L214.903 451.114C214.995 456.206 214.277 461.351 212.692 466.348L219.726 474.673C219.973 474.966 220.007 475.383 219.811 475.711L213.117 486.952C212.921 487.28 212.539 487.448 212.164 487.37L201.493 485.15C197.854 488.923 193.673 492.006 189.152 494.35L188.239 505.218C188.207 505.599 187.936 505.917 187.566 506.012L174.884 509.227C174.514 509.321 174.124 509.169 173.915 508.849L167.935 499.728C162.843 499.82 157.698 499.102 152.701 497.517L144.375 504.551C144.083 504.798 143.668 504.832 143.338 504.637L132.097 497.942C131.769 497.747 131.6 497.364 131.679 496.99L133.898 486.319C130.124 482.681 127.042 478.5 124.699 473.978L113.829 473.064C113.448 473.032 113.13 472.762 113.034 472.391L109.82 459.71C109.726 459.339 109.878 458.949 110.197 458.74L119.319 452.76C119.227 447.668 119.945 442.523 121.53 437.526L114.495 429.201C114.249 428.908 114.215 428.493 114.41 428.163L121.105 416.922C121.3 416.594 121.683 416.426 122.057 416.504L132.728 418.724C136.366 414.949 140.548 411.868 145.069 409.524L145.982 398.656C146.015 398.275 146.285 397.955 146.656 397.861L159.337 394.647C159.708 394.553 160.097 394.705 160.307 395.025L166.287 404.146C171.379 404.054 176.524 404.772 181.521 406.357L189.846 399.323C190.137 399.076 190.554 399.042 190.884 399.237L202.124 405.932C202.453 406.127 202.621 406.51 202.543 406.884L200.323 417.555C204.096 421.193 207.179 425.375 209.523 429.896L220.391 430.81C220.772 430.842 221.09 431.112 221.185 431.483L224.402 444.164Z" fill="#64AFAD"/>
<path d="M167.112 464.618C167.115 464.618 167.12 464.618 167.12 464.618C170.512 464.615 173.695 463.293 176.089 460.895C178.482 458.497 179.798 455.312 179.795 451.924C179.791 448.536 178.47 445.352 176.071 442.959C171.122 438.018 163.076 438.026 158.135 442.976C155.742 445.374 154.425 448.559 154.429 451.947C154.432 455.335 155.754 458.519 158.152 460.912C160.548 463.302 163.729 464.618 167.112 464.618ZM167.113 441.385C169.928 441.385 172.575 442.481 174.566 444.469C176.561 446.461 177.662 449.109 177.663 451.927C177.667 454.745 176.572 457.397 174.58 459.39C172.588 461.385 169.94 462.484 167.122 462.487C167.118 462.487 167.115 462.487 167.112 462.487C164.297 462.487 161.65 461.392 159.659 459.404C157.664 457.412 156.563 454.764 156.561 451.946C156.558 449.127 157.653 446.476 159.645 444.483C161.637 442.488 164.285 441.389 167.103 441.385H167.113Z" fill="#BDD0FB"/>
<path d="M166.783 484.609C177.915 484.609 188.776 478.92 194.876 468.681C196.066 466.681 197.044 464.557 197.781 462.369L195.76 461.689C195.071 463.734 194.158 465.718 193.044 467.589C186.281 478.942 173.253 484.312 160.973 481.915C160.95 481.912 160.927 481.907 160.905 481.902C160.882 481.896 160.859 481.893 160.836 481.888C157.533 481.228 154.286 480.005 151.229 478.185C144.229 474.017 139.273 467.372 137.271 459.473C136.637 456.969 136.324 454.435 136.324 451.92C136.325 446.496 137.785 441.152 140.632 436.371C149.24 421.921 167.998 417.165 182.448 425.773C187.2 428.603 191.088 432.66 193.692 437.502L195.569 436.492C192.782 431.309 188.622 426.971 183.54 423.941C168.079 414.735 148.01 419.82 138.802 435.281C135.754 440.397 134.192 446.113 134.192 451.916C134.192 454.609 134.527 457.32 135.206 459.997C137.347 468.446 142.652 475.558 150.141 480.017C155.359 483.13 161.108 484.609 166.783 484.609Z" fill="#BDD0FB"/>
<path d="M364.026 418.296L372.401 493.401H275.244L287.9 418.296H364.026Z" fill="url(#paint0_linear)"/>
<path d="M567.825 196.036V402.642C567.825 419.638 554.282 433.537 537.291 433.974C461.828 435.92 197.896 440.638 126.061 439.58C113.714 439.398 103.712 429.518 103.357 417.176C101.972 369.179 99.7219 253.76 108.047 200.176C109.801 188.891 119.325 180.454 130.74 180.09C193.967 178.067 473.752 171.643 545.555 173.257C557.937 173.535 567.825 183.651 567.825 196.036Z" fill="url(#paint1_linear)"/>
<path d="M554.862 195.031V391.321C554.862 401.244 546.897 409.329 536.974 409.479L136.397 414.428C126.559 414.575 118.496 406.661 118.46 396.823L117.79 202.287C117.764 195.252 123.368 189.488 130.4 189.318L540.517 181.032C548.382 180.839 554.862 187.163 554.862 195.031Z" fill="url(#paint2_linear)"/>
<path d="M115.443 422.491H115.453L554.87 415.004C555.188 414.998 555.44 414.737 555.435 414.42C555.43 414.104 555.156 413.869 554.852 413.855L115.434 421.342C115.116 421.348 114.864 421.61 114.87 421.926C114.875 422.241 115.13 422.491 115.443 422.491Z" fill="#91B3FA"/>
<path d="M330.818 431.634C333.655 431.634 335.964 429.326 335.964 426.488C335.964 423.651 333.656 421.341 330.818 421.341C327.979 421.341 325.671 423.649 325.671 426.488C325.671 429.326 327.981 431.634 330.818 431.634ZM330.818 422.491C333.022 422.491 334.816 424.285 334.816 426.489C334.816 428.693 333.022 430.488 330.818 430.488C328.613 430.488 326.819 428.693 326.819 426.489C326.819 424.283 328.613 422.491 330.818 422.491Z" fill="#91B3FA"/>
<path d="M254.317 508.767H396.511C400.374 508.767 403.275 506.017 402.529 503.063L400.704 495.846C400.154 493.676 397.768 492.082 394.931 491.994L257.851 487.716C254.888 487.624 252.266 489.196 251.62 491.451L248.33 502.945C247.476 505.932 250.392 508.767 254.317 508.767Z" fill="url(#paint3_linear)"/>
<path d="M319.965 494.06C320.278 494.06 320.534 493.809 320.538 493.494C320.543 493.178 320.29 492.916 319.972 492.912L314.097 492.826H314.088C313.776 492.826 313.519 493.077 313.515 493.392C313.51 493.708 313.764 493.97 314.082 493.974L319.956 494.06H319.965Z" fill="#91B3FA"/>
<path d="M397.263 504.9C397.292 504.9 397.324 504.898 397.353 504.893C397.666 504.844 397.879 504.55 397.829 504.237L396.991 498.988C396.532 496.115 394.088 493.998 391.178 493.955L328.874 493.044C328.547 493.028 328.295 493.292 328.292 493.61C328.287 493.926 328.54 494.188 328.858 494.192L391.162 495.103C393.513 495.137 395.487 496.848 395.858 499.168L396.697 504.417C396.743 504.698 396.986 504.9 397.263 504.9Z" fill="#91B3FA"/>
<path opacity="0.03" d="M147.373 198.371L530.186 193.659C536.219 193.584 541.124 198.519 541.211 204.692L543.672 382.969C543.757 389.061 539.051 394.104 533.1 394.315L148.115 407.937C142.759 408.125 137.742 406.081 133.886 402.273C130.032 398.463 128.039 393.216 128.039 387.733V218.586C128.037 207.517 136.555 198.506 147.373 198.371Z" fill="url(#paint4_linear)"/>
<path d="M510.636 210H340.631C335.996 210 332.261 214.681 332.346 220.386L334.737 382.747C334.85 390.389 339.955 396.483 346.163 396.386L510.818 393.843C515.355 393.773 519.003 389.223 519 383.636L518.922 220.193C518.92 214.562 515.21 210 510.636 210Z" fill="#7D97F4"/>
<path d="M510.352 211.135H340.618C335.991 211.135 332.261 215.816 332.346 221.521L334.734 383.882C334.847 391.524 339.943 397.618 346.141 397.522L510.534 394.978C515.064 394.908 518.706 390.358 518.704 384.771L518.624 221.331C518.623 215.699 514.919 211.135 510.352 211.135Z" fill="#88BCBB"/>
<path d="M395.658 233.556C395.674 233.556 395.692 233.556 395.708 233.556L503.687 232.356C506.629 232.324 509.021 230.005 509.021 227.189V222.967C509.021 221.857 508.57 220.815 507.749 220.034C506.936 219.261 505.861 218.836 504.717 218.836H394.927C393.764 218.836 392.654 219.314 391.88 220.148C391.137 220.947 390.774 221.975 390.857 223.044L391.375 229.743C391.542 231.889 393.419 233.556 395.658 233.556ZM504.717 220.328C505.473 220.328 506.182 220.606 506.714 221.112C507.237 221.61 507.524 222.267 507.524 222.965V227.187C507.524 229.189 505.795 230.838 503.67 230.862L395.692 232.062C395.68 232.062 395.67 232.062 395.658 232.062C394.197 232.062 392.975 230.998 392.868 229.626L392.35 222.927C392.3 222.279 392.524 221.651 392.978 221.16C393.469 220.631 394.178 220.328 394.925 220.328H504.717Z" fill="white"/>
<path opacity="0.4" d="M124.796 363.687L229.544 362.808C232.014 362.787 234 361.343 234 359.57V356.479C234 355.11 232.457 354 230.551 354H124.045C122.167 354 120.684 355.147 120.821 356.492L121.325 361.399C121.459 362.7 122.979 363.702 124.796 363.687Z" fill="white"/>
<path opacity="0.59" d="M361.111 249.414H508.233C509.209 249.414 510 248.544 510 247.471V242.276C510 241.197 509.199 240.324 508.216 240.333L361.095 241.762C360.125 241.771 359.342 242.638 359.342 243.705V247.471C359.342 248.544 360.134 249.414 361.111 249.414Z" fill="white"/>
<path opacity="0.4" d="M157.595 340.792L312.531 338.732C315.286 338.695 317.5 336.459 317.5 333.711V312.5C317.5 309.675 315.187 307.393 312.353 307.424L157.869 309.071C154.822 309.104 152.37 311.575 152.37 314.613V335.649C152.369 338.516 154.72 340.83 157.595 340.792Z" fill="white"/>
<path opacity="0.59" d="M374.483 300.587H508.452C509.341 300.587 510.062 299.717 510.062 298.644V293.448C510.062 292.37 509.332 291.497 508.438 291.505L374.469 292.935C373.586 292.944 372.874 293.811 372.874 294.878V298.644C372.873 299.717 373.593 300.587 374.483 300.587Z" fill="white"/>
<path opacity="0.4" d="M349.528 339.139L504.464 336.883C507.219 336.843 509.433 334.393 509.433 331.385V308.16C509.433 305.067 507.12 302.568 504.287 302.602L349.803 304.406C346.756 304.441 344.304 307.148 344.304 310.475V333.508C344.301 336.649 346.653 339.181 349.528 339.139Z" fill="white"/>
<path opacity="0.59" d="M345.559 355.804H507.798C508.873 355.804 509.747 354.933 509.747 353.861V348.665C509.747 347.586 508.863 346.713 507.78 346.722L345.541 348.151C344.472 348.16 343.61 349.027 343.61 350.094V353.861C343.61 354.933 344.483 355.804 345.559 355.804Z" fill="white"/>
<path opacity="0.4" d="M349.213 389.568L504.148 387.607C506.904 387.571 509.118 385.443 509.118 382.83V362.648C509.118 359.96 506.805 357.788 503.971 357.818L349.487 359.385C346.44 359.416 343.988 361.767 343.988 364.659V384.675C343.988 387.403 346.339 389.603 349.213 389.568Z" fill="white"/>
<path d="M389.428 172.847C377.078 133.133 340.123 112.446 314.651 113.228L307.067 126.303C331.041 135.969 347.501 144.841 355.491 173.862C355.924 175.436 357.128 176.46 358.534 176.435L387.62 175.914C388.912 175.893 389.871 174.273 389.428 172.847Z" fill="#1D3151"/>
<path d="M324.408 94.1849L287.31 106.029C284.764 106.841 283.874 110.766 285.804 112.673L311.467 138.024C312.308 138.717 313.528 138.184 313.902 136.961L326.382 96.1433C326.841 94.6397 325.568 93.3742 324.408 94.1849Z" fill="#202D4F"/>
<path d="M219.143 25H27.3492C22.1192 25 17.9063 30.3371 18.0016 36.8427L20.6991 221.984C20.8266 230.697 26.5856 237.647 38.3739 237.538L216.925 234.751C223.129 234.654 228.327 229.793 228.569 223.593C228.577 223.396 228.58 223.199 228.58 223L228.492 36.6267C228.489 30.2045 224.303 25 219.143 25Z" fill="#008080"/>
<path opacity="0.42" d="M214.913 30.0142H30.7458C25.725 30.0142 21.6788 35.086 21.7706 41.2667L24.3609 217.176C24.4834 225.456 30.0127 232.058 36.7377 231.955L215.11 229.199C220.025 229.123 223.978 224.194 223.975 218.141L223.89 41.0592C223.886 34.9584 219.869 30.0142 214.913 30.0142Z" fill="#008080"/>
<path d="M39.7907 65.5864H208.414C210.479 65.5864 212.152 63.9128 212.152 61.8481V52.7522C212.152 50.5853 210.397 48.8301 208.23 48.8301H40.4523C38.3382 48.8301 36.6255 50.5428 36.6255 52.6569V62.4229C36.6272 64.1697 38.0439 65.5864 39.7907 65.5864Z" fill="white"/>
<path opacity="0.27" d="M50.8374 60.4871H115.169C116.23 60.8851 117.089 59.9343 117.089 58.7591V55.6075C117.089 54.4339 116.23 53.4814 115.169 53.4814H50.8374C49.7761 53.4814 48.9172 54.4339 48.9172 55.6075V58.7591C48.9172 59.9343 49.7778 60.8868 50.8374 60.4871Z" fill="white"/>
<path d="M85.9966 148.861C85.9966 153.273 89.5683 156.852 93.9802 156.86L206.016 157.092C208.945 157.092 211.317 154.663 211.317 151.668V92.148C211.317 89.1205 208.894 86.6782 205.933 86.7258L91.2164 88.5507C88.3199 88.5967 85.9966 91.0118 85.9966 93.9729V148.861Z" fill="#9CAFAE"/>
<path d="M100.339 222.13L148.275 221.732C149.894 221.719 151.197 220.396 151.184 218.775L150.784 170.764C150.77 169.174 149.493 167.883 147.903 167.856L100.566 168.754C98.5604 168.791 96.9599 170.438 96.9769 172.443L97.38 219.222C97.3953 220.841 98.7185 222.144 100.339 222.13Z" fill="#F9F9F9"/>
<path d="M247.363 292.275L295.298 291.877C296.917 291.863 298.22 290.54 298.207 288.919L297.807 240.908C297.793 239.318 296.516 238.027 294.926 238L247.589 238.898C245.584 238.935 243.983 240.582 244 242.587L244.403 289.366C244.419 290.985 245.743 292.288 247.363 292.275Z" fill="#F9F9F9"/>
<path d="M39.988 223.265L87.9236 222.867C89.5428 222.853 90.8457 221.53 90.832 219.909L90.4323 171.899C90.4187 170.308 89.1414 169.017 87.5512 168.99L40.2142 169.888C38.2089 169.926 36.6085 171.572 36.6255 173.577L37.0285 220.356C37.0438 221.977 38.3671 223.278 39.988 223.265Z" fill="white"/>
<path d="M40.6563 159.769H75.3155C77.5419 159.769 79.3464 157.952 79.3464 155.712V92.3859C79.3464 90.5031 77.8837 88.9741 76.0724 88.9639L40.4828 88.7632C38.3279 88.8584 36.6288 90.6443 36.6288 92.8162V155.71C36.6271 157.952 38.4316 159.769 40.6563 159.769Z" fill="white"/>
<path d="M171.899 45.2172C175.007 45.2172 177.536 42.6882 177.536 39.5808C177.536 36.4734 175.007 33.9443 171.899 33.9443C168.792 33.9443 166.263 36.4717 166.263 39.5808C166.265 42.6882 168.792 45.2172 171.899 45.2172ZM171.899 35.0924C174.374 35.0924 176.388 37.1061 176.388 39.5808C176.388 42.0555 174.374 44.0692 171.899 44.0692C169.425 44.0692 167.411 42.0555 167.411 39.5808C167.413 37.1061 169.425 35.0924 171.899 35.0924Z" fill="white"/>
<path d="M189.421 45.6274C192.528 45.6274 195.058 43.1 195.058 39.991C195.058 36.8836 192.528 34.3545 189.421 34.3545C186.314 34.3545 183.785 36.8819 183.785 39.991C183.785 43.0983 186.314 45.6274 189.421 45.6274ZM189.421 35.5025C191.896 35.5025 193.91 37.5163 193.91 39.991C193.91 42.4656 191.896 44.4794 189.421 44.4794C186.946 44.4794 184.933 42.4656 184.933 39.991C184.933 37.5163 186.946 35.5025 189.421 35.5025Z" fill="white"/>
<path d="M206.256 45.6274C209.363 45.6274 211.892 43.1 211.892 39.991C211.892 36.8836 209.363 34.3545 206.256 34.3545C203.148 34.3545 200.619 36.8819 200.619 39.991C200.619 43.0983 203.148 45.6274 206.256 45.6274ZM206.256 35.5025C208.73 35.5025 210.744 37.5163 210.744 39.991C210.744 42.4656 208.73 44.4794 206.256 44.4794C203.781 44.4794 201.767 42.4656 201.767 39.991C201.767 37.5163 203.781 35.5025 206.256 35.5025Z" fill="white"/>
<path d="M146.052 133.694C153.508 133.694 159.565 127.639 159.565 120.196C159.565 112.74 153.51 106.683 146.067 106.683C138.611 106.683 132.554 112.738 132.554 120.181V120.194C132.553 127.639 138.609 133.694 146.052 133.694ZM146.052 107.481C153.07 107.481 158.767 113.178 158.767 120.181C158.767 127.198 153.07 132.896 146.067 132.896C139.05 132.896 133.352 127.198 133.352 120.196V120.182C133.35 113.178 139.048 107.481 146.052 107.481Z" fill="white"/>
<path d="M96.6822 535.86H102.331L102.331 474.77H96.6822V535.86Z" fill="#91B3FA"/>
<path d="M74.7668 537.037H124.243V533.684C124.243 533.505 124.099 533.36 123.92 533.36H75.1155C74.9233 533.36 74.7668 533.517 74.7668 533.709V537.037Z" fill="#91B3FA"/>
<path d="M65.4106 472.516C65.4106 476.067 68.3156 478.972 71.8669 478.972H125.065C128.616 478.972 131.521 476.067 131.521 472.516V466.678C131.521 463.127 128.616 460.222 125.065 460.222H71.8669C68.3156 460.222 65.4106 463.127 65.4106 466.678V472.516Z" fill="#91B3FA"/>
<path d="M130.968 525.037C130.968 525.037 147.099 536.663 144.298 544.475C144.298 544.475 126.648 536.861 124.515 530.862C122.383 524.863 124.876 522.215 124.876 522.215L130.968 525.037Z" fill="url(#paint5_linear)"/>
<path d="M128.545 515.292L125.907 522.917C125.509 524.069 125.907 525.378 126.936 526.028C127.451 526.353 128.155 526.656 129.118 526.873C130.477 527.181 131.88 526.553 132.533 525.324L135.688 519.383L128.545 515.292Z" fill="url(#paint6_linear)"/>
<path d="M102.876 446.66C102.876 446.66 136.008 452.402 150.22 465.53C164.432 478.659 137.175 520.539 137.175 520.539C137.175 520.539 132.708 520.512 127.296 515.872C127.296 515.872 143.457 484.375 129.529 475.189C113.87 464.862 95.8245 462.537 95.8245 462.537L102.555 447.67L102.876 446.66Z" fill="url(#paint7_linear)"/>
<path d="M141.496 540.155C137.948 538.512 127.903 531.483 126.211 531.173C124.517 530.864 121.582 532.852 121.582 532.852C121.582 532.852 120.867 534.136 121.631 536.378C123.988 539.23 129.223 544.669 136.26 546.695C141.437 548.185 145.056 546.795 147.311 545.169C146.072 543.28 143.859 541.249 141.496 540.155Z" fill="url(#paint8_linear)"/>
<path d="M136.26 546.695C129.222 544.669 123.988 539.23 121.631 536.377C122.148 537.891 123.338 539.842 125.881 542.128C132.191 547.798 144.241 549.843 146.806 549.448C148.862 549.132 148.669 547.235 147.311 545.167C145.056 546.795 141.435 548.185 136.26 546.695Z" fill="url(#paint9_linear)"/>
<path d="M118.571 527.889C118.61 528.867 120.609 532.219 121.777 534.1C122.332 534.995 123.304 535.541 124.356 535.543C125.022 535.544 125.789 535.486 126.487 535.286C127.533 534.986 128.12 533.872 127.813 532.828L125.531 525.037L118.571 527.889Z" fill="url(#paint10_linear)"/>
<path d="M70.9842 436.715C70.9842 436.715 63.6265 456.39 70.9842 462.374C78.3419 468.357 95.8959 475.092 99.8163 487.01C103.737 498.927 110.392 522.087 119.297 530.29C119.297 530.29 125.555 529.685 127.895 527.192C127.895 527.192 122.823 492.616 119.478 483.744C116.581 476.062 112.314 464.973 104.135 458.775C101.793 457.001 102.201 454.189 103.286 451.46L105.262 446.488L70.9842 436.715Z" fill="url(#paint11_linear)"/>
<path d="M147.725 421.294C135.387 422.038 139.231 402.329 139.454 401.544L120.729 414.77C120.729 414.77 121.721 425.31 137.289 430.839C141.228 432.237 144.827 432.3 148.01 431.616C146.653 427.659 146.929 424.107 147.725 421.294Z" fill="url(#paint12_linear)"/>
<path d="M171.58 415.362C166.983 412.164 161.775 415.362 161.775 415.362C155.628 419.382 151.08 421.092 147.725 421.294C146.929 424.105 146.653 427.658 148.01 431.616C154.897 430.137 159.824 425.151 161.964 422.595C162.734 421.675 164.1 421.515 165.042 422.258C166 423.014 166.929 424.049 166.76 425.138C166.428 427.286 168.92 427.97 169.109 427.191C169.298 426.412 168.257 421.792 168.257 421.792C168.257 421.792 173.244 426.806 175.189 428.733C177.135 430.66 179.583 428.733 179.583 428.733C179.583 428.733 176.178 418.559 171.58 415.362Z" fill="url(#paint13_linear)"/>
<path d="M90.1965 371.105C90.1965 371.105 108.145 363.919 141.549 391.496C141.549 391.496 144.338 397.272 141.296 402.412C138.251 407.552 109.251 432.6 105.264 446.488C105.264 446.488 87.9855 452.103 70.1185 438.789C70.1168 438.791 71.6934 400.133 90.1965 371.105Z" fill="url(#paint14_linear)"/>
<path d="M125.679 364.691L116.843 375.403C115.966 376.466 115.773 377.945 116.379 379.183C117.605 381.685 120.515 385.327 126.968 384.823C128.888 384.674 130.587 383.515 131.426 381.782L137.603 369.011L125.679 364.691Z" fill="url(#paint15_linear)"/>
<path d="M76.3009 416.98C74.2174 408.495 95.3228 389.575 95.3228 389.575L90.1965 371.104C90.1965 371.104 44.6233 401.444 56.2365 425.84C57.9016 429.337 60.1126 431.788 62.6757 433.426C66.3478 423.549 72.1952 419.018 76.3009 416.98Z" fill="url(#paint16_linear)"/>
<path d="M108.268 416.249C108.268 416.249 83.2453 425.964 77.136 418.658C76.721 418.163 76.4523 417.598 76.3009 416.981C72.1951 419.02 66.3478 423.549 62.6774 433.427C75.8383 441.836 98.3332 428.749 104.415 424.891C105.415 424.257 106.616 424.034 107.776 424.274C110.121 424.76 114.174 425.476 116.36 425.139C119.558 424.646 124.151 435.926 129.334 432.448C129.335 432.446 124.896 412.839 108.268 416.249Z" fill="url(#paint17_linear)"/>
<path d="M147.017 355.12C147.017 355.12 145.719 366.683 143.197 371.69C140.673 376.697 139.908 380.449 133.734 378.195C127.56 375.942 124.444 370.426 124.665 364.119C124.665 364.119 124.941 354.362 127.597 351.829C130.252 349.299 147.017 355.12 147.017 355.12Z" fill="url(#paint18_linear)"/>
<path d="M128.582 361.749L129.291 362.157C129.291 362.157 129.82 354.48 132.994 354.905C136.168 355.33 147.534 359.111 151.807 356.765C155.926 354.503 156.627 348.923 154.526 346.04C154.393 345.858 154.135 345.821 153.943 345.941L153.455 346.249C153.12 346.46 152.7 346.157 152.793 345.773C152.883 345.409 152.501 345.098 152.171 345.275C150.878 345.967 148.048 346.675 142.651 344.766C134.992 342.059 128.803 342.225 125.937 346.945C125.755 347.244 125.335 347.224 125.167 346.918C124.835 346.312 124.102 345.695 122.48 345.986C119.658 346.489 118.049 351.083 120.253 356.893C120.359 357.168 120.178 357.478 119.884 357.493C118.845 357.549 117.046 358.072 119.066 361.312C121.133 364.627 122.998 365.468 123.764 365.681C123.969 365.739 124.184 365.644 124.279 365.453L126.458 361.062C126.57 360.835 126.851 360.75 127.072 360.876L128.582 361.749Z" fill="url(#paint19_linear)"/>
<path d="M128.247 362.736C128.247 362.736 130.111 355.946 126.51 356.079C122.91 356.21 124.075 363.486 126.077 364.933L128.247 362.736Z" fill="url(#paint20_linear)"/>
<path d="M121.087 435.407C121.127 435.409 121.167 435.411 121.207 435.411L173.71 435.353C175.007 435.351 176.058 434.299 176.057 433.001C176.055 431.703 174.999 430.63 173.705 430.654L121.202 430.712C119.905 430.713 118.853 431.766 118.855 433.064C118.857 434.321 119.845 435.346 121.087 435.407Z" fill="url(#paint21_linear)"/>
<path d="M220.905 387.739H177.183C173.958 387.739 171.021 389.599 169.645 392.518L149.431 435.38H203.768C205.846 435.38 207.714 434.11 208.478 432.177L224.152 392.516C225.059 390.224 223.37 387.739 220.905 387.739Z" fill="#143A56"/>
<path d="M190.102 409.715C189.155 412.659 189.854 415.518 191.665 416.1C193.476 416.683 195.713 414.768 196.66 411.825C197.608 408.881 196.909 406.022 195.097 405.441C193.286 404.857 191.049 406.772 190.102 409.715Z" fill="url(#paint22_linear)"/>
<path d="M213.818 548.013C214.109 548.013 214.405 547.957 214.689 547.838C215.808 547.372 216.325 546.115 215.844 545.031L169.573 440.896C169.092 439.812 167.796 439.312 166.675 439.778C165.556 440.244 165.039 441.501 165.52 442.585L211.791 546.72C212.15 547.53 212.963 548.013 213.818 548.013Z" fill="#7D97F4"/>
<path d="M161.692 548.013C162.547 548.013 163.36 547.528 163.719 546.72L209.99 442.585C210.471 441.501 209.954 440.244 208.835 439.778C207.716 439.312 206.418 439.812 205.937 440.896L159.666 545.031C159.185 546.115 159.702 547.372 160.821 547.838C161.105 547.957 161.401 548.013 161.692 548.013Z" fill="#7D97F4"/>
<path d="M70.5896 548.013C70.8804 548.013 71.1764 547.957 71.4604 547.838C72.5795 547.372 73.0966 546.115 72.6153 545.031L26.3448 440.896C25.8634 439.812 24.5674 439.312 23.4466 439.778C22.3274 440.244 21.8104 441.501 22.2917 442.585L68.5622 546.72C68.9211 547.53 69.7358 548.013 70.5896 548.013Z" fill="#7D97F4"/>
<path d="M18.4649 548.013C19.3204 548.013 20.1334 547.528 20.4923 546.72L66.7628 442.585C67.2441 441.501 66.7271 440.244 65.6079 439.778C64.4888 439.312 63.1911 439.812 62.7097 440.896L16.4392 545.033C15.9579 546.116 16.475 547.373 17.5941 547.839C17.8781 547.957 18.1741 548.013 18.4649 548.013Z" fill="#7D97F4"/>
<path d="M13.0377 437.681C12.9203 436.998 13.0802 436.292 13.4765 435.756C13.8728 435.219 14.4612 434.909 15.082 434.909H225.579C226.397 434.909 227.158 435.375 227.598 436.146C228.039 436.916 228.098 437.886 227.755 438.716L225.474 444.243C224.952 445.509 223.819 446.32 222.574 446.32H16.526C15.3678 446.32 14.3711 445.4 14.1517 444.126L13.0377 437.681Z" fill="#7D97F4"/>
<path d="M565.264 96.4895C565.441 96.4895 565.618 96.4351 565.769 96.3194C566.138 96.0405 566.211 95.5149 565.933 95.1441C565.254 94.2478 564.55 93.3515 563.839 92.4841C563.546 92.1252 563.017 92.0742 562.658 92.365C562.3 92.6576 562.247 93.1865 562.539 93.5454C563.235 94.3975 563.927 95.2768 564.592 96.1561C564.761 96.3755 565.011 96.4895 565.264 96.4895Z" fill="#91B3FA"/>
<path d="M408.49 132.395C408.882 132.395 409.232 132.12 409.312 131.72C409.756 129.495 410.292 127.26 410.909 125.08C411.035 124.633 410.776 124.17 410.331 124.044C409.887 123.911 409.421 124.177 409.295 124.622C408.666 126.847 408.118 129.124 407.666 131.392C407.575 131.846 407.87 132.288 408.325 132.378C408.382 132.39 408.436 132.395 408.49 132.395ZM413.833 115.128C414.159 115.128 414.469 114.938 414.605 114.618C415.493 112.538 416.477 110.461 417.532 108.446C417.746 108.034 417.588 107.529 417.176 107.313C416.767 107.097 416.26 107.257 416.044 107.667C414.971 109.722 413.965 111.837 413.061 113.958C412.879 114.384 413.078 114.877 413.503 115.059C413.612 115.108 413.724 115.128 413.833 115.128ZM422.59 99.3178C422.855 99.3178 423.117 99.1919 423.281 98.9572C424.577 97.0897 425.959 95.2562 427.392 93.5027C427.684 93.1438 427.631 92.6149 427.272 92.3223C426.915 92.0298 426.386 92.0808 426.092 92.4414C424.633 94.2272 423.225 96.0981 421.903 97.9996C421.639 98.3789 421.733 98.9028 422.114 99.1664C422.258 99.2684 422.425 99.3178 422.59 99.3178ZM555.561 85.6552C555.784 85.6552 556.005 85.5667 556.172 85.3915C556.49 85.0548 556.474 84.5241 556.138 84.2061C554.461 82.6209 552.697 81.08 550.896 79.6258C550.537 79.3349 550.008 79.3911 549.715 79.7516C549.425 80.1122 549.481 80.6412 549.841 80.932C551.608 82.359 553.338 83.871 554.984 85.4256C555.148 85.5786 555.355 85.6552 555.561 85.6552ZM434.361 85.6058C434.569 85.6058 434.776 85.5293 434.938 85.3762C436.581 83.8183 438.309 82.3063 440.073 80.8827C440.433 80.5919 440.489 80.0629 440.199 79.7023C439.908 79.3418 439.379 79.2856 439.018 79.5765C437.22 81.029 435.46 82.5699 433.783 84.1584C433.446 84.4765 433.433 85.0071 433.751 85.3439C433.918 85.5191 434.14 85.6058 434.361 85.6058ZM541.223 74.6475C541.504 74.6475 541.779 74.5064 541.938 74.2495C542.181 73.8549 542.058 73.3379 541.664 73.0947C539.691 71.8769 537.653 70.7238 535.604 69.6676C535.192 69.455 534.685 69.6165 534.474 70.0281C534.262 70.4397 534.423 70.9449 534.835 71.1575C536.845 72.1933 538.845 73.3243 540.781 74.52C540.92 74.6084 541.072 74.6475 541.223 74.6475ZM448.691 74.6033C448.84 74.6033 448.992 74.5625 449.13 74.4791C451.053 73.2954 453.055 72.1677 455.079 71.1319C455.491 70.921 455.654 70.4159 455.443 70.0026C455.232 69.591 454.727 69.4277 454.314 69.6386C452.251 70.6948 450.21 71.8429 448.249 73.0505C447.854 73.2937 447.731 73.809 447.975 74.2053C448.133 74.4621 448.408 74.6033 448.691 74.6033ZM524.957 66.766C525.3 66.766 525.622 66.5551 525.746 66.2132C525.904 65.7778 525.68 65.2965 525.244 65.1383C523.07 64.3491 520.839 63.6365 518.611 63.0225C518.165 62.9 517.703 63.1603 517.579 63.6076C517.456 64.0532 517.716 64.5158 518.164 64.64C520.347 65.2438 522.536 65.9428 524.669 66.7167C524.766 66.749 524.861 66.766 524.957 66.766ZM464.969 66.7643C465.064 66.7643 465.16 66.749 465.253 66.7149C467.384 65.9462 469.575 65.2506 471.762 64.6485C472.21 64.526 472.471 64.0651 472.349 63.6178C472.227 63.1722 471.764 62.9085 471.318 63.0327C469.089 63.645 466.857 64.3542 464.685 65.1383C464.25 65.2948 464.024 65.7761 464.182 66.2115C464.304 66.5517 464.626 66.7643 464.969 66.7643ZM482.503 62.3966C482.542 62.3966 482.583 62.3949 482.624 62.3881C484.865 62.0666 487.151 61.8302 489.417 61.684C489.879 61.655 490.23 61.2554 490.201 60.7927C490.17 60.3301 489.765 59.9917 489.309 60.0104C487 60.1583 484.67 60.3998 482.385 60.7264C481.928 60.7927 481.608 61.2179 481.675 61.6755C481.734 62.0939 482.093 62.3966 482.503 62.3966ZM507.425 62.3813C507.836 62.3813 508.194 62.0785 508.255 61.6601C508.319 61.2026 508.001 60.7774 507.542 60.7111C505.253 60.3845 502.923 60.1464 500.616 60.0002C500.147 59.9917 499.756 60.3233 499.727 60.7842C499.698 61.2469 500.048 61.6448 500.511 61.6738C502.773 61.8166 505.059 62.0513 507.306 62.3711C507.345 62.3796 507.384 62.3813 507.425 62.3813Z" fill="#91B3FA"/>
<path d="M406.839 146.881C407.29 146.881 407.664 146.522 407.677 146.068C407.711 144.967 407.766 143.852 407.842 142.751C407.875 142.289 407.526 141.889 407.063 141.857C406.604 141.846 406.201 142.175 406.169 142.637C406.092 143.758 406.034 144.896 406 146.019C405.987 146.481 406.351 146.867 406.813 146.883C406.82 146.881 406.83 146.881 406.839 146.881Z" fill="#91B3FA"/>
<path d="M431.648 211.005C431.859 211.005 432.07 210.927 432.234 210.768C432.565 210.445 432.574 209.915 432.251 209.583C431.477 208.787 430.715 207.971 429.982 207.154C429.672 206.812 429.142 206.783 428.798 207.091C428.453 207.401 428.426 207.932 428.735 208.277C429.482 209.107 430.259 209.938 431.048 210.75C431.211 210.92 431.429 211.005 431.648 211.005Z" fill="#91B3FA"/>
<path d="M494.856 237.789L495.616 237.785C496.079 237.78 496.451 237.401 496.446 236.938C496.441 236.477 496.067 236.108 495.607 236.108H495.599L494.856 236.112C492.874 236.112 490.866 236.044 488.882 235.908C488.418 235.897 488.02 236.226 487.988 236.688C487.955 237.151 488.306 237.551 488.767 237.583C490.789 237.717 492.837 237.789 494.856 237.789ZM506.598 237.005C506.635 237.005 506.673 237.003 506.71 236.998C508.962 236.695 511.233 236.302 513.459 235.829C513.912 235.732 514.201 235.287 514.105 234.834C514.008 234.38 513.565 234.096 513.11 234.188C510.927 234.654 508.699 235.04 506.489 235.336C506.03 235.397 505.709 235.821 505.77 236.278C505.824 236.698 506.185 237.005 506.598 237.005ZM477.9 236.139C478.293 236.139 478.644 235.862 478.722 235.462C478.812 235.008 478.516 234.566 478.06 234.477C475.868 234.047 473.669 233.523 471.522 232.926C471.077 232.799 470.614 233.062 470.488 233.508C470.364 233.953 470.624 234.416 471.072 234.54C473.26 235.151 475.502 235.683 477.737 236.124C477.791 236.134 477.846 236.139 477.9 236.139ZM523.899 232.887C523.991 232.887 524.082 232.872 524.174 232.841C526.327 232.094 528.472 231.256 530.552 230.348C530.976 230.162 531.171 229.667 530.986 229.244C530.802 228.819 530.307 228.623 529.882 228.81C527.841 229.7 525.736 230.523 523.623 231.258C523.186 231.409 522.955 231.887 523.106 232.326C523.227 232.671 523.552 232.887 523.899 232.887ZM460.887 230.948C461.215 230.948 461.527 230.754 461.661 230.434C461.84 230.007 461.639 229.516 461.212 229.337C459.162 228.477 457.115 227.523 455.121 226.497C454.71 226.284 454.203 226.448 453.992 226.859C453.779 227.271 453.943 227.776 454.354 227.989C456.385 229.033 458.475 230.006 460.562 230.883C460.669 230.928 460.778 230.948 460.887 230.948ZM540.026 225.393C540.172 225.393 540.318 225.356 540.453 225.276C542.405 224.116 544.339 222.864 546.2 221.554C546.579 221.287 546.669 220.765 546.402 220.386C546.135 220.007 545.613 219.917 545.234 220.184C543.409 221.468 541.512 222.697 539.595 223.835C539.197 224.072 539.066 224.587 539.303 224.985C539.459 225.247 539.738 225.393 540.026 225.393ZM445.263 222.446C445.532 222.446 445.796 222.318 445.957 222.08C446.218 221.697 446.119 221.175 445.736 220.915C443.893 219.658 442.073 218.313 440.331 216.921C439.969 216.632 439.442 216.692 439.152 217.054C438.863 217.415 438.923 217.944 439.283 218.233C441.059 219.651 442.913 221.02 444.791 222.303C444.937 222.398 445.1 222.446 445.263 222.446ZM554.309 214.809C554.51 214.809 554.714 214.738 554.874 214.59C556.549 213.062 558.19 211.445 559.75 209.781C560.066 209.445 560.051 208.914 559.713 208.596C559.376 208.28 558.843 208.293 558.527 208.633C556.996 210.264 555.386 211.851 553.743 213.351C553.401 213.664 553.375 214.193 553.688 214.535C553.855 214.717 554.081 214.809 554.309 214.809ZM566.162 201.556C566.421 201.556 566.677 201.437 566.841 201.211C567.892 199.765 568.917 198.265 569.885 196.75C570.145 196.342 570.404 195.932 570.656 195.524C570.899 195.129 570.776 194.612 570.382 194.369C569.989 194.124 569.472 194.248 569.227 194.641C568.979 195.044 568.727 195.445 568.47 195.845C567.519 197.332 566.514 198.804 565.482 200.225C565.21 200.599 565.291 201.123 565.667 201.396C565.818 201.504 565.992 201.556 566.162 201.556ZM575.142 186.203C575.46 186.203 575.765 186.021 575.906 185.713C576.852 183.645 577.729 181.514 578.512 179.378C578.672 178.942 578.447 178.461 578.013 178.301C577.58 178.14 577.097 178.366 576.937 178.8C576.168 180.895 575.307 182.987 574.38 185.016C574.188 185.438 574.374 185.934 574.794 186.128C574.906 186.178 575.025 186.203 575.142 186.203ZM580.862 169.362C581.245 169.362 581.59 169.098 581.679 168.71C582.187 166.496 582.614 164.23 582.951 161.979C583.019 161.521 582.702 161.094 582.245 161.024C581.792 160.956 581.36 161.271 581.291 161.73C580.961 163.94 580.542 166.163 580.042 168.334C579.939 168.785 580.221 169.236 580.672 169.34C580.736 169.355 580.799 169.362 580.862 169.362Z" fill="#91B3FA"/>
<path d="M583.06 151.68C583.514 151.68 583.888 151.316 583.898 150.861C583.924 149.743 583.927 148.605 583.91 147.474C583.903 147.01 583.519 146.66 583.058 146.649C582.595 146.656 582.224 147.039 582.233 147.502C582.25 148.61 582.247 149.728 582.223 150.823C582.213 151.287 582.58 151.67 583.043 151.68C583.048 151.68 583.053 151.68 583.06 151.68Z" fill="#91B3FA"/>
<defs>
<linearGradient id="paint0_linear" x1="321.891" y1="531.631" x2="326.933" y2="431.8" gradientUnits="userSpaceOnUse">
<stop stop-color="#09005D"/>
<stop offset="0.2747" stop-color="#09035E"/>
<stop offset="0.4452" stop-color="#080B60"/>
<stop offset="0.5873" stop-color="#071A64"/>
<stop offset="0.7138" stop-color="#062E6A"/>
<stop offset="0.8299" stop-color="#044971"/>
<stop offset="0.9369" stop-color="#02697A"/>
<stop offset="1" stop-color="#008080"/>
</linearGradient>
<linearGradient id="paint1_linear" x1="567.825" y1="306.367" x2="101.999" y2="306.367" gradientUnits="userSpaceOnUse">
<stop stop-color="#008080"/>
<stop offset="0.657" stop-color="#09005D"/>
<stop offset="1" stop-color="#606060"/>
</linearGradient>
<linearGradient id="paint2_linear" x1="554.861" y1="297.728" x2="117.788" y2="297.728" gradientUnits="userSpaceOnUse">
<stop stop-color="#7FD2FF"/>
<stop offset="1" stop-color="#008080"/>
</linearGradient>
<linearGradient id="paint3_linear" x1="321.578" y1="493.961" x2="367.964" y2="595.809" gradientUnits="userSpaceOnUse">
<stop stop-color="#09005D"/>
<stop offset="1" stop-color="#1A0F91"/>
</linearGradient>
<linearGradient id="paint4_linear" x1="543.672" y1="300.804" x2="128.037" y2="300.804" gradientUnits="userSpaceOnUse">
<stop stop-color="#143A56"/>
<stop offset="1" stop-color="#143A56"/>
</linearGradient>
<linearGradient id="paint5_linear" x1="144.717" y1="513.317" x2="134.745" y2="532.929" gradientUnits="userSpaceOnUse">
<stop stop-color="#09005D"/>
<stop offset="1" stop-color="#1A0F91"/>
</linearGradient>
<linearGradient id="paint6_linear" x1="125.755" y1="521.122" x2="135.689" y2="521.122" gradientUnits="userSpaceOnUse">
<stop stop-color="#FEBBBA"/>
<stop offset="1" stop-color="#FF928E"/>
</linearGradient>
<linearGradient id="paint7_linear" x1="112.008" y1="494.837" x2="154.223" y2="435.671" gradientUnits="userSpaceOnUse">
<stop stop-color="#143A56"/>
<stop offset="1" stop-color="#143A56"/>
</linearGradient>
<linearGradient id="paint8_linear" x1="138.93" y1="533.146" x2="104.361" y2="578.352" gradientUnits="userSpaceOnUse">
<stop stop-color="#09005D"/>
<stop offset="1" stop-color="#1A0F91"/>
</linearGradient>
<linearGradient id="paint9_linear" x1="121.63" y1="542.937" x2="148.342" y2="542.937" gradientUnits="userSpaceOnUse">
<stop stop-color="#4F52FF"/>
<stop offset="1" stop-color="#4042E2"/>
</linearGradient>
<linearGradient id="paint10_linear" x1="118.572" y1="530.289" x2="127.895" y2="530.289" gradientUnits="userSpaceOnUse">
<stop stop-color="#FEBBBA"/>
<stop offset="1" stop-color="#FF928E"/>
</linearGradient>
<linearGradient id="paint11_linear" x1="96.7927" y1="524.321" x2="99.1195" y2="445.21" gradientUnits="userSpaceOnUse">
<stop stop-color="#09005D"/>
<stop offset="1" stop-color="#143A56"/>
</linearGradient>
<linearGradient id="paint12_linear" x1="150.449" y1="269.706" x2="137.822" y2="390.238" gradientUnits="userSpaceOnUse">
<stop stop-color="#007F7F"/>
<stop offset="1" stop-color="#081362"/>
</linearGradient>
<linearGradient id="paint13_linear" x1="172.525" y1="366.699" x2="163.316" y2="426.758" gradientUnits="userSpaceOnUse">
<stop stop-color="#FEBBBA"/>
<stop offset="1" stop-color="#FF928E"/>
</linearGradient>
<linearGradient id="paint14_linear" x1="70.1172" y1="408.963" x2="142.717" y2="408.963" gradientUnits="userSpaceOnUse">
<stop offset="0.00782126" stop-color="#008080"/>
<stop offset="1" stop-color="#09005D"/>
</linearGradient>
<linearGradient id="paint15_linear" x1="116.028" y1="374.781" x2="137.607" y2="374.781" gradientUnits="userSpaceOnUse">
<stop stop-color="#FEBBBA"/>
<stop offset="1" stop-color="#FF928E"/>
</linearGradient>
<linearGradient id="paint16_linear" x1="54.343" y1="402.265" x2="95.3226" y2="402.265" gradientUnits="userSpaceOnUse">
<stop stop-color="#143A56"/>
<stop offset="0.4788" stop-color="#008080"/>
<stop offset="1" stop-color="#12425B"/>
</linearGradient>
<linearGradient id="paint17_linear" x1="101.314" y1="423.17" x2="18.7014" y2="566.726" gradientUnits="userSpaceOnUse">
<stop stop-color="#FEBBBA"/>
<stop offset="1" stop-color="#FF928E"/>
</linearGradient>
<linearGradient id="paint18_linear" x1="42.0302" y1="512.216" x2="23.411" y2="542.154" gradientUnits="userSpaceOnUse">
<stop stop-color="#FEBBBA"/>
<stop offset="1" stop-color="#FF928E"/>
</linearGradient>
<linearGradient id="paint19_linear" x1="135.013" y1="340.543" x2="140.406" y2="379.358" gradientUnits="userSpaceOnUse">
<stop stop-color="#09005D"/>
<stop offset="1" stop-color="#1A0F91"/>
</linearGradient>
<linearGradient id="paint20_linear" x1="34.6433" y1="507.624" x2="16.0238" y2="537.562" gradientUnits="userSpaceOnUse">
<stop stop-color="#FEBBBA"/>
<stop offset="1" stop-color="#FF928E"/>
</linearGradient>
<linearGradient id="paint21_linear" x1="112.18" y1="421.458" x2="153.857" y2="435.127" gradientUnits="userSpaceOnUse">
<stop stop-color="#09005D"/>
<stop offset="1" stop-color="#1A0F91"/>
</linearGradient>
<linearGradient id="paint22_linear" x1="187.577" y1="402.03" x2="201.195" y2="422.538" gradientUnits="userSpaceOnUse">
<stop stop-color="#53D8FF"/>
<stop offset="1" stop-color="#3840F7"/>
</linearGradient>
</defs>
</svg>
