<?xml version="1.0" encoding="utf-8"?>
<!-- Generator: Adobe Illustrator 24.3.0, SVG Export Plug-In . SVG Version: 6.00 Build 0)  -->
<svg version="1.1" id="Layer_1" xmlns="http://www.w3.org/2000/svg" xmlns:xlink="http://www.w3.org/1999/xlink" x="0px" y="0px"
	 viewBox="0 0 433 466" style="enable-background:new 0 0 433 466;" xml:space="preserve">
<style type="text/css">
	.st0{fill:#405363;}
	.st1{fill:#0C8C8F;}
	.st2{fill:#FFFFFF;}
	.st3{clip-path:url(#SVGID_2_);}
	.st4{fill:#29A7A8;}
	.st5{opacity:0.3;fill:url(#SVGID_3_);enable-background:new    ;}
	.st6{opacity:0.6;fill:url(#SVGID_4_);enable-background:new    ;}
	.st7{opacity:0.6;fill:url(#SVGID_5_);enable-background:new    ;}
	.st8{opacity:0.6;fill:url(#SVGID_6_);enable-background:new    ;}
	.st9{opacity:0.6;fill:url(#SVGID_7_);enable-background:new    ;}
	.st10{opacity:0.6;fill:url(#SVGID_8_);enable-background:new    ;}
	.st11{opacity:0.6;fill:url(#SVGID_9_);enable-background:new    ;}
	.st12{fill:#AEB7BF;}
	.st13{opacity:0.5;}
	.st14{fill:#CFD5E0;}
	.st15{fill:#1D425D;}
	.st16{opacity:0.3;}
	.st17{fill:#D8DEE8;}
	.st18{opacity:0.3;fill:#008080;enable-background:new    ;}
	.st19{opacity:0.67;fill:#FFFFFF;enable-background:new    ;}
	.st20{opacity:0.56;fill:#FFFFFF;fill-opacity:0.5;enable-background:new    ;}
	.st21{fill:#A9D5D5;}
	.st22{opacity:0.35;}
	.st23{fill:#0A7D80;}
	.st24{clip-path:url(#SVGID_11_);}
	.st25{fill:#FCFDFE;}
	.st26{fill:url(#SVGID_12_);}
	.st27{fill:#FFC444;}
	.st28{fill:#4B6070;}
	.st29{fill:#009286;}
	.st30{opacity:0.4;fill:#38B4AC;enable-background:new    ;}
	.st31{fill:url(#SVGID_13_);}
	.st32{fill:url(#SVGID_14_);}
	.st33{fill:url(#SVGID_15_);}
	.st34{fill:url(#SVGID_16_);}
	.st35{fill:url(#SVGID_17_);}
</style>
<path class="st0" d="M370.9,125.8c5.8,2.9,13,0.2,16.2-5.9c3.2-6.1,1.1-13.4-4.7-16.3c-0.3-0.1-0.6-0.3-0.9-0.4
	c1.1-3.3,1.9-6.8,2.4-10.2c0.3,0,0.7,0,1,0c6.6-0.6,11.8-6.5,11.6-13.2c-0.1-6.7-5.6-11.7-12.1-11.2c-0.3,0-0.7,0.1-1,0.1
	c-0.7-3.3-1.6-6.6-2.8-9.8c0.3-0.2,0.6-0.4,0.9-0.6c5.6-3.9,7.4-11.5,4-17c-3.4-5.5-10.7-6.9-16.3-3c-0.3,0.2-0.6,0.4-0.8,0.6
	c-2.2-2.4-4.7-4.7-7.3-6.7c0.2-0.3,0.4-0.6,0.5-0.9c3.2-6.1,1.1-13.4-4.7-16.3c-5.8-2.9-13-0.2-16.2,5.9c-0.2,0.3-0.3,0.6-0.4,1
	c-3.2-0.9-6.5-1.5-9.8-1.8c0-0.3,0-0.7,0-1c-0.1-6.7-5.6-11.7-12.1-11.2c-6.6,0.6-11.8,6.5-11.6,13.2c0,0.4,0,0.7,0.1,1
	c-3.3,0.9-6.6,2.1-9.7,3.5c-0.1-0.3-0.3-0.6-0.5-0.9c-3.4-5.6-10.7-6.9-16.3-3c-5.6,3.9-7.4,11.5-4,17c0.2,0.3,0.4,0.5,0.6,0.8
	c-2.5,2.5-4.8,5.1-7,7.9c-0.3-0.2-0.6-0.3-0.9-0.5c-5.8-2.9-13-0.2-16.2,5.9c-3.2,6.1-1.1,13.4,4.7,16.3c0.3,0.1,0.6,0.3,0.9,0.4
	c-1.1,3.3-1.9,6.8-2.4,10.2c-0.3,0-0.7,0-1,0c-6.6,0.6-11.8,6.5-11.6,13.2c0.1,6.7,5.6,11.7,12.1,11.2c0.3,0,0.7-0.1,1-0.1
	c0.7,3.3,1.6,6.6,2.8,9.8c-0.3,0.2-0.6,0.4-0.9,0.6c-5.6,3.9-7.4,11.5-4,17c3.4,5.5,10.7,6.9,16.3,3c0.3-0.2,0.6-0.4,0.8-0.6
	c2.2,2.4,4.7,4.7,7.3,6.7c-0.2,0.3-0.4,0.6-0.5,0.9c-3.2,6.1-1.1,13.4,4.7,16.3c5.7,2.9,13,0.2,16.2-5.9c0.2-0.3,0.3-0.6,0.4-1
	c3.2,0.9,6.5,1.5,9.8,1.8c0,0.3,0,0.7,0,1c0.1,6.7,5.6,11.7,12.1,11.2c6.6-0.6,11.8-6.5,11.6-13.2c0-0.4,0-0.7-0.1-1
	c3.3-0.9,6.6-2.1,9.7-3.5c0.2,0.3,0.3,0.6,0.5,0.9c3.4,5.5,10.7,6.9,16.3,3c5.6-3.9,7.4-11.5,4-17c-0.2-0.3-0.4-0.5-0.6-0.8
	c2.5-2.5,4.8-5.1,7-7.9C370.3,125.5,370.6,125.6,370.9,125.8z M299.1,126.7c-20.9-10.4-28.5-36.9-17-59.1
	c11.5-22.2,37.7-31.8,58.6-21.4c20.9,10.4,28.5,36.9,17,59.1C346.3,127.5,320,137.1,299.1,126.7L299.1,126.7z"/>
<path class="st1" d="M367.5,120c5.8,2.9,13,0.2,16.2-6c3.2-6.3,1.1-13.7-4.7-16.7c-0.3-0.2-0.6-0.3-0.9-0.4
	c1.1-3.4,1.9-6.9,2.4-10.5c0.3,0,0.7,0,1,0c6.6-0.6,11.8-6.7,11.7-13.5c-0.1-6.9-5.6-12-12.2-11.4c-0.3,0-0.7,0.1-1,0.1
	c-0.7-3.4-1.6-6.7-2.8-10c0.3-0.2,0.6-0.4,0.9-0.6c5.6-4,7.4-11.8,4-17.4c-3.4-5.7-10.8-7.1-16.4-3.1c-0.3,0.2-0.6,0.4-0.8,0.6
	c-2.2-2.5-4.7-4.8-7.3-6.8c0.2-0.3,0.4-0.6,0.5-0.9c3.2-6.3,7.3-13.1,1.5-15.9c-13.5-6.6-19.3-0.9-22.4,5.3c-0.2,0.3-0.3,0.7-0.4,1
	c-3.2-0.9-6.5-1.5-9.8-1.9c0-0.3,0-0.7,0-1.1c-0.1-6.9,1.9-10.6-4.7-10.7c-14.4-0.3-19.3,6-19.2,12.9c0,0.4,0,0.7,0.1,1.1
	c-3.3,1-6.6,2.2-9.7,3.6c-0.2-0.3-0.3-0.6-0.5-0.9c-3.4-5.7-10.8-7.1-16.4-3.1c-5.6,4-7.4,11.8-4,17.4c0.2,0.3,0.4,0.6,0.6,0.8
	c-2.5,2.5-4.9,5.3-7,8.1c-0.3-0.2-0.6-0.3-0.9-0.5c-5.8-2.9-13-0.2-16.2,6c-3.2,6.3-1.1,13.7,4.7,16.7c0.3,0.2,0.6,0.3,0.9,0.4
	c-1.1,3.4-1.9,6.9-2.4,10.5c-0.3,0-0.7,0-1,0c-6.6,0.6-11.8,6.7-11.7,13.5c0.1,6.9,5.6,12,12.2,11.4c0.3,0,0.7-0.1,1-0.1
	c0.7,3.4,1.6,6.7,2.8,10c-0.3,0.2-0.6,0.4-0.9,0.6c-5.6,4-7.4,11.8-4,17.4c3.4,5.7,14.7,8.3,20.4,4.4c0.3-0.2-3.4-1.7-3.1-1.9
	c2.2,2.5,4.7,4.8,7.3,6.8c-0.2,0.3-0.4,0.6-0.5,0.9c-3.2,6.3-1.1,13.7,4.7,16.7c5.8,2.9,13,0.2,16.2-6c0.2-0.3,0.3-0.7,0.4-1
	c3.2,0.9,6.5,1.5,9.8,1.9c0,0.3,0,0.7,0,1c0.1,6.9,5.6,12,12.2,11.4c6.6-0.6,11.8-6.7,11.7-13.5c0-0.4,0-0.7-0.1-1.1
	c3.3-1,6.6-2.2,9.7-3.6c0.2,0.3,0.3,0.6,0.5,0.9c3.4,5.7,10.8,7.1,16.4,3.1c5.6-4,7.4-11.8,4-17.4c-0.2-0.3-0.4-0.6-0.6-0.8
	c2.5-2.5,4.9-5.3,7-8.1C366.9,119.6,367.2,119.8,367.5,120z M295.4,120.9c-21-10.7-28.7-37.7-17.1-60.5
	c11.5-22.7,37.9-32.5,58.9-21.9c21,10.7,28.7,37.7,17.1,60.5C342.8,121.7,316.4,131.5,295.4,120.9z"/>
<path class="st1" d="M381.5,86.4c6.6-0.6,11.8-6.7,11.7-13.5c-0.1-6.9-5.6-12-12.2-11.4c-0.3,0-0.7,0.1-1,0.1
	c-0.7-3.4-1.6-6.7-2.8-10c0.3-0.2,0.6-0.4,0.9-0.6c5.6-4,12.6-13.5,8.6-18.8c-7.6-10-15.4-5.7-21-1.7c-0.3,0.2-0.6,0.4-0.8,0.6
	c-2.2-2.5-4.7-4.8-7.3-6.8c0.2-0.3,0.4-0.6,0.5-0.9c0.8-1.6,1.3-3.3,1.4-5.1c0.1-1.8-0.1-3.6-0.7-5.3c-5.5,9.6-10.8,19.2-16.1,28.9
	c16.8,12.3,22.1,36.5,11.6,57.1c-8.9,17.5-26.5,27.3-43.7,26.1c-0.8,2-1.5,4-2.4,6c-2.2,5.4-4.8,10.6-7.3,15.8
	c1.6,0.3,3.2,0.5,4.8,0.7c0,0.3,0,0.7,0,1c0.1,6.9,4.3,12.7,16.3,12.1c6.6-0.4,7.8-7.4,7.6-14.2c0-0.4,0-0.7-0.1-1.1
	c3.3-0.9,6.6-2.2,9.7-3.6c0.2,0.3,0.3,0.6,0.5,0.9c3.4,5.7,15.3,8.1,20.9,4.1c5.6-4,2.9-12.8-0.5-18.5c-0.2-0.3-0.4-0.6-0.6-0.8
	c2.5-2.5,4.9-5.3,7-8.1c0.3,0.2,0.6,0.3,0.9,0.5c5.8,2.9,13,0.2,16.2-6c3.2-6.3,1.1-13.7-4.7-16.7c-0.3-0.2-0.6-0.3-0.9-0.4
	c1.1-3.4,1.9-6.9,2.4-10.4C380.9,86.4,381.2,86.4,381.5,86.4z"/>
<path class="st2" d="M-136.1,16h-7.9v-1.1l4.2-4.6c0.6-0.7,1-1.3,1.3-1.7c0.2-0.4,0.4-0.9,0.4-1.4c0-0.6-0.2-1.1-0.6-1.6
	c-0.4-0.4-0.9-0.6-1.5-0.6c-0.8,0-1.4,0.2-1.8,0.7c-0.4,0.4-0.6,1-0.6,1.8h-1.5c0-1.1,0.4-2,1.1-2.7c0.7-0.7,1.7-1,2.9-1
	c1.1,0,2,0.3,2.7,0.9c0.7,0.6,1,1.4,1,2.3c0,1.2-0.8,2.6-2.3,4.3l-3.2,3.5h6.1V16z M-134.3,15.2c0-0.3,0.1-0.5,0.2-0.7
	c0.2-0.2,0.4-0.3,0.7-0.3s0.6,0.1,0.7,0.3c0.2,0.2,0.2,0.4,0.2,0.7c0,0.3-0.1,0.5-0.2,0.6c-0.2,0.2-0.4,0.3-0.7,0.3
	s-0.6-0.1-0.7-0.3C-134.2,15.7-134.3,15.4-134.3,15.2z M-123.9,3.9v1.3h-0.3c-1.2,0-2.1,0.4-2.9,1.1c-0.7,0.7-1.1,1.7-1.2,2.9
	c0.6-0.7,1.5-1.1,2.6-1.1c1.1,0,1.9,0.4,2.5,1.1c0.6,0.7,0.9,1.7,0.9,2.9c0,1.2-0.3,2.2-1,3c-0.7,0.7-1.6,1.1-2.7,1.1
	c-1.2,0-2.1-0.4-2.8-1.3c-0.7-0.9-1.1-2-1.1-3.4v-0.6c0-2.2,0.5-3.9,1.4-5.1c1-1.2,2.4-1.8,4.2-1.8H-123.9z M-126,9.4
	c-0.5,0-1,0.2-1.5,0.5c-0.4,0.3-0.7,0.7-0.9,1.2v0.6c0,1,0.2,1.8,0.7,2.4c0.4,0.6,1,0.9,1.7,0.9c0.7,0,1.2-0.3,1.6-0.8
	c0.4-0.5,0.6-1.2,0.6-2c0-0.8-0.2-1.5-0.6-2C-124.8,9.6-125.3,9.4-126,9.4z M-112.7,10.4l-1.5,1.5V16h-1.6V3.9h1.6v6l5.4-6h1.9
	l-4.8,5.3l5.1,6.7h-1.9L-112.7,10.4z M-105.1,16V3.9h4c1.3,0,2.3,0.3,3,0.8c0.7,0.5,1,1.3,1,2.4c0,0.6-0.2,1.1-0.5,1.5
	c-0.3,0.4-0.8,0.8-1.3,1c0.7,0.2,1.2,0.5,1.5,1c0.4,0.5,0.6,1.1,0.6,1.8c0,1.1-0.4,1.9-1.1,2.6c-0.7,0.6-1.7,0.9-3,0.9H-105.1z
	 M-103.6,10.3v4.3h2.6c0.7,0,1.3-0.2,1.8-0.6c0.4-0.4,0.6-0.9,0.6-1.6c0-1.5-0.8-2.2-2.4-2.2H-103.6z M-103.6,9.1h2.4
	c0.7,0,1.3-0.2,1.7-0.5c0.4-0.3,0.6-0.8,0.6-1.4c0-0.7-0.2-1.1-0.6-1.4c-0.4-0.3-1-0.5-1.8-0.5h-2.4V9.1z"/>
<g>
	<defs>
		<rect id="SVGID_1_" x="98.7" y="85.7" width="333.4" height="330"/>
	</defs>
	<clipPath id="SVGID_2_">
		<use xlink:href="#SVGID_1_"  style="overflow:visible;"/>
	</clipPath>
	<g class="st3">
		<path class="st4" d="M285.4,98.1l-167-5.7c-3.8-0.1-6.9,2.8-6.9,6.6v303.5c0,3.8,3.1,6.7,6.9,6.5l167-9.5c3.5-0.2,6.2-3.3,6.2-6.8
			V104.8C291.6,101.2,288.8,98.2,285.4,98.1z"/>
		
			<linearGradient id="SVGID_3_" gradientUnits="userSpaceOnUse" x1="386.6378" y1="292.1397" x2="263.3218" y2="90.3747" gradientTransform="matrix(1 0 0 -1 0 465.8898)">
			<stop  offset="0" style="stop-color:#FFFFFF"/>
			<stop  offset="1" style="stop-color:#EBEFF2"/>
		</linearGradient>
		<path class="st5" d="M352.9,221.7l-167-5.5c-0.4,0-0.7,0-1.1,0.2c-0.3,0.1-0.7,0.3-0.9,0.6c-0.3,0.3-0.5,0.6-0.6,0.9
			c-0.1,0.3-0.2,0.7-0.2,1.1V522c0,0.4,0.1,0.7,0.2,1.1c0.1,0.3,0.4,0.6,0.6,0.9s0.6,0.4,0.9,0.6c0.3,0.1,0.7,0.2,1.1,0.1l167-9.3
			c1.4-0.1,2.6-1.3,2.6-2.8V224.4C355.5,223,354.4,221.7,352.9,221.7z"/>
		
			<linearGradient id="SVGID_4_" gradientUnits="userSpaceOnUse" x1="99083.2031" y1="128.3427" x2="200393" y2="128.3427" gradientTransform="matrix(1 0 0 -1 0 465.8898)">
			<stop  offset="0" style="stop-color:#FFFFFF"/>
			<stop  offset="1" style="stop-color:#EBEFF2"/>
		</linearGradient>
		<path class="st6" d="M253.8,331.4L152.5,335c-1.2,0-2.3,0.5-3.1,1.4s-1.3,1.9-1.3,3.1c0,0.6,0.1,1.1,0.3,1.6
			c0.2,0.5,0.5,1,0.9,1.4c0.4,0.4,0.9,0.7,1.4,0.9c0.5,0.2,1.1,0.3,1.6,0.3l101.4-3.9c2.3-0.1,4.1-2,4.1-4.3
			C257.9,333.1,256.1,331.3,253.8,331.4z"/>
		
			<linearGradient id="SVGID_5_" gradientUnits="userSpaceOnUse" x1="99077.7969" y1="113.1642" x2="200382" y2="113.1642" gradientTransform="matrix(1 0 0 -1 0 465.8898)">
			<stop  offset="0" style="stop-color:#FFFFFF"/>
			<stop  offset="1" style="stop-color:#EBEFF2"/>
		</linearGradient>
		<path class="st7" d="M253.8,346.3l-101.4,4.1c-1.2,0.1-2.3,0.6-3.1,1.4c-0.8,0.8-1.3,2-1.3,3.1c0,0.6,0.1,1.1,0.3,1.6
			s0.5,1,0.9,1.4c0.4,0.4,0.9,0.7,1.4,0.9c0.5,0.2,1.1,0.3,1.6,0.3l101.4-4.4c2.3-0.1,4.1-2.1,4.1-4.4
			C257.9,348.1,256.1,346.3,253.8,346.3z"/>
		
			<linearGradient id="SVGID_6_" gradientUnits="userSpaceOnUse" x1="99083.2031" y1="97.9912" x2="200393" y2="97.9912" gradientTransform="matrix(1 0 0 -1 0 465.8898)">
			<stop  offset="0" style="stop-color:#FFFFFF"/>
			<stop  offset="1" style="stop-color:#EBEFF2"/>
		</linearGradient>
		<path class="st8" d="M253.8,361.3l-101.4,4.6c-1.2,0.1-2.3,0.6-3.1,1.4c-0.8,0.8-1.3,2-1.3,3.1c0,0.6,0.1,1.1,0.3,1.6
			c0.2,0.5,0.5,1,0.9,1.4c0.4,0.4,0.9,0.7,1.4,0.9c0.5,0.2,1.1,0.3,1.6,0.2l101.4-4.8c2.3-0.1,4.1-2.1,4.1-4.4
			C257.9,363,256.1,361.2,253.8,361.3z"/>
		
			<linearGradient id="SVGID_7_" gradientUnits="userSpaceOnUse" x1="49907.8984" y1="350.442" x2="75538.3984" y2="350.442" gradientTransform="matrix(1 0 0 -1 0 465.8898)">
			<stop  offset="0" style="stop-color:#FFFFFF"/>
			<stop  offset="1" style="stop-color:#EBEFF2"/>
		</linearGradient>
		<path class="st9" d="M201.3,114.1l-51-1.4c-0.3,0-0.6,0-0.8,0.1c-0.3,0.1-0.5,0.3-0.7,0.4c-0.2,0.2-0.4,0.4-0.5,0.7
			c-0.1,0.3-0.2,0.5-0.2,0.8c0,0.6,0.2,1.1,0.6,1.5c0.4,0.4,0.9,0.7,1.5,0.7l51,1.4c0.3,0,0.5,0,0.8-0.1s0.5-0.3,0.7-0.4
			c0.2-0.2,0.3-0.4,0.5-0.7c0.1-0.3,0.2-0.5,0.2-0.8c0-0.6-0.2-1.1-0.6-1.5S201.8,114.1,201.3,114.1z"/>
		
			<linearGradient id="SVGID_8_" gradientUnits="userSpaceOnUse" x1="49911" y1="342.8701" x2="75543.1016" y2="342.8701" gradientTransform="matrix(1 0 0 -1 0 465.8898)">
			<stop  offset="0" style="stop-color:#FFFFFF"/>
			<stop  offset="1" style="stop-color:#EBEFF2"/>
		</linearGradient>
		<path class="st10" d="M201.3,121.6l-51-1.3c-0.3,0-0.6,0-0.8,0.1c-0.3,0.1-0.5,0.3-0.7,0.4c-0.2,0.2-0.4,0.4-0.5,0.7
			c-0.1,0.3-0.2,0.5-0.2,0.8c0,0.6,0.2,1.1,0.6,1.5c0.4,0.4,0.9,0.6,1.5,0.7l51,1.3c0.3,0,0.5,0,0.8-0.1c0.3-0.1,0.5-0.3,0.7-0.4
			s0.3-0.4,0.5-0.7c0.1-0.3,0.2-0.5,0.2-0.8c0-0.6-0.2-1.1-0.6-1.5C202.3,121.8,201.8,121.6,201.3,121.6z"/>
		
			<linearGradient id="SVGID_9_" gradientUnits="userSpaceOnUse" x1="49907.8008" y1="335.2969" x2="75538.2969" y2="335.2969" gradientTransform="matrix(1 0 0 -1 0 465.8898)">
			<stop  offset="0" style="stop-color:#FFFFFF"/>
			<stop  offset="1" style="stop-color:#EBEFF2"/>
		</linearGradient>
		<path class="st11" d="M201.3,129.1l-51-1.2c-0.3,0-0.6,0-0.8,0.1c-0.3,0.1-0.5,0.3-0.7,0.4c-0.2,0.2-0.4,0.4-0.5,0.7
			c-0.1,0.3-0.2,0.5-0.2,0.8c0,0.6,0.2,1.1,0.6,1.5c0.4,0.4,0.9,0.6,1.5,0.7l51,1.2c0.3,0,0.5,0,0.8-0.1c0.3-0.1,0.5-0.3,0.7-0.4
			c0.2-0.2,0.3-0.4,0.5-0.7c0.1-0.3,0.2-0.5,0.2-0.8c0-0.6-0.2-1.1-0.6-1.5C202.3,129.3,201.8,129.1,201.3,129.1z"/>
		<path class="st12" d="M280.9,363.3c-9-0.2-17.2-21.1-17.9-38.2c-0.3-6.6-0.5-13.2,3.3-19.8c6.5-11.2,16.4-8.2,22.1-17.4
			c8.5-13.4-7.1-29.2,1.4-40.4c6.2-8.2,16.7-2.3,24.3-11.3c8.8-10.5,0.2-25,8.4-30.3c4.7-3.1,8.9,1,22.5-2.1c5.3-1.2,8-1.8,10.2-3.7
			c7.8-6.5,1.8-17.7,7.6-25.9c6.4-9.1,23.2-9.3,33.7-6.4c18.8,5.1,29.7,23.6,32.4,39.2c0.6,3.3,4,25.2-9.9,39.2
			c-10.1,10.2-25.4,12.3-27.9,12.6c-9.7,1.3-12.1-1.2-15.2,1.4c-9,7.4,8.7,30.1-1.6,47.9c-4.2,7.3-12.4,12.6-20.1,14.2
			c-12.6,2.5-19.4-5.8-25.6-1.6c-8.1,5.4-0.2,21.7-8.9,28.2c-6.2,4.6-12.5-1.8-23.4,3C286.4,356.1,286.3,363.4,280.9,363.3z"/>
		<g class="st13">
			<path class="st14" d="M279,347.3c4.2,0.4,4.6-10.9,16.1-27.3c12.5-17.9,20.9-17.2,32.6-33.4c13.4-18.5,5.2-23.1,16.6-37.5
				c15.4-19.6,32.1-13.3,50.8-36.3c5.6-6.9,13-16.4,10.1-26.1c-2.6-8.4-12.6-16-22.4-14.5c-0.4,0.1-8.6,1.4-12.9,8.6
				c-5.2,8.8,1.5,16-3.5,22.8c-2.7,3.6-7.5,4.7-17.1,6.9c-13.9,3.2-16.7,0.6-20.1,3.8c-7.8,7.1,3.6,23.2-4.1,31.7
				c-6.6,7.3-18.9-0.1-24.6,6.9c-6.9,8.4,8.1,22.8,1.7,36c-5.5,11.4-19.8,7.2-27.7,19.4C264.9,322.6,273,346.8,279,347.3z"/>
		</g>
		<path class="st15" d="M315.7,91.6l-174.2-5.9c-4-0.1-7.2,3-7.2,6.9V409c0,3.9,3.2,7,7.2,6.7l174.2-9.9c3.6-0.2,6.5-3.4,6.5-7.1
			V98.6C322.2,94.8,319.3,91.7,315.7,91.6z"/>
		<g class="st16">
			<g class="st16">
				<path class="st17" d="M244.3,325.2c-3-36.2,19.3-51.1,10.8-83.9c-10.5-40.5-50.8-42.3-64.5-82c-5.3-15.2-7.3-38.2,7.7-71.7
					l-56.7-1.9c-4-0.1-7.2,3-7.2,6.9V409c0,3.9,3.2,7,7.2,6.7l155.3-8.8C257.3,376.3,246.1,347.5,244.3,325.2z"/>
			</g>
		</g>
		<path class="st2" d="M317.2,95.6L143,89.9c-0.4,0-0.8,0-1.1,0.2c-0.4,0.1-0.7,0.3-1,0.6c-0.3,0.3-0.5,0.6-0.6,0.9
			c-0.1,0.4-0.2,0.7-0.2,1.1v316c0,0.4,0.1,0.8,0.2,1.1s0.4,0.7,0.6,0.9c0.3,0.3,0.6,0.5,1,0.6c0.4,0.1,0.7,0.2,1.1,0.1l174.2-9.7
			c1.5-0.1,2.7-1.4,2.7-2.9V98.5C319.9,97,318.7,95.7,317.2,95.6z"/>
		<path class="st17" d="M282.8,334.8l-105.7,3.8c-1.2,0.1-2.4,0.6-3.2,1.4c-0.8,0.9-1.3,2-1.3,3.2c0,0.6,0.1,1.2,0.3,1.7
			c0.2,0.5,0.6,1,1,1.4c0.4,0.4,0.9,0.7,1.5,0.9c0.5,0.2,1.1,0.3,1.7,0.3l105.7-4.1c2.3-0.1,4.2-2.1,4.2-4.5
			C287.1,336.6,285.2,334.7,282.8,334.8z"/>
		<path class="st17" d="M282.8,350.4l-105.7,4.3c-1.2,0.1-2.4,0.6-3.2,1.4c-0.8,0.9-1.3,2-1.3,3.2c0,0.6,0.1,1.2,0.3,1.7
			c0.2,0.5,0.6,1,1,1.4c0.4,0.4,0.9,0.7,1.5,0.9s1.1,0.3,1.7,0.3l105.7-4.5c2.3-0.1,4.2-2.1,4.2-4.6
			C287.1,352.2,285.2,350.3,282.8,350.4z"/>
		<path class="st17" d="M282.8,366l-105.7,4.8c-1.2,0.1-2.4,0.6-3.2,1.5c-0.8,0.9-1.3,2-1.3,3.3c0,0.6,0.1,1.2,0.3,1.7
			c0.2,0.5,0.6,1,1,1.4c0.4,0.4,0.9,0.7,1.5,0.9c0.5,0.2,1.1,0.3,1.7,0.3l105.7-5c2.3-0.1,4.2-2.2,4.2-4.6
			C287.1,367.8,285.2,365.9,282.8,366z"/>
		<path class="st17" d="M228,108.2l-53.2-1.5c-0.3,0-0.6,0-0.9,0.1c-0.3,0.1-0.5,0.3-0.7,0.5c-0.2,0.2-0.4,0.4-0.5,0.7
			c-0.1,0.3-0.2,0.6-0.2,0.8c0,0.6,0.2,1.2,0.7,1.6c0.4,0.4,1,0.7,1.6,0.7l53.2,1.4c0.3,0,0.6,0,0.8-0.1c0.3-0.1,0.5-0.3,0.7-0.5
			c0.2-0.2,0.4-0.4,0.5-0.7c0.1-0.3,0.2-0.5,0.2-0.8c0-0.6-0.2-1.1-0.6-1.6C229.2,108.5,228.6,108.3,228,108.2z"/>
		<path class="st17" d="M228,116.1l-53.2-1.4c-0.3,0-0.6,0-0.9,0.1c-0.3,0.1-0.5,0.3-0.7,0.5c-0.2,0.2-0.4,0.4-0.5,0.7
			c-0.1,0.3-0.2,0.6-0.2,0.8c0,0.6,0.2,1.2,0.7,1.6c0.4,0.4,1,0.7,1.6,0.7l53.2,1.3c0.3,0,0.6,0,0.8-0.1s0.5-0.3,0.7-0.5
			c0.2-0.2,0.4-0.4,0.5-0.7c0.1-0.3,0.2-0.5,0.2-0.8c0-0.6-0.2-1.1-0.6-1.6C229.2,116.3,228.6,116.1,228,116.1z"/>
		<path class="st17" d="M228,123.9l-53.2-1.3c-0.3,0-0.6,0-0.9,0.1c-0.3,0.1-0.5,0.3-0.7,0.5c-0.2,0.2-0.4,0.4-0.5,0.7
			c-0.1,0.3-0.2,0.6-0.2,0.8c0,0.6,0.2,1.2,0.7,1.6c0.4,0.4,1,0.7,1.6,0.7l53.2,1.2c0.3,0,0.6,0,0.8-0.2c0.3-0.1,0.5-0.3,0.7-0.5
			c0.2-0.2,0.4-0.4,0.5-0.7c0.1-0.3,0.2-0.5,0.2-0.8c0-0.6-0.2-1.1-0.6-1.6S228.6,123.9,228,123.9z"/>
		<path class="st18" d="M228.2,285.2l75.3-1.6c2,0,3.5,1.6,3.5,3.6v35.1c0,2-1.6,3.7-3.5,3.8l-79.4,2.7c-0.5,0-1-0.1-1.4-0.2
			c-0.5-0.2-0.9-0.4-1.2-0.8c-0.3-0.3-0.6-0.7-0.8-1.2c-0.2-0.5-0.3-0.9-0.3-1.4v-45.8L228.2,285.2z"/>
		<path class="st19" d="M233.8,314.9l60.4-1.8v4.2l-60.4,1.9V314.9z"/>
		<path class="st19" d="M233.8,306.2l60.4-1.7v4.2l-60.4,1.7V306.2z"/>
		<path class="st19" d="M233.8,297.6l60.4-1.5v4.2l-60.4,1.6V297.6z"/>
		<path class="st0" d="M205.9,148.6l28.9,20.3l-11,32.8H188l-11-32.8L205.9,148.6z M205.9,267.1L177,246.9l11-32.8h35.7l11,32.8
			L205.9,267.1z M286.8,225.4l-34,10.6l-21-27.9l21-27.9l34,10.6V225.4z"/>
		<path class="st20" d="M233.3,249.2c28,9,57.9-6.9,66.6-36.3c8.8-30-8-61.7-37.3-70.2c-28.9-8.4-58.1,9.3-65.7,38.7
			C189.5,210.2,205.7,240.3,233.3,249.2z"/>
		<g class="st16">
			<path class="st21" d="M219.3,319.7c-2.8-34.7,18.5-49,10.3-80.5c-10-38.9-48.7-40.5-61.8-78.6c-5-14.6-7-36.7,7.4-68.8l-54.4-1.8
				c-3.8-0.1-6.9,2.8-6.9,6.6V400c0,3.8,3.1,6.7,6.9,6.4l148.9-8.5C231.9,368.6,221.1,341,219.3,319.7z"/>
		</g>
		<g class="st22">
		</g>
	</g>
</g>
<path class="st1" d="M134.2,285.7L12,284.5c-2.8,0-5-2.2-5-4.9V233c0-2.7,2.2-4.8,5-4.8l106.4,2.5c1.3,0,2.5,0.6,3.4,1.5
	c0.9,0.9,1.4,2.1,1.4,3.4v40L134.2,285.7z"/>
<path class="st19" d="M106,247.6l-81-1.6v-5.6l81,1.7V247.6z"/>
<path class="st19" d="M106,258.6l-81-1.4v-5.6l81,1.5V258.6z"/>
<path class="st19" d="M106,269.5l-81-1.1v-5.6l81,1.2V269.5z"/>
<path class="st23" d="M155,140l-84.3-0.8c-1.9,0-3.4-1.5-3.4-3.4v-32.1c0-1.9,1.5-3.3,3.4-3.3l73.4,1.7c0.9,0,1.7,0.4,2.3,1
	c0.6,0.6,1,1.5,1,2.3v27.6L155,140z"/>
<path class="st19" d="M137.8,115.4l-55.8-1.1v-3.8l55.8,1.2V115.4z"/>
<path class="st19" d="M137.8,122.9L81.9,122v-3.8l55.8,1V122.9z"/>
<path class="st19" d="M137.8,130.5l-55.8-0.8v-3.8l55.8,0.9V130.5z"/>
<g>
	<defs>
		<rect id="SVGID_10_" x="70.4" y="86" width="314.6" height="379.6"/>
	</defs>
	<clipPath id="SVGID_11_">
		<use xlink:href="#SVGID_10_"  style="overflow:visible;"/>
	</clipPath>
	<g class="st24">
		<g>
			<g>
				<g>
					<path class="st25" d="M324.2,400.5c-19.9-14.6-57.1-27.1-82.9-27.8l0-0.4c25.9,0.7,63.2,13.1,83.1,27.8L324.2,400.5z"/>
				</g>
				<g>
					<path class="st25" d="M210,382.3l-0.1-0.3c12.3-5.4,21.1-16.8,26.2-33.8c4.7-15.8,5.4-33.3,5.6-45.2h0.4
						c-0.1,11.9-0.8,29.5-5.6,45.3C231.3,365.4,222.4,376.8,210,382.3z"/>
				</g>
				<g>
					<path class="st25" d="M316.9,324l-0.2-0.3c12.6-6.4,34.5-12,67.4-2.9l-0.1,0.3C351.3,312,329.4,317.6,316.9,324z"/>
				</g>
			</g>
		</g>
		<g>
			
				<linearGradient id="SVGID_12_" gradientUnits="userSpaceOnUse" x1="17141.8203" y1="3497.5425" x2="15990.6201" y2="3271.0425" gradientTransform="matrix(1 0 0 -1 0 465.8898)">
				<stop  offset="0" style="stop-color:#FFC444"/>
				<stop  offset="1" style="stop-color:#F36F56"/>
			</linearGradient>
			<path class="st26" d="M286.6,264.2c-18.5,15.8-5.7,22.7,4,40.1L286.6,264.2z"/>
			<g>
				<g>
					<path class="st2" d="M221.6,326.4l-0.2-0.3c20-10.5,53.7-16.8,75-14.1l0,0.3C275.1,309.7,241.5,316,221.6,326.4z"/>
				</g>
				<g>
					<path class="st2" d="M201.4,348.2l-0.3-0.2c7-9.4,9.1-21.9,6.1-37.4c-2.2-11.3-7-23.8-14.3-37.3l0.3-0.2
						c7.3,13.5,12.2,26,14.4,37.4C210.6,326.1,208.5,338.8,201.4,348.2z"/>
				</g>
				<g>
					<path class="st2" d="M258.6,257.5l-0.3-0.2L258.6,257.5z"/>
				</g>
			</g>
		</g>
		<g>
			<g>
				<path class="st2" d="M321.2,311.4l0,0.2L321.2,311.4z"/>
			</g>
			<g>
				<path class="st2" d="M239.3,413.7l-0.4-0.1c1.1-7.1-0.2-19.6-11.9-38.5c-0.6-1-0.6-1-0.6-1.1l0.2,0.1l0.2-0.1
					c0,0.1,0.3,0.5,0.5,0.9C239.2,394,240.4,406.5,239.3,413.7z"/>
			</g>
		</g>
		<path class="st19" d="M189,347l43.8-1.5v3.5l-43.8,1.5V347z"/>
		<path class="st19" d="M189,340l43.8-1.4v3.5l-43.8,1.4V340z"/>
		<path class="st19" d="M189,333l43.8-1.2v3.5l-43.8,1.3V333z"/>
		<path class="st27" d="M249.8,265.2c0.3-1.5,0.7-4.7-0.6-8.3c-2.5-6.9-9.7-10.2-10.2-9.6c-0.3,0.3,1,2.1,1.6,2.9
			c1.3,1.6,1.9,1.6,2.2,2.4c0.6,1.8-1.9,2.8-2.3,5.7c-0.3,2,0.6,4.4,2.3,5.9C245.8,266.7,249.7,265.2,249.8,265.2z"/>
		<path class="st28" d="M245.2,267.1l6.4-4.5c0,0,20.5,30.4,65.3,30.6l-7.2,32.7C309.7,325.9,264,329.1,245.2,267.1z"/>
		<path class="st29" d="M212.1,379.4l-22.7-53.1c-0.3-0.6-0.4-1.3-0.4-2c0-0.7,0.2-1.3,0.5-1.9c0.3-0.6,0.7-1.1,1.3-1.6
			c0.5-0.4,1.1-0.7,1.8-0.9l41.5-10.1c1.1-0.3,2.2-0.1,3.2,0.4c1,0.5,1.8,1.4,2.2,2.4l20.8,51c0.2,0.6,0.4,1.2,0.3,1.9
			c0,0.6-0.2,1.3-0.4,1.9c-0.3,0.6-0.7,1.1-1.2,1.5s-1.1,0.7-1.7,0.9L217.8,382c-1.1,0.3-2.3,0.3-3.3-0.2
			C213.4,381.3,212.6,380.4,212.1,379.4z"/>
		<path class="st30" d="M239.4,363.3c-5-12.1-22.1-12.1-28.4-22.6c-5.4-8.4,6.7-15.9,8.8-25.5c0,0,0,0,0-0.1l-24.8,6
			c-0.6,0.1-1.2,0.4-1.7,0.8c-0.5,0.4-0.9,0.9-1.2,1.5c-0.3,0.6-0.4,1.2-0.5,1.8c0,0.6,0.1,1.3,0.4,1.8l21.2,49.6
			c0.4,1,1.2,1.8,2.2,2.2c1,0.5,2.1,0.5,3.1,0.2l21.2-6.5C239.5,369.8,240.2,366.2,239.4,363.3z"/>
		
			<linearGradient id="SVGID_13_" gradientUnits="userSpaceOnUse" x1="-15360.5703" y1="-27927.7637" x2="-17763.8711" y2="-32259.2637" gradientTransform="matrix(1 0 0 -1 0 465.8898)">
			<stop  offset="0" style="stop-color:#FFC444"/>
			<stop  offset="1" style="stop-color:#F36F56"/>
		</linearGradient>
		<path class="st31" d="M200.1,362.2l-0.7-6.3l-3.6-6.9c-0.5-0.9-0.7-2-0.7-3v-6.8l4.4,10.1c0,0,2.9-2.6,3.9-3.1
			c1.1-0.5,1,1.6,0.1,2.4c-0.8,0.8,0.4,7.5-0.4,8.2l0.3,4.1L200.1,362.2z"/>
		<path class="st28" d="M236.1,323c3.4-8.3,10.6-13,14.4-15.5c8.9-5.8,14.6-4.8,35.1-7.9c27.3-4.2,30.5-8.1,39.7-4.9
			c12,4.2,18.3,15.1,21.2,20.1c14.5,25.3-2.5,38.1,1.9,88.4c1.8,20.5,6.3,38.4-4.6,49c-2.3,2.2-4.9,3.4-10.1,5.7
			c-20.5,9.2-38.9,7.6-50,6.5c-12.3-1.2-18.5-1.9-21.8-6.3c-5.2-6.9,0.2-15.8,1.1-31c0.7-11-1.8-19.6-6.8-37
			C244.6,349.9,229.6,338.9,236.1,323z"/>
		
			<linearGradient id="SVGID_14_" gradientUnits="userSpaceOnUse" x1="278.6967" y1="193.6427" x2="292.7425" y2="159.585" gradientTransform="matrix(1 0 0 -1 0 465.8898)">
			<stop  offset="0" style="stop-color:#FFC444"/>
			<stop  offset="1" style="stop-color:#F36F56"/>
		</linearGradient>
		<path class="st32" d="M280.3,284.1c-1.2-4.4,0.9-8.5,1.4-9.4c2-3.7,2.5-4.2,3.5-4.8l1.3-0.8c0,0,0.1,0,0.2-0.1
			c0.9-0.3,3.8-0.4,4.3-0.3c1.9,0.4,3.9,8.1,3.3,18.9c0.1,0.4,0.2,0.8,0.2,1.2c0.3,1.7,0.5,3.4,0.7,5c0.2,1.6,2.4,1.5,4,1.4
			c6.4-0.4,9.5,0.1,9.8,1.1c0.5,1.8-7.1,7.6-16.4,8.9c-12.6,0.1-22.8-1.2-21.7-3.2c0.5-0.9,10.2-3.4,13-5.9c2.5-2.3,2.3-4.7,2.5-6.4
			C285.6,289.4,281.2,287.4,280.3,284.1z"/>
		
			<linearGradient id="SVGID_15_" gradientUnits="userSpaceOnUse" x1="29590.6094" y1="-51133.9805" x2="34413.3086" y2="-59582.7813" gradientTransform="matrix(1 0 0 -1 0 465.8898)">
			<stop  offset="0" style="stop-color:#444B8C"/>
			<stop  offset="1" style="stop-color:#26264F"/>
		</linearGradient>
		<path class="st33" d="M282.6,266c0,3.4,1.6,6.9,2.4,7.5c0.5,0.4,0.9,0.8,1.2,1.3c0.1,0.1,0.1,0.3,0.2,0.4c0.7,2.1-2.6,4.6-2,5.6
			c0.5,0.7,2.8-0.2,3,0.4c0.3,0.6-1.6,1.7-1.4,2.4c0.2,0.5,1.4,0,2.1,0.8c0.4,0.4,0.3,0.7,0.6,1.9c0.2,0.6,0.5,1.2,0.8,1.8
			c1.2,2,4.4,2.7,5.1,1.9c0.2-0.2,0-0.4,0.2-1.1c0.1-0.5,0.4-1,0.6-1.5c0.7-1.1,2.3-1.9,4-3.1c3.1-2.2,3.9-4.1,4.1-4.7
			c0.1-0.2,0.1-0.4,0.2-0.5c0.8-2.5,0.8-6.1-0.3-8.3c-1.9-3.7-6.1-2-9.5-5.7"/>
		
			<linearGradient id="SVGID_16_" gradientUnits="userSpaceOnUse" x1="285.0158" y1="185.6835" x2="286.9928" y2="182.412" gradientTransform="matrix(1 0 0 -1 0 465.8898)">
			<stop  offset="0" style="stop-color:#FFC444"/>
			<stop  offset="1" style="stop-color:#F36F56"/>
		</linearGradient>
		<path class="st34" d="M285.6,280c0.8-1.1,2.3-0.1,2.3,1.4c0,1.5-1.4,3-2.8,2.7C283.7,283.8,284.5,281.5,285.6,280z"/>
		
			<linearGradient id="SVGID_17_" gradientUnits="userSpaceOnUse" x1="14721.7578" y1="-20369.3887" x2="17893.2578" y2="-24883.6895" gradientTransform="matrix(1 0 0 -1 0 465.8898)">
			<stop  offset="0" style="stop-color:#444B8C"/>
			<stop  offset="1" style="stop-color:#26264F"/>
		</linearGradient>
		<path class="st35" d="M286.3,277.5l-1.9,2.5c0,0-2.1,3-3.3,1.4c-1-1.4-1.2-1.3-1.3-1.3c0,0,0,0,0,0c0,0,0.1-0.7,0.3-1.3
			c-0.7,1.1-1.3,2.3-1.6,3.5c-0.4,1.5-0.9,3.2,0,4.8c0,0.1,1,1.8,2.8,2.2c0,0,0.7,0.2,3.7-0.4c0,0-3.3-2.4-3.3-2.9
			c-0.1-1.5,2-2.4,3.6-5.5C285.7,279.6,286.1,278.6,286.3,277.5z"/>
		<path class="st28" d="M198.9,361l6-2.6c3.4,3.4,7.7,6.8,11.3,5.7c5.4-1.6,4-11.5,10.6-29c7.4-19.7,15.9-24.8,20.1-26.7
			c2.4-1,4-1.7,6-1.2c9.1,2.2,12.1,25.8,9.5,43.5c-1.4,10-4.2,29.5-20.3,38.8c-2.3,1.3-14.8,8.6-27.2,2.9
			C204.3,387.5,197.8,375,198.9,361z"/>
	</g>
</g>
</svg>
