<svg width="529" height="490" xmlns="http://www.w3.org/2000/svg" xmlns:xlink="http://www.w3.org/1999/xlink" overflow="hidden"><defs><clipPath id="clip0"><rect x="334" y="110" width="529" height="490"/></clipPath><clipPath id="clip1"><rect x="508" y="137" width="115" height="125"/></clipPath><clipPath id="clip2"><rect x="508" y="137" width="115" height="125"/></clipPath><clipPath id="clip3"><rect x="508" y="137" width="115" height="125"/></clipPath></defs><g clip-path="url(#clip0)" transform="translate(-334 -110)"><g clip-path="url(#clip1)"><g clip-path="url(#clip2)"><g clip-path="url(#clip3)"><path d="M30.2755 1.00752 60.551 22.0633 48.9868 56.1325 11.5642 56.1325 0 22.0633 30.2755 1.00752ZM30.2755 124.201 0 103.145 11.5642 69.0758 48.9868 69.0758 60.551 103.145 30.2755 124.201ZM115 80.8854 79.4085 91.9544 57.4111 62.9738 79.4075 33.9938 115 45.0637 115 80.8854Z" fill="#143A56" transform="matrix(1 0 0 1.00334 508 137)"/></g></g></g><path d="M644 398.874 644 407.599C644 410.88 646.573 413.57 649.757 413.61L662.11 413.765C663.169 421.564 665.266 429.054 668.262 436.088L657.197 442.353C654.418 443.926 653.466 447.551 655.069 450.457L659.343 458.207C660.955 461.131 664.535 462.247 667.343 460.692L678.785 454.357C683.436 460.58 688.904 466.206 695.044 471.069L688.183 482.763C686.525 485.59 687.509 489.354 690.385 491.179L698.074 496.06C700.981 497.907 704.71 497.106 706.399 494.265L713.468 482.369C720.548 485.626 728.154 488.02 736.151 489.386L736.151 503.824C736.151 507.262 738.979 510.218 742.476 510.427L751.837 510.988C755.38 511.2 758.26 508.555 758.26 505.079L758.26 490.482C766.5 489.901 774.46 488.215 781.982 485.56L789.601 498.654C791.438 501.81 795.515 503.082 798.716 501.484L807.277 497.211C810.515 495.596 811.627 491.702 809.754 488.524L802.074 475.487C808.942 470.88 815.134 465.345 820.458 459.046L833.78 466.776C837.1 468.702 841.361 467.788 843.291 464.723L848.44 456.545C850.382 453.459 849.229 449.403 845.87 447.496L832.698 440.014C836.235 432.523 838.724 424.454 839.983 415.978L854.906 416.163C858.818 416.212 862 413.291 862 409.636L862 399.919C862 396.266 858.818 393.298 854.906 393.291L840.369 393.267C839.381 384.588 837.11 376.287 833.75 368.543L845.868 361.832C849.227 359.971 850.38 355.933 848.438 352.82L843.289 344.569C841.359 341.476 837.098 340.501 833.778 342.381L822.066 349.011C816.7 342.206 810.365 336.203 803.277 331.189L809.752 320.291C811.625 317.14 810.513 313.229 807.275 311.567L798.716 307.173C795.513 305.531 791.436 306.744 789.599 309.874L783.351 320.528C775.428 317.486 767.002 315.519 758.26 314.791L758.26 303.008C758.26 299.532 755.379 296.846 751.837 297.007L742.476 297.435C738.977 297.594 736.151 300.512 736.151 303.95L736.151 315.604C727.672 316.946 719.631 319.448 712.192 322.916L706.401 313.086C704.713 310.221 700.983 309.368 698.076 311.172L690.387 315.947C687.51 317.733 686.527 321.483 688.185 324.331L693.963 334.261C687.644 339.345 682.065 345.256 677.39 351.81L667.345 346.107C664.537 344.511 660.957 345.577 659.345 348.478L655.071 356.168C653.47 359.051 654.42 362.688 657.199 364.303L667.369 370.205C664.527 377.377 662.617 385.009 661.789 392.961L649.759 392.939C646.573 392.936 644 395.593 644 398.874ZM685.731 402.175C685.731 368.864 712.76 341.202 747.147 340.365 782.742 339.497 812.529 367.522 812.529 402.987 812.529 438.451 782.742 466.094 747.147 464.772 712.76 463.496 685.731 435.488 685.731 402.175Z" fill="#BFC8D6" fill-rule="evenodd"/><path d="M787 307.269 795.181 307 798 314 787 307.269Z" fill="#BFC8D6" fill-rule="evenodd"/><path d="M702 310 692 310.107 692 318 702 310Z" fill="#BFC8D6" fill-rule="evenodd"/><path d="M664 346 654 346.336 656.499 351 664 346Z" fill="#BFC8D6" fill-rule="evenodd"/><path d="M649 393 639 393.842 642.268 399 649 393Z" fill="#BFC8D6" fill-rule="evenodd"/><path d="M665 461.598 655.2 463 654 455 665 461.598Z" fill="#BFC8D6" fill-rule="evenodd"/><path d="M702 496.523 693.661 498 693 492 702 496.523Z" fill="#BFC8D6" fill-rule="evenodd"/><path d="M746 512 753 510.66 746.974 501 746 512Z" fill="#BFC8D6" fill-rule="evenodd"/><path d="M788 504 797 502.009 790.054 493 788 504Z" fill="#BFC8D6" fill-rule="evenodd"/><path d="M839 342 829 342.287 832.958 349 839 342Z" fill="#BFC8D6" fill-rule="evenodd"/><path d="M857 415.735 849 417 849.637 410 857 415.735Z" fill="#BFC8D6" fill-rule="evenodd"/><path d="M839 467.527 830.679 469 830 463 839 467.527Z" fill="#BFC8D6" fill-rule="evenodd"/><path d="M634 399.825 634 408.632C634 411.943 636.598 414.662 639.811 414.701L652.277 414.857C653.345 422.73 655.462 430.289 658.486 437.389L647.32 443.712C644.514 445.3 643.555 448.958 645.171 451.891L649.485 459.715C651.112 462.667 654.725 463.793 657.56 462.222L669.107 455.828C673.801 462.108 679.318 467.786 685.515 472.695L678.591 484.499C676.919 487.351 677.91 491.15 680.813 492.993L688.573 497.921C691.507 499.784 695.27 498.976 696.975 496.107L704.107 484.1C711.252 487.387 718.927 489.804 726.998 491.185L726.998 505.758C726.998 509.229 729.851 512.213 733.38 512.424L742.828 512.988C746.404 513.201 749.311 510.531 749.311 507.022L749.311 492.29C757.626 491.703 765.659 490.003 773.249 487.323L780.936 500.539C782.79 503.725 786.906 505.009 790.136 503.396L798.776 499.083C802.043 497.454 803.166 493.522 801.275 490.315L793.524 477.156C800.456 472.506 806.705 466.918 812.076 460.56L825.52 468.364C828.872 470.309 833.171 469.385 835.119 466.291L840.315 458.035C842.276 454.92 841.111 450.826 837.721 448.901L824.43 441.35C827.999 433.789 830.509 425.644 831.781 417.088L846.84 417.276C850.789 417.324 854 414.375 854 410.688L854 400.882C854 397.195 850.789 394.199 846.84 394.192L832.171 394.166C831.174 385.406 828.884 377.027 825.493 369.212L837.724 362.439C841.112 360.562 842.276 356.484 840.316 353.341L835.121 345.012C833.173 341.89 828.873 340.908 825.522 342.805L813.704 349.497C808.287 342.628 801.894 336.571 794.742 331.51L801.277 320.51C803.167 317.329 802.045 313.382 798.777 311.705L790.138 307.27C786.908 305.611 782.792 306.836 780.938 309.996L774.633 320.749C766.637 317.679 758.135 315.693 749.313 314.958L749.313 303.064C749.313 299.556 746.404 296.845 742.83 297.007L733.382 297.438C729.853 297.6 727 300.543 727 304.013L727 315.778C718.443 317.133 710.33 319.657 702.82 323.157L696.977 313.236C695.273 310.343 691.509 309.482 688.575 311.305L680.815 316.122C677.912 317.924 676.92 321.711 678.593 324.587L684.422 334.61C678.045 339.74 672.415 345.707 667.697 352.322L657.56 346.564C654.725 344.955 651.112 346.029 649.485 348.957L645.171 356.721C643.555 359.632 644.514 363.303 647.32 364.932L657.584 370.888C654.716 378.125 652.787 385.831 651.952 393.856L639.813 393.835C636.598 393.831 634 396.512 634 399.825ZM676.116 403.156C676.116 369.533 703.394 341.612 738.094 340.767 774.016 339.893 804.078 368.179 804.078 403.975 804.078 439.77 774.016 467.672 738.094 466.338 703.392 465.05 676.116 436.781 676.116 403.156Z" fill="#CFD5E0" fill-rule="evenodd"/><path d="M580.56 178.391 625.923 554.973C626.603 560.62 622.707 565.681 617.248 566.222L428.308 586.94C416.735 587.66 410.397 581.753 409.684 575.748L362.059 175.378C361.35 169.407 367.027 164 378.651 164L569.309 168.011C574.826 168.104 579.884 172.775 580.56 178.391Z" fill="#444B8C" fill-rule="evenodd"/><path d="M588.33 177.77 633.923 556.163C634.605 561.837 630.697 566.924 625.222 567.468L429.429 586.944C423.291 587.554 417.665 583.118 416.947 577.083L369.075 174.721C368.36 168.72 372.868 163.898 379.074 164.002L577.037 167.339C582.577 167.432 587.651 172.127 588.33 177.77Z" fill="#008080" fill-rule="evenodd"/><path d="M582.545 196.671 624.928 547.527C625.567 552.828 621.897 557.571 616.757 558.068L432.08 575.95C426.357 576.505 421.112 572.364 420.442 566.746L376.07 195.048C375.403 189.46 379.601 184.94 385.382 185.001L571.956 186.98C577.149 187.037 581.909 191.396 582.545 196.671Z" fill="#FFFFFF" fill-rule="evenodd" fill-opacity="0.431373"/><path d="M485.975 177.546C486.205 179.477 484.835 181.023 482.917 181 480.996 180.975 479.253 179.386 479.025 177.452 478.796 175.517 480.171 173.971 482.091 174 484.008 174.027 485.746 175.614 485.975 177.546Z" fill="#FFC444" fill-rule="evenodd"/><path d="M553.291 434.151C515.49 364.522 459.018 343.682 442.015 271.922 432.826 233.133 439.087 196.007 449.634 165.187L379.102 164.002C372.879 163.898 368.358 168.72 369.075 174.721L417.08 577.083C417.8 583.118 423.442 587.554 429.598 586.944L583.939 571.636C585.079 509.244 570.142 465.188 553.291 434.151Z" fill="#008080" fill-rule="evenodd"/><path d="M448.821 250.009C450.351 263.468 441.903 274.661 429.88 274.993 417.778 275.325 406.683 264.537 405.171 250.916 403.663 237.319 412.296 226.173 424.38 226.002 436.385 225.832 447.294 236.572 448.821 250.009Z" fill="#BFC8D6" fill-rule="evenodd"/><path d="M578.8 247.555C580.343 260.193 572.803 270.695 561.894 270.993 550.915 271.294 540.723 261.161 539.193 248.375 537.666 235.613 545.37 225.155 556.333 225.002 567.228 224.847 577.257 234.936 578.8 247.555Z" fill="#BFC8D6" fill-rule="evenodd"/><path d="M502.789 225.001 480.105 225.315C475.638 225.378 472.485 229.517 473.07 234.563L476.147 261.034C476.736 266.102 480.847 270.115 485.32 269.997L508.036 269.399C512.441 269.282 515.521 265.124 514.927 260.111L511.818 233.925C511.227 228.936 507.188 224.941 502.789 225.001Z" fill="#BFC8D6" fill-rule="evenodd"/><path d="M524.802 327.074C526.392 340.252 518.222 351.408 506.485 351.978 494.672 352.549 483.761 342.189 482.19 328.854 480.62 315.541 488.968 304.428 500.767 304.012 512.486 303.599 523.215 313.917 524.802 327.074Z" fill="#BFC8D6" fill-rule="evenodd"/><path d="M588.792 324.089C590.386 337.27 582.668 348.42 571.488 348.978 560.238 349.539 549.78 339.174 548.201 325.839 546.624 312.526 554.509 301.419 565.746 301.012 576.911 300.606 587.198 310.932 588.792 324.089Z" fill="#BFC8D6" fill-rule="evenodd"/><path d="M445.371 305.005 421.518 305.847C416.821 306.013 413.48 310.369 414.067 315.581L417.148 342.921C417.738 348.154 422.04 352.217 426.744 351.991L450.632 350.847C455.263 350.625 458.526 346.247 457.93 341.073L454.812 314.036C454.221 308.886 449.997 304.842 445.371 305.005Z" fill="#BFC8D6" fill-rule="evenodd"/><path d="M466.816 410.064C468.368 423.502 459.942 435.099 447.923 435.951 435.824 436.807 424.709 426.463 423.176 412.859 421.645 399.28 430.259 387.724 442.34 387.032 454.34 386.345 465.266 396.648 466.816 410.064Z" fill="#BFC8D6" fill-rule="evenodd"/><path d="M521.446 381.012 498.25 382.357C493.682 382.621 490.464 387.103 491.074 392.369L494.268 419.993C494.88 425.28 499.092 429.306 503.667 428.982L526.894 427.334C531.398 427.015 534.54 422.517 533.923 417.287L530.695 389.969C530.081 384.761 525.944 380.752 521.446 381.012Z" fill="#BFC8D6" fill-rule="evenodd"/><path d="M585.852 378.011 563.832 379.277C559.496 379.526 556.469 383.819 557.078 388.869L560.276 415.355C560.889 420.424 564.912 424.29 569.254 423.983L591.302 422.433C595.578 422.133 598.537 417.822 597.918 412.807L594.692 386.609C594.076 381.615 590.123 377.767 585.852 378.011Z" fill="#BFC8D6" fill-rule="evenodd"/><path d="M542.801 485.089C544.376 498.786 536.42 510.802 524.958 511.917 513.423 513.038 502.751 502.695 501.191 488.834 499.635 474.996 507.769 463.015 519.288 462.06 530.733 461.113 541.229 471.417 542.801 485.089Z" fill="#BFC8D6" fill-rule="evenodd"/><path d="M463.321 466.024 439.495 467.966C434.804 468.349 431.474 473.051 432.069 478.474L435.195 506.914C435.794 512.357 440.097 516.412 444.796 515.967L468.657 513.704C473.282 513.265 476.532 508.546 475.928 503.164L472.766 475.048C472.165 469.685 467.94 465.647 463.321 466.024Z" fill="#BFC8D6" fill-rule="evenodd"/><path d="M594.828 456.021 572.821 457.783C568.489 458.131 565.465 462.547 566.079 467.652L569.299 494.423C569.916 499.548 573.941 503.375 578.279 502.971L600.314 500.918C604.587 500.519 607.539 496.087 606.917 491.018L603.67 464.539C603.05 459.491 599.096 455.679 594.828 456.021Z" fill="#BFC8D6" fill-rule="evenodd"/><path d="M609.011 110 489.083 110C486.784 110 484.57 110.394 482.462 110.867 482.396 110.881 482.335 110.974 482.271 110.99 482.29 110.858 482.311 110.761 482.33 110.623 468.77 113.628 459.669 125.779 461.159 140.264L461.195 140.634 467.492 201.856 473.788 263.078 473.824 263.439C475.542 280.142 490.781 292.901 507.7 291.95L626.714 285.272C631.949 284.978 636.686 283.256 640.608 280.493 648.338 275.062 652.908 265.6 651.848 255.107L640.135 138.84C638.54 122.997 624.667 110 609.011 110Z" fill="#4B6070" fill-rule="evenodd"/><path d="M638.729 138.688 649.851 254.279C650.855 264.717 646.727 274.156 639.402 279.558 635.687 282.305 631.399 284.025 626.439 284.316L513.68 290.951C497.652 291.892 482.765 279.231 481.135 262.62L469.147 140.477C467.733 126.07 476.67 113.853 489.515 110.861 491.511 110.392 493.831 110 496.009 110L609.634 110C624.468 110 637.212 122.93 638.729 138.688Z" fill="#D9E3E8" fill-rule="evenodd" fill-opacity="0.478431"/><path d="M649 279.727C645.098 282.477 640.361 284.045 635.153 284.337L516.706 290.95C499.869 291.89 484.459 279.509 482.746 262.869L470.156 140.517C468.67 126.086 477.96 113.995 491.454 111 491.276 112.234 491.229 113.157 491.194 113.632 490.497 123.39 492.243 133.696 497.541 142.677 507.875 160.2 526.615 164.509 543.873 170.786 562.324 177.49 582.03 192.519 588.531 211.379 591.364 219.602 591.463 228.338 593.525 236.686 599.704 261.756 616.782 282.275 643.578 280.38 645.338 280.25 647.156 279.988 649 279.727Z" fill="#D9E3E8" fill-rule="evenodd" fill-opacity="0.301961"/><path d="M350.172 575.185C349.356 574.718 347.984 575.241 347.088 575.584 346.687 575.737 346.486 575.815 346.37 575.93 345.518 576.78 346.268 578.995 347.299 582.544 348.928 588.15 349.182 589.933 350.057 589.998 350.878 590.06 351.59 588.565 351.668 588.397 352.086 587.499 352.041 586.673 351.902 585.106 351.645 582.207 351.375 580.294 351.294 579.715 350.784 576.099 350.709 575.491 350.172 575.185Z" fill="#444B8C" fill-rule="evenodd"/><path d="M356 576.872 350.739 580C350.414 579.979 348.898 578.609 349.005 576.894L353.839 573 356 576.872Z" fill="#FFC444" fill-rule="evenodd"/><path d="M413.907 468C415.845 475.412 418.047 486.037 418.752 498.96 419.337 509.671 418.862 521.498 417.585 527.929 411.183 560.151 360.697 577.078 354.747 579 353.499 577.305 352.248 575.61 351 573.915 357.288 569.192 388.001 545.4 388.308 518.905 388.357 514.641 387.675 505.429 385.904 495.588 384.009 485.059 381.355 476.522 379.237 470.6 390.794 469.734 402.349 468.867 413.907 468Z" fill="#141F38" fill-rule="evenodd"/><path d="M408 377 412.485 377.893C412.485 377.893 436.036 407.772 432.671 419.144 429.306 430.518 412.485 421.821 412.485 421.821L408 377Z" fill="#133A56" fill-rule="evenodd"/><path d="M378.035 592.227C377.272 592.893 377.133 594.556 377.041 595.642 377 596.129 376.979 596.371 377.031 596.542 377.398 597.793 379.658 597.925 383.199 598.312 388.797 598.926 390.463 599.398 390.901 598.505 391.312 597.667 390.317 596.293 390.207 596.144 389.606 595.329 388.867 595.034 387.44 594.529 384.798 593.596 383.015 593.084 382.474 592.928 379.101 591.964 378.536 591.79 378.035 592.227Z" fill="#444B8C" fill-rule="evenodd"/><path d="M381.441 587 382 594.155C381.841 594.499 379.946 595.538 378.439 594.648L377 587.615 381.441 587Z" fill="#FFC444" fill-rule="evenodd"/><path d="M388 453.092C386.596 478.663 385.442 504.71 384.568 531.218 383.911 551.109 383.429 570.749 383.109 590.131 380.767 590.42 378.424 590.71 376.082 591 373.818 586.783 370.813 580.336 368.753 572.073 366.252 562.037 366.831 556.078 365.734 545.675 364.503 534.009 362.716 531.468 359.55 516.751 353.122 486.885 349.909 471.951 357.078 462.663 359.404 459.648 366.701 452.082 388 453.092Z" fill="#141F38" fill-rule="evenodd"/><path d="M355.823 377.913C361.874 376.214 370.739 374.227 381.599 373.616 397.611 372.712 405.62 372.313 410.319 375.986 424.896 387.38 411.081 428.106 416.277 449.506 420.647 467.511 420.808 467.825 420.808 467.825 421.841 469.838 423.515 472.635 422.847 475.967 422.321 478.588 420.336 481.6 417.635 482.526 412.026 484.451 408.81 475.499 399.508 472.801 389.784 469.98 378.905 475.583 365.148 482.672 356.394 487.183 353.405 490.059 350.338 488.632 344.43 485.883 346.052 470.812 346.711 464.658 349.333 440.206 352.281 411.578 355.823 377.913Z" fill="#133A56" fill-rule="evenodd"/><path d="M395.521 419.126C395.092 419.024 394.331 416.001 396.209 415.113 404.687 411.1 411.246 419.046 412.123 421.492 413 423.936 413 423.936 413 423.936 413 423.936 408.789 424.285 406.18 423.355 403.568 422.422 399.002 419.951 395.521 419.126Z" fill="#FFC444" fill-rule="evenodd"/><path d="M418.462 429.256 404.09 429.999C403.541 430.026 402.883 429.328 403.018 428.853L409.731 406.596C409.837 406.226 410.205 405.978 410.613 406.001L424.396 406.31C424.844 406.339 425.091 407.243 424.969 407.691L419.259 428.62C419.165 428.967 418.824 429.239 418.462 429.256Z" fill="#444B8C" fill-rule="evenodd"/><path d="M418.396 429.307 403.834 429.999C403.276 430.025 402.89 429.62 403.028 429.147L409.533 406.592C409.64 406.222 410.012 405.976 410.427 406.002L424.335 406.835C424.79 406.863 425.096 407.305 424.972 407.754L419.203 428.675C419.108 429.02 418.763 429.29 418.396 429.307Z" fill="#B4BDC6" fill-rule="evenodd"/><path d="M411.231 415.857C411.673 417.909 413.537 417.466 415.056 419.95 416.987 423.102 415.136 425.884 416.907 427.039 417.447 427.392 418.359 427.603 420 427.179L419.578 428.676C419.48 429.02 419.129 429.291 418.753 429.308L403.853 429.999C403.283 430.025 402.888 429.62 403.029 429.147L409.685 406.593C409.795 406.222 410.175 405.976 410.6 406.002L412.737 406.127C412.987 406.902 413.168 407.797 413.147 408.789 413.081 412.188 410.714 413.455 411.231 415.857Z" fill="#FFFFFF" fill-rule="evenodd" fill-opacity="0.301961"/><path d="M424.98 413.835C425.061 413.452 424.889 413.055 424.632 413.035 423.585 412.95 421.157 412.917 419.817 414.206 418.076 415.885 415.824 418.942 417.72 420.487L419.491 421.93C419.572 421.997 419.661 422.017 419.75 421.985 420.38 421.767 423.027 420.846 423.316 420.616 423.58 420.407 424.589 415.696 424.98 413.835Z" fill="#FFC444" fill-rule="evenodd"/><path d="M383.43 361C383.441 362.233 384.74 367.877 380.65 370.874 376.522 373.898 372.688 373.852 371.141 374.242 367.552 375.142 367.091 375.117 367.011 375.477 366.624 377.232 376.408 383.221 386.516 381.778 392.702 380.895 398.33 377.326 397.985 375.45 397.636 373.565 391.459 374.577 389.617 371.163 388.335 368.79 389.771 365.418 391.469 362.628 389.825 359.511 385.074 364.115 383.43 361Z" fill="#FFC444" fill-rule="evenodd"/><path d="M394.945 359.588C396.36 357.662 396.413 354.323 394.733 352.233 393.289 350.436 391.044 350.201 389.699 350.06 385.806 349.652 380.916 351.333 379.25 354.936 378.262 357.07 380.499 361.459 380.851 362.249 381.249 363.141 381.955 363.442 382.614 364.113 383.526 365.043 384.954 366.525 387.286 369 387.457 368.26 387.719 367.342 388.141 366.347 388.303 365.964 388.955 364.468 389.954 363.221 391.951 360.726 393.603 361.413 394.945 359.588Z" fill="#461C04" fill-rule="evenodd"/><path d="M384.123 367.053C384.123 367.053 386.771 371.376 391.944 370.974 396.575 370.614 397.139 360.002 394.153 357.785 393.157 357.045 391.176 356.756 389.572 357.234 388.625 357.515 388.309 357.923 386.751 358.353 385.316 358.749 384.908 358.593 384.477 358.97 383.939 359.442 383.554 360.591 384.495 363.68 383.601 362.776 382.535 362.438 381.787 362.808 381.667 362.869 381.351 363.092 381.176 363.428 380.542 364.65 381.644 366.184 384.123 367.053Z" fill="#FFC444" fill-rule="evenodd"/><path d="M384.077 358.025C384.302 358.195 383.627 359.065 383.591 360.29 383.516 362.662 385.866 365.485 388.233 365.699 389.633 365.825 390.008 364.947 392.316 364.669 393.745 364.497 394.938 364.671 395.689 364.833 396.444 367.427 395.788 370.03 394.122 371.253 392.328 372.57 390.011 371.81 389.041 371.491 388.392 371.279 386.317 370.602 385.213 368.65 384.064 366.614 385.158 365.365 383.849 363.994 383.19 363.302 382.329 363.01 381.481 361.667 381.25 361.301 381.095 360.978 381 360.76 382.185 359.433 383.75 357.778 384.077 358.025Z" fill="#311944" fill-rule="evenodd"/><path d="M367.636 384.104C365.189 380.365 360.316 376.694 355.838 377.02 342.754 377.972 326.626 413.463 337.685 427.521 346.126 438.252 372.202 438.773 396 420.209 396 418.153 396 416.097 396 414.039 384.29 416.102 374.58 417.471 367.409 418.38 362.937 418.947 358.481 419.459 357.652 417.694 356.397 415.025 365.355 411.206 368.772 401.241 369.241 399.867 372.236 391.13 367.636 384.104Z" fill="#133A56" fill-rule="evenodd"/><path d="M687 599 591 592.882 591 447 687 449.757 687 599Z" fill="#405364" fill-rule="evenodd"/><path d="M772 591.864 687 599 687 449.752 772 448 772 591.864Z" fill="#4B6070" fill-rule="evenodd"/><path d="M591 446.903 682.828 443 772 447.896 686.543 451 591 446.903Z" fill="#405364" fill-rule="evenodd" fill-opacity="0.741176"/><path d="M698.435 373.342C696.198 371.878 698.236 367.622 698.357 358.478 698.505 347.272 695.556 345.185 697.924 340.787 700.82 335.412 708.107 333.186 712.937 333.083 714.002 333.059 714.25 332.471 723.173 334.805 739.247 339.008 743.27 334.502 750.469 339.002 757.425 343.351 754.379 348.111 761.132 353.212 772.078 361.477 783.59 352.542 791.413 359.456 798.813 365.996 798.983 382.657 791.2 391.751 782.376 402.059 766.465 398.962 755.8 396.917 753.556 396.487 742.224 394.084 730.424 385.292 723.897 380.428 719.414 375.231 716.563 371.405 715.894 370.645 714.849 369.724 713.471 369.575 711.816 369.396 710.488 370.418 709.846 370.866 706.479 373.218 700.63 374.779 698.435 373.342Z" fill="#461C04" fill-rule="evenodd"/><path d="M706.149 360.708C703.277 358.075 693.029 363.15 686.238 369.888 678.26 377.803 678.873 384.222 671.911 394.057 668.45 398.945 662.515 405.526 652 411.292 652.744 413.166 653.489 415.04 654.234 416.912 659.318 417.221 669.298 417.038 678.61 410.918 685.078 406.666 688.406 401.031 694.799 389.934 701.215 378.798 709.738 364.002 706.149 360.708Z" fill="#009999" fill-rule="evenodd"/><path d="M641.28 510.495 649.285 506 652.899 506C652.899 506 654.129 510.282 653.989 510.495 652.38 512.961 644.885 514.836 640.208 514.991 639.431 515.017 638.346 515.02 638.068 514.495 637.594 513.603 639.712 511.736 641.28 510.495Z" fill="#311944" fill-rule="evenodd"/><path d="M649.033 500C649.546 503.156 648.898 504.802 648.201 505.724 647.709 506.373 647.274 506.557 644.358 509.244 643.394 510.133 642.904 510.609 643.016 510.857 643.142 511.142 643.994 510.987 645.831 510.517 649.833 509.491 651.845 508.958 652.337 507.931 652.781 507.001 652.388 506.581 652.414 504.047 652.432 502.38 652.75 501.037 653 500.197 651.676 500.129 650.354 500.066 649.033 500Z" fill="#FFC444" fill-rule="evenodd"/><path d="M643.163 477.132C643.163 477.132 639.466 481.53 640.066 486.351 640.668 491.172 647.142 484.123 648.043 481.742 648.947 479.36 650 475.967 650 475.967 650 475.967 645.462 473.15 643.163 477.132Z" fill="#311944" fill-rule="evenodd"/><path d="M644.607 470C644.607 470 645.527 474.879 643.77 477.454 642.895 478.736 641.714 479.825 642.063 480.868 642.295 481.567 643.179 482.07 643.926 481.992 645.357 481.84 646.151 479.571 646.713 477.969 647.539 475.604 648 470.543 648 470.543L644.607 470Z" fill="#FFC444" fill-rule="evenodd"/><path d="M647.746 474C646.612 473.594 645.481 473.189 644.347 472.783 642.579 468.811 640.422 462.288 641.142 454.356 642.995 433.963 662.163 423.157 664.292 422 669.515 424.578 674.804 428.216 674.995 432.801 675.235 438.556 667.266 441.601 659.775 450.017 655.28 455.07 650.476 462.599 647.746 474Z" fill="#143A56" fill-rule="evenodd"/><path d="M648.658 503C644.936 488.529 645.887 476.721 646.96 469.919 648.584 459.637 651.885 438.724 665.915 430.924 668.979 429.22 673.359 427.695 678.697 422.961 683.155 419.007 685.988 414.849 687.698 411.919 706.461 406.442 723.768 408.661 731.404 418.677 732.287 419.834 734.495 422.345 734.923 426.046 735.888 434.398 727.643 444.452 718.391 446.55 706.633 449.217 699.812 437.202 689.394 441.2 686.48 442.319 684.009 445.089 679.069 450.633 672.784 457.684 669.249 464.19 667.913 466.793 663.933 474.544 660.914 480.267 660.474 487.684 660.371 489.412 660.31 492.903 658.277 496.666 656.717 499.556 654.6 501.482 653.026 502.673 651.569 502.781 650.114 502.891 648.658 503Z" fill="#143A56" fill-rule="evenodd"/><path d="M734.923 426.243C734.495 422.499 732.282 419.96 731.397 418.789 723.747 408.657 706.407 406.412 687.61 411.953 685.897 414.917 683.06 419.122 678.592 423.122 673.245 427.911 668.856 429.454 665.787 431.177 657.202 435.995 652.633 445.757 650 455 653.906 448.915 657.246 447.298 659.834 447.269 663.537 447.228 665.191 450.409 669.612 449.975 674.337 449.511 675.418 445.584 679.248 445.133 680.395 444.998 681.806 445.176 683.5 446.082 685.76 443.703 687.445 442.294 689.309 441.572 699.747 437.528 706.58 449.683 718.36 446.984 727.63 444.859 735.89 434.689 734.923 426.243Z" fill="#143A56" fill-rule="evenodd"/><path d="M659.002 437.749C661.096 437.635 664.32 437.57 668.211 437.96 686.671 439.811 691.759 449.078 707.016 451.34 710.625 451.874 726.694 454.255 733.654 444.828 738.651 438.059 737.895 426.397 732.429 421.809 730.116 419.867 727.827 419.921 713.012 420.058 707.434 420.108 701.853 420.128 696.275 420.199 672.662 420.505 668.146 418.844 663.849 422.808 661.847 424.661 658.914 428.632 659.002 437.749Z" fill="#143A56" fill-rule="evenodd"/><path d="M709.079 361.584C709.079 361.584 736.767 353.526 739.639 373.754 742.392 393.143 728.289 402.037 734.707 421.675 735.45 423.951 682 413.525 682 413.525 689.134 404.643 690.793 397.315 690.963 392.221 691.149 386.634 689.536 384.097 690.963 377.493 690.963 377.493 692.554 370.125 698.296 363.798 699.122 362.89 700.104 361.944 709.079 361.584Z" fill="#009999" fill-rule="evenodd"/><path d="M726.682 417C726.656 417 726.627 416.997 726.601 416.991 726.342 416.925 700.538 410.412 685.299 409.601 685.124 409.591 684.99 409.449 685.001 409.283 685.011 409.119 685.138 408.993 685.336 409 700.64 409.814 726.506 416.343 726.764 416.41 726.934 416.452 727.035 416.617 726.989 416.778 726.951 416.912 726.822 417 726.682 417Z" fill="#F4F7FA" fill-rule="evenodd"/><path d="M714.548 349C714.289 350.222 712.977 356.78 715.621 358.47 716.193 358.835 717.294 359.046 719.497 359.465 720.939 359.739 722.147 359.907 723 360.01 722.877 361.11 722.512 362.901 721.262 364.529 717.758 369.095 710.731 367.912 709.73 367.726 706.197 367.074 702.72 365.964 701.878 365.287 700.6 364.254 699.594 363.481 699 362.694 700.368 362.023 703.129 360.252 704.982 359.673 706.367 359.24 707.667 358.931 708.849 358.71 709.043 357.444 709.237 356.176 709.432 354.908 711.137 352.94 712.842 350.969 714.548 349Z" fill="#FFC444" fill-rule="evenodd"/><path d="M714.866 352.583C714.866 352.583 714.433 357.154 710.257 357.961 706.518 358.683 703.704 349.066 705.617 346.579 706.254 345.748 707.83 344.96 709.196 345.002 710.156 345.03 713.401 346.346 713.852 349.802 714.499 349.078 715.304 348.87 715.7 349.172 716.204 349.556 715.935 350.677 715.873 350.93 715.665 351.809 715.126 352.354 714.866 352.583Z" fill="#FFC444" fill-rule="evenodd"/><path d="M676.127 416 718.212 418.097C718.79 418.126 719.319 418.443 719.627 418.947L720.791 420.862C721.371 421.814 720.674 423.043 719.578 422.999L675 421.26 676.127 416Z" fill="#40447E" fill-rule="evenodd"/><path d="M631.523 392 675.596 392.867C676.899 392.893 678.093 393.614 678.739 394.763L694 422 647.455 420.12C646.178 420.069 645.011 419.366 644.355 418.254L630.215 394.292C629.612 393.271 630.35 391.977 631.523 392Z" fill="#008080" fill-rule="evenodd"/><path d="M678.914 394.906C678.278 393.76 677.097 393.044 675.807 393.019L674.851 393C674.709 394.435 674.277 395.749 673.417 396.81 670.731 400.12 666.266 398.077 662.94 401.581 659.286 405.429 662.662 410.009 659.394 413.591 655.955 417.36 650.394 414.292 644 416.703L644.921 418.273C645.57 419.38 646.722 420.079 647.985 420.13L694 422 678.914 394.906Z" fill="#141F38" fill-rule="evenodd" fill-opacity="0.301961"/><path d="M714.673 414.66C714.116 413.204 713.558 411.751 713 410.295 719.166 408.625 727.695 406.16 736.442 403.075 737.812 402.591 739.44 401.992 739.973 400.57 741.468 396.578 731.96 392.44 728.264 383.722 724.844 375.659 726.726 364.472 730.694 363.149 738.95 360.399 768.228 396.379 757.771 411.545 751.86 420.121 733.635 421.487 714.673 414.66Z" fill="#009999" fill-rule="evenodd"/><path d="M713.025 409.897C709.286 407.839 704.811 409.947 704.522 410.089 703.702 410.491 702.506 411.207 701.297 412.484 701.16 412.677 699.538 415.006 700.129 415.751 700.603 416.35 702.437 415.853 704.641 414.434 705.565 414.299 706.939 414.176 708.588 414.334 711.614 414.623 712.999 415.614 714.099 414.759 714.903 414.133 715.178 412.81 714.888 411.827 714.577 410.77 713.658 410.247 713.025 409.897Z" fill="#FFC444" fill-rule="evenodd"/></g></svg>