<svg width="1151" height="676" viewBox="0 0 1151 676" fill="none" xmlns="http://www.w3.org/2000/svg">
<path opacity="0.1" d="M1119.63 627.5C1118.55 628.29 1117.44 629.05 1116.32 629.8C1112.19 632.57 1107.88 635.059 1103.41 637.25C1079.95 648.95 1051.05 654.66 1022.89 658.54C959.74 667.26 895.26 668.95 831.05 670.61C657.58 675.12 483.65 679.61 310.62 669.23C242.26 665.13 172.37 658.23 110.41 637.23C101.537 634.223 92.8299 630.91 84.2899 627.29C67.0299 619.94 50.4499 611.01 36.6599 600.37C23.6599 590.37 13.1999 578.87 6.9199 565.81C-6.1801 538.59 0.749896 508.02 15.6999 481.35C21.9489 470.527 28.9669 460.167 36.6999 450.35C48.2199 435.33 60.9299 420.78 72.5499 405.78C113.87 352.36 140.83 284.89 102.69 230.17C91.6899 214.45 75.8799 200.65 66.9499 184.24C55.5399 163.24 56.4299 139.93 60.0599 117.24C60.5199 114.38 61.0599 111.54 61.5499 108.7C67.7799 75.13 79.3799 38.95 115.29 17.99C152.59 -3.78998 205.54 -2.68999 251.85 5.10001C323.85 17.22 390.27 42.53 457.34 65.39C524.41 88.25 594.66 109.13 668.42 111.39C733.54 113.39 809.51 98.52 852.73 59.93C894.73 22.45 973.63 19.6 1030.53 42.24C1069.53 57.78 1098.68 85.77 1110.97 117.24C1113.45 123.541 1115.25 130.093 1116.32 136.78C1117.32 142.869 1117.65 149.049 1117.32 155.21C1117.15 158.21 1116.82 161.26 1116.32 164.21C1106.82 226.34 1038.41 275.34 996.83 330.84C976.51 357.95 962.16 390.51 976.13 419.74C997.44 464.28 1071.55 480.11 1116.32 513.27C1124.68 519.237 1132.1 526.432 1138.32 534.61C1159.97 564.13 1151.96 603.97 1119.63 627.5Z" fill="#00BFA6"/>
<path opacity="0.1" d="M537.69 659.86C686.608 659.86 807.33 655.759 807.33 650.7C807.33 645.641 686.608 641.54 537.69 641.54C388.772 641.54 268.05 645.641 268.05 650.7C268.05 655.759 388.772 659.86 537.69 659.86Z" fill="#00BFA6"/>
<path d="M751.92 644.6C751.92 644.6 809.92 571.13 805.43 498.1C803.54 467.44 811.09 436.92 827.96 411.25C835.985 399.089 845.11 387.691 855.22 377.2" stroke="#535461" stroke-width="2" stroke-miterlimit="10"/>
<path d="M852.65 331.15C848.55 341.37 855.14 378.41 855.14 378.41C855.14 378.41 885.53 356.22 889.63 346.01C890.606 343.58 891.093 340.983 891.065 338.365C891.037 335.747 890.493 333.16 889.465 330.752C888.437 328.344 886.945 326.163 885.074 324.331C883.203 322.5 880.989 321.056 878.56 320.08C876.131 319.104 873.533 318.616 870.915 318.645C868.297 318.673 865.71 319.217 863.302 320.245C860.894 321.272 858.713 322.765 856.882 324.636C855.05 326.507 853.606 328.72 852.63 331.15H852.65Z" fill="#00BFA6"/>
<path d="M799.36 375.44C801.47 386.24 827.14 413.75 827.14 413.75C827.14 413.75 840.59 378.61 838.48 367.81C837.414 362.675 834.368 358.167 830.001 355.263C825.633 352.359 820.298 351.294 815.15 352.298C810.003 353.302 805.459 356.294 802.503 360.626C799.547 364.958 798.418 370.281 799.36 375.44V375.44Z" fill="#00BFA6"/>
<path d="M761.87 472.64C769.14 480.9 805.18 491.64 805.18 491.64C805.18 491.64 799.05 454.52 791.78 446.26C790.051 444.296 787.952 442.692 785.604 441.539C783.255 440.386 780.702 439.707 778.091 439.541C775.48 439.375 772.861 439.725 770.385 440.57C767.909 441.416 765.624 442.741 763.66 444.47C761.696 446.199 760.092 448.298 758.939 450.646C757.786 452.995 757.107 455.548 756.941 458.159C756.775 460.771 757.125 463.389 757.97 465.865C758.816 468.341 760.141 470.626 761.87 472.59V472.64Z" fill="#00BFA6"/>
<path d="M750.05 552.57C755.82 561.94 789.53 578.67 789.53 578.67C789.53 578.67 789.76 541.04 783.99 531.67C782.628 529.421 780.834 527.463 778.712 525.911C776.589 524.358 774.181 523.24 771.625 522.623C769.069 522.005 766.416 521.899 763.819 522.311C761.222 522.724 758.732 523.646 756.493 525.024C754.254 526.403 752.31 528.212 750.773 530.345C749.236 532.479 748.136 534.895 747.537 537.456C746.938 540.016 746.852 542.67 747.283 545.264C747.714 547.858 748.655 550.341 750.05 552.57Z" fill="#00BFA6"/>
<path d="M865.22 431.33C855.03 435.5 817.95 429.16 817.95 429.16C817.95 429.16 839.95 398.62 850.11 394.45C854.982 392.54 860.41 392.624 865.221 394.682C870.032 396.74 873.841 400.608 875.825 405.45C877.809 410.292 877.809 415.72 875.824 420.562C873.84 425.404 870.031 429.272 865.22 431.33V431.33Z" fill="#00BFA6"/>
<path d="M850.22 524.63C839.22 525.57 805.76 508.42 805.76 508.42C805.76 508.42 835.87 485.86 846.83 484.92C849.462 484.651 852.12 484.908 854.651 485.677C857.182 486.446 859.535 487.712 861.572 489.399C863.609 491.087 865.29 493.163 866.516 495.507C867.742 497.851 868.49 500.415 868.715 503.051C868.94 505.687 868.638 508.341 867.826 510.859C867.015 513.376 865.711 515.708 863.989 517.716C862.268 519.725 860.164 521.37 857.8 522.557C855.436 523.744 852.859 524.449 850.22 524.63V524.63Z" fill="#00BFA6"/>
<path d="M823.14 613.32C812.49 616.09 776.59 604.85 776.59 604.85C776.59 604.85 802.45 577.53 813.1 574.75C818.159 573.584 823.474 574.438 827.913 577.131C832.352 579.824 835.565 584.143 836.868 589.169C838.171 594.195 837.461 599.531 834.89 604.041C832.318 608.552 828.089 611.881 823.1 613.32H823.14Z" fill="#00BFA6"/>
<path opacity="0.25" d="M852.65 331.15C848.55 341.37 855.14 378.41 855.14 378.41C855.14 378.41 885.53 356.22 889.63 346.01C890.606 343.58 891.093 340.983 891.065 338.365C891.037 335.747 890.493 333.16 889.465 330.752C888.437 328.344 886.945 326.163 885.074 324.331C883.203 322.5 880.989 321.056 878.56 320.08C876.131 319.104 873.533 318.616 870.915 318.645C868.297 318.673 865.71 319.217 863.302 320.245C860.894 321.272 858.713 322.765 856.882 324.636C855.05 326.507 853.606 328.72 852.63 331.15H852.65Z" fill="black"/>
<path opacity="0.25" d="M799.36 375.44C801.47 386.24 827.14 413.75 827.14 413.75C827.14 413.75 840.59 378.61 838.48 367.81C837.414 362.675 834.368 358.167 830.001 355.263C825.633 352.359 820.298 351.294 815.15 352.298C810.003 353.302 805.459 356.294 802.503 360.626C799.547 364.958 798.418 370.281 799.36 375.44V375.44Z" fill="black"/>
<path opacity="0.25" d="M761.87 472.64C769.14 480.9 805.18 491.64 805.18 491.64C805.18 491.64 799.05 454.52 791.78 446.26C790.051 444.296 787.952 442.692 785.604 441.539C783.255 440.386 780.702 439.707 778.091 439.541C775.48 439.375 772.861 439.725 770.385 440.57C767.909 441.416 765.624 442.741 763.66 444.47C761.696 446.199 760.092 448.298 758.939 450.646C757.786 452.995 757.107 455.548 756.941 458.159C756.775 460.771 757.125 463.389 757.97 465.865C758.816 468.341 760.141 470.626 761.87 472.59V472.64Z" fill="black"/>
<path opacity="0.25" d="M750.05 552.57C755.82 561.94 789.53 578.67 789.53 578.67C789.53 578.67 789.76 541.04 783.99 531.67C782.628 529.421 780.834 527.463 778.712 525.911C776.589 524.358 774.181 523.24 771.625 522.623C769.069 522.005 766.416 521.899 763.819 522.311C761.222 522.724 758.732 523.646 756.493 525.024C754.254 526.403 752.31 528.212 750.773 530.345C749.236 532.479 748.136 534.895 747.537 537.456C746.938 540.016 746.852 542.67 747.283 545.264C747.714 547.858 748.655 550.341 750.05 552.57Z" fill="black"/>
<path opacity="0.25" d="M865.22 431.33C855.03 435.5 817.95 429.16 817.95 429.16C817.95 429.16 839.95 398.62 850.11 394.45C854.982 392.54 860.41 392.624 865.221 394.682C870.032 396.74 873.841 400.608 875.825 405.45C877.809 410.292 877.809 415.72 875.824 420.562C873.84 425.404 870.031 429.272 865.22 431.33V431.33Z" fill="black"/>
<path opacity="0.25" d="M850.22 524.63C839.22 525.57 805.76 508.42 805.76 508.42C805.76 508.42 835.87 485.86 846.83 484.92C849.462 484.651 852.12 484.908 854.651 485.677C857.182 486.446 859.535 487.712 861.572 489.399C863.609 491.087 865.29 493.163 866.516 495.507C867.742 497.851 868.49 500.415 868.715 503.051C868.94 505.687 868.638 508.341 867.826 510.859C867.015 513.376 865.711 515.708 863.989 517.716C862.268 519.725 860.164 521.37 857.8 522.557C855.436 523.744 852.859 524.449 850.22 524.63V524.63Z" fill="black"/>
<path opacity="0.25" d="M823.14 613.32C812.49 616.09 776.59 604.85 776.59 604.85C776.59 604.85 802.45 577.53 813.1 574.75C818.159 573.584 823.474 574.438 827.913 577.131C832.352 579.824 835.565 584.143 836.868 589.169C838.171 594.195 837.461 599.531 834.89 604.041C832.318 608.552 828.089 611.881 823.1 613.32H823.14Z" fill="black"/>
<path d="M752.42 641.53C752.42 641.53 835.22 597.88 860.7 529.29C871.4 500.49 890.7 475.65 916.49 459.02C928.759 451.154 941.723 444.429 955.22 438.93" stroke="#535461" stroke-width="2" stroke-miterlimit="10"/>
<path d="M971.52 395.78C963.64 403.45 954.65 439.99 954.65 439.99C954.65 439.99 991.42 431.99 999.31 424.35C1003.02 420.646 1005.11 415.633 1005.15 410.394C1005.19 405.155 1003.16 400.112 999.508 396.356C995.855 392.601 990.87 390.435 985.633 390.327C980.395 390.219 975.325 392.178 971.52 395.78V395.78Z" fill="#00BFA6"/>
<path d="M904.86 414.69C902.41 425.42 914.73 460.97 914.73 460.97C914.73 460.97 941.26 434.3 943.73 423.57C944.373 420.998 944.496 418.324 944.092 415.704C943.688 413.084 942.766 410.57 941.379 408.311C939.992 406.052 938.168 404.092 936.014 402.547C933.86 401.001 931.42 399.901 928.835 399.31C926.251 398.719 923.575 398.65 920.963 399.107C918.352 399.563 915.858 400.536 913.627 401.968C911.396 403.4 909.474 405.263 907.972 407.448C906.47 409.632 905.419 412.094 904.88 414.69H904.86Z" fill="#00BFA6"/>
<path d="M831.22 488.36C834.52 498.86 863.1 523.36 863.1 523.36C863.1 523.36 872.54 486.94 869.24 476.44C868.498 473.89 867.254 471.515 865.582 469.452C863.909 467.39 861.841 465.683 859.499 464.431C857.157 463.18 854.589 462.409 851.945 462.163C849.301 461.918 846.634 462.204 844.102 463.003C841.57 463.803 839.223 465.1 837.2 466.82C835.176 468.539 833.517 470.645 832.318 473.015C831.12 475.384 830.407 477.97 830.222 480.618C830.037 483.267 830.383 485.926 831.24 488.44L831.22 488.36Z" fill="#00BFA6"/>
<path d="M788 556.65C789.48 567.55 813.51 596.5 813.51 596.5C813.51 596.5 828.97 562.2 827.51 551.29C827.158 548.696 826.299 546.198 824.981 543.936C823.663 541.675 821.913 539.695 819.83 538.11C817.748 536.525 815.373 535.365 812.842 534.698C810.311 534.03 807.674 533.868 805.08 534.22C802.487 534.572 799.988 535.431 797.726 536.749C795.465 538.067 793.485 539.817 791.9 541.9C790.315 543.983 789.155 546.357 788.488 548.888C787.821 551.419 787.658 554.056 788.01 556.65H788Z" fill="#00BFA6"/>
<path d="M942.37 492.45C931.37 492.14 900.03 471.31 900.03 471.31C900.03 471.31 932.5 452.31 943.5 452.61C948.732 452.832 953.667 455.105 957.236 458.937C960.806 462.769 962.724 467.852 962.576 473.087C962.427 478.322 960.224 483.288 956.443 486.911C952.662 490.535 947.607 492.524 942.37 492.45V492.45Z" fill="#00BFA6"/>
<path d="M890.85 571.67C880.45 568.08 856.78 538.84 856.78 538.84C856.78 538.84 893.44 530.41 903.85 534C908.735 535.809 912.717 539.458 914.945 544.166C917.173 548.874 917.469 554.268 915.769 559.191C914.07 564.115 910.511 568.178 905.853 570.51C901.196 572.843 895.811 573.259 890.85 571.67V571.67Z" fill="#00BFA6"/>
<path d="M830.22 641.78C819.36 640 791.08 615.18 791.08 615.18C791.08 615.18 825.8 600.67 836.66 602.45C841.8 603.385 846.368 606.301 849.379 610.571C852.39 614.841 853.605 620.122 852.76 625.278C851.916 630.434 849.081 635.053 844.865 638.139C840.649 641.225 835.39 642.533 830.22 641.78V641.78Z" fill="#00BFA6"/>
<path d="M759.68 647.63H750.81L685.93 312.7L677.61 647.63H668.19L657.65 313.26L594.43 647.63H584.45L627.42 303.38L628.82 292.19L713.11 282.76L715.73 303.38L759.68 647.63Z" fill="#005C5C"/>
<path d="M580.63 215.62H526.98V248.89H580.63V215.62Z" fill="#464353"/>
<path d="M838.27 201.07L870.71 187.97H877.82C878.857 187.97 879.852 188.382 880.585 189.115C881.318 189.849 881.73 190.843 881.73 191.88V283.24C881.73 284.277 881.318 285.272 880.585 286.005C879.852 286.738 878.857 287.15 877.82 287.15H870.71L838.27 273.64V201.07Z" fill="#009286"/>
<path d="M838.27 205.23H771.94V269.48H838.27V205.23Z" fill="#009286"/>
<path d="M699.5 84.5498H656.8V92.3098H699.5V84.5498Z" fill="#514E7F"/>
<path d="M728.27 94.6001H608.08V182.35H728.27V94.6001Z" fill="#009286"/>
<path opacity="0.1" d="M728.27 171.96H608.08V182.36H728.27V171.96Z" fill="black"/>
<path opacity="0.1" d="M773.6 205.23H770.91V269.48H773.6V205.23Z" fill="black"/>
<path opacity="0.1" d="M580.63 215.62H562.33V248.89H580.63V215.62Z" fill="black"/>
<path opacity="0.1" d="M715.73 303.38H627.42L628.82 292.19L713.11 282.76L715.73 303.38Z" fill="black"/>
<path d="M761.23 173.62H574.69C568.781 173.62 563.99 178.411 563.99 184.32V291.01C563.99 296.92 568.781 301.71 574.69 301.71H761.23C767.14 301.71 771.93 296.92 771.93 291.01V184.32C771.93 178.411 767.14 173.62 761.23 173.62Z" fill="#146C6C"/>
<path d="M677.8 260.6C672.9 250.8 669 242.4 669 242C669 241.6 671.3 241 674.1 240.8C676.8 240.5 679.5 239.9 680 239.4C680.5 238.9 680 234.7 678.6 229.2L676.2 220H686.6C695.7 220 697 220.2 697 221.7C697 222.6 697.5 229.6 698.1 237.2C699.4 253.5 699.2 254 691.9 254H687.1L686.8 266.3L686.5 278.5L677.8 260.6Z" fill="#FFC81A"/>
<path d="M837.64 201.07H838.27V273.64H837.64C836.263 273.64 834.943 273.093 833.97 272.12C832.997 271.146 832.45 269.826 832.45 268.45V206.26C832.45 204.883 832.997 203.563 833.97 202.59C834.943 201.617 836.263 201.07 837.64 201.07Z" fill="#027C7C"/>
<path d="M870.71 188H877.44C878.578 188 879.669 188.452 880.473 189.257C881.278 190.061 881.73 191.152 881.73 192.29V282.91C881.73 284.048 881.278 285.139 880.473 285.943C879.669 286.748 878.578 287.2 877.44 287.2H870.71V188Z" fill="#018282"/>
<path opacity="0.1" d="M536.55 215.62H526.98V248.89H536.55V215.62Z" fill="black"/>
<path d="M527.68 205.23H523.37C519.393 205.23 516.17 208.454 516.17 212.43V254.59C516.17 258.566 519.393 261.79 523.37 261.79H527.68C531.656 261.79 534.88 258.566 534.88 254.59V212.43C534.88 208.454 531.656 205.23 527.68 205.23Z" fill="#514E7F"/>
<path d="M608.08 154.49C641.156 154.49 667.97 127.676 667.97 94.6C667.97 61.5236 641.156 34.71 608.08 34.71C575.004 34.71 548.19 61.5236 548.19 94.6C548.19 127.676 575.004 154.49 608.08 154.49Z" fill="#464353"/>
<path d="M608.08 139.52C632.889 139.52 653 119.409 653 94.6002C653 69.7915 632.889 49.6802 608.08 49.6802C583.272 49.6802 563.16 69.7915 563.16 94.6002C563.16 119.409 583.272 139.52 608.08 139.52Z" fill="#019387"/>
<path d="M719.12 139.52C743.238 139.52 762.79 119.968 762.79 95.8502C762.79 71.7319 743.238 52.1802 719.12 52.1802C695.002 52.1802 675.45 71.7319 675.45 95.8502C675.45 119.968 695.002 139.52 719.12 139.52Z" fill="#464353"/>
<path d="M719.12 128.6C737.207 128.6 751.87 113.937 751.87 95.8501C751.87 77.7628 737.207 63.1001 719.12 63.1001C701.033 63.1001 686.37 77.7628 686.37 95.8501C686.37 113.937 701.033 128.6 719.12 128.6Z" fill="#146C6C"/>
<path d="M715.73 198.43C718.906 198.43 721.48 195.856 721.48 192.68C721.48 189.505 718.906 186.93 715.73 186.93C712.554 186.93 709.98 189.505 709.98 192.68C709.98 195.856 712.554 198.43 715.73 198.43Z" fill="#00BFA6"/>
<path opacity="0.5" d="M734.02 198.43C737.196 198.43 739.77 195.856 739.77 192.68C739.77 189.505 737.196 186.93 734.02 186.93C730.844 186.93 728.27 189.505 728.27 192.68C728.27 195.856 730.844 198.43 734.02 198.43Z" fill="#00BFA6"/>
<path d="M661.65 212.52L661.24 211.71C663.776 212.553 666.21 213.673 668.5 215.05C667.5 206.36 634.17 181.96 628.17 181.96C622.17 181.96 615.5 171.6 615.5 171.6C615.5 171.6 598.17 168.93 595.5 166.1C592.83 163.27 574.83 164.92 570.5 165.92C566.17 166.92 559.5 163.25 559.5 163.25C559.5 163.25 555.83 157.25 551.17 157.25C546.51 157.25 541.52 150.57 541.52 150.57C541.52 150.57 537.17 146.57 533.17 145.89C529.17 145.21 524.17 140.89 521.83 137.54C519.49 134.19 507.83 132.54 501.17 133.54C494.51 134.54 476.5 132.18 476.5 132.18C483.83 128.84 485.6 120.82 485.6 120.82C479.04 120.48 461.8 106 461.8 106C461.8 106 462.51 110.68 463.33 117.21L462.22 115.78L462.07 115.9C461.718 111.242 461.668 106.565 461.92 101.9C461.92 101.54 461.98 101.18 462 100.81C466.269 97.0699 469.435 92.2339 471.155 86.8248C472.875 81.4158 473.085 75.6395 471.76 70.1202C471.58 69.3602 471.37 68.6202 471.13 67.8902C472.406 68.421 473.754 68.758 475.13 68.8902H475.84C476.667 68.8956 477.486 68.7255 478.243 68.3911C479 68.0567 479.677 67.5656 480.23 66.9502V66.9502C480.417 66.7132 480.581 66.4587 480.72 66.1902C480.754 66.1391 480.784 66.0856 480.81 66.0302C480.929 65.7847 481.029 65.5307 481.11 65.2702C481.138 65.1781 481.161 65.0847 481.18 64.9902C481.23 64.7857 481.271 64.5788 481.3 64.3702C481.3 64.2002 481.3 64.0202 481.3 63.8402C481.3 63.6602 481.3 63.5802 481.3 63.4502C481.259 61.9128 480.919 60.398 480.3 58.9902C479.25 56.4102 477.74 53.8602 477.85 51.0702C477.85 50.8402 477.9 50.6202 477.93 50.4002C478.21 48.2102 479.36 46.1802 480.05 44.0702V43.9802C480.15 43.6702 480.23 43.3602 480.3 43.0502C480.332 42.9587 480.359 42.8651 480.38 42.7702C480.454 42.4039 480.505 42.0331 480.53 41.6602C480.53 41.6602 480.53 41.6102 480.53 41.5802C480.79 37.4002 477.42 33.7502 473.6 32.0602C470.18 30.5402 466.27 30.1302 463.14 28.0602C459.57 25.7102 457.61 21.6402 454.97 18.2702C451.13 13.3702 445.12 9.7102 438.97 10.4102C435.18 10.8402 431.74 12.8302 427.97 13.6002C422.24 14.7902 416.18 13.0602 410.48 14.3902C409.096 14.6201 407.836 15.3278 406.92 16.3902C406.537 16.9264 406.29 17.5475 406.2 18.2002V18.2002C406.12 18.8042 406.12 19.4162 406.2 20.0202V20.0702C406.264 20.6466 406.368 21.2179 406.51 21.7802L406.6 22.1302C406.6 22.2502 406.65 22.3602 406.68 22.4802C406.71 22.6002 406.81 22.9502 406.87 23.1802C406.98 23.5702 407.07 23.9602 407.17 24.3602V24.5002C407.26 24.9102 407.35 25.3202 407.42 25.7402C407.581 26.606 407.688 27.481 407.74 28.3602V28.3602C407.975 30.8345 407.441 33.321 406.21 35.4802C403.71 39.4802 398.4 41.2502 396.09 45.4202C395.544 46.4264 395.204 47.5312 395.09 48.6702C395.048 49.0487 395.032 49.4295 395.04 49.8102V49.9602C395.04 50.2902 395.04 50.6202 395.13 50.9602C395.125 51.0401 395.125 51.1203 395.13 51.2002C395.181 51.4968 395.248 51.7906 395.33 52.0802C395.33 52.1802 395.38 52.2702 395.41 52.3602C395.52 52.7023 395.654 53.0364 395.81 53.3602V53.3602C396.88 55.5902 398.9 57.4302 399.32 59.8502C399.32 59.9202 399.32 59.9902 399.37 60.0702C399.6 61.8902 398.85 63.6702 398.46 65.4602C398.408 65.678 398.368 65.8983 398.34 66.1202V66.1202C398.34 66.1902 398.34 66.2602 398.34 66.3302C398.34 66.4002 398.34 66.6302 398.34 66.7902C398.34 66.9502 398.34 66.9602 398.34 67.0502C398.34 67.1402 398.34 67.3202 398.34 67.4502C398.335 67.5435 398.335 67.6369 398.34 67.7302C398.34 67.8602 398.34 67.9902 398.34 68.1102C398.34 68.2302 398.34 68.2902 398.34 68.3802C398.34 68.4702 398.4 68.6302 398.44 68.7502L398.51 69.0002C398.557 69.1195 398.611 69.2364 398.67 69.3502L398.78 69.5702C398.853 69.6914 398.933 69.8083 399.02 69.9202C399.057 69.9759 399.097 70.0293 399.14 70.0802C399.276 70.2409 399.43 70.3852 399.6 70.5102C400.98 71.5102 403.13 71.2502 404.26 72.5102C404.387 72.6628 404.495 72.8308 404.58 73.0102L404.64 73.1302C404.722 73.3063 404.786 73.4907 404.83 73.6802V73.6802C404.99 74.4318 404.99 75.2086 404.83 75.9602C404.43 77.9602 403.58 79.7802 403.13 81.7402C403.04 82.1402 402.98 82.5502 402.93 82.9602C402.93 83.1502 402.93 83.3302 402.88 83.5102V83.6302C402.88 83.8002 402.88 83.9802 402.88 84.1502C402.88 84.3202 402.88 84.2402 402.88 84.2902C402.88 84.5402 402.88 84.8002 402.94 85.0502C403 85.3002 402.94 85.2902 403 85.4002L403.06 85.6902C403.06 85.8202 403.13 85.9502 403.17 86.0802L403.26 86.3302C403.31 86.4702 403.38 86.6102 403.44 86.7502C403.469 86.8155 403.503 86.879 403.54 86.9402C403.641 87.1448 403.761 87.3391 403.9 87.5202C405.11 89.1602 407.1 89.7102 409.2 89.7202C410.391 89.7135 411.578 89.5794 412.74 89.3202C413 89.9302 413.27 90.5402 413.56 91.1302C415.01 94.0491 416.909 96.7218 419.19 99.0502C419.19 99.3602 419.13 99.6602 419.09 99.9802C418.86 102.26 418.58 104.71 418.26 107.18C415.67 105.99 413.67 105.53 412.88 106.39C409.53 110.07 412.88 122.77 412.88 122.77C412.88 122.77 396.53 122.77 392.53 126.44C388.53 130.11 381.2 126.44 381.2 126.44C381.2 126.44 366.2 128.12 367.2 131.13C368.2 134.14 359.2 131.13 359.2 131.13C359.2 131.13 352.86 131.8 353.2 136.13C353.54 140.46 343.53 142.47 344.86 145.48C346.19 148.49 338.86 150.48 338.86 150.48C338.86 150.48 331.53 150.15 334.2 154.48C334.2 154.48 330.2 163.84 326.87 164.48C323.54 165.12 319.2 172.83 319.2 172.83C319.2 172.83 306.36 175.17 306.94 179.18C307.52 183.19 287.2 211.88 287.2 211.88C287.2 211.88 280.53 225.63 285.2 235.66C289.87 245.69 293.2 252.37 294.2 256.04C295.2 259.71 307.32 275.87 307.22 278.88C307.22 279.82 310.22 284.88 314.31 291.3L313.11 292.54L310.48 295.25C310.48 295.25 302.14 315.97 312.14 316.97C320.59 317.81 326.66 318.42 329.74 317.58C330.24 317.464 330.714 317.257 331.14 316.97L331.26 316.88C334.9 322.25 337.48 326 337.48 326C337.48 326 337.84 325.47 338.48 324.56L339.48 325.99C339.48 325.99 340.28 324.85 341.64 322.99C341.2 332.08 341.14 341.04 341.14 341.04C341.14 341.04 345.48 340.37 343.48 360.42C341.48 380.47 355.48 396.84 355.48 396.84V426.59C355.48 426.59 355.48 427.34 355.62 428.59C355.99 432.86 357.21 442.93 360.81 449.59C365.48 458.27 360.81 481 360.81 481C360.81 481 360.5 499.54 361.62 522.66C361.62 523.29 361.69 523.94 361.72 524.58C341.5 541.48 319.81 563.88 319.81 563.88C320.872 564.177 321.883 564.632 322.81 565.23L321.6 566.78L316.09 573.57L311.83 578.83L318.58 599.62L325.95 596.74C325.95 596.74 329.95 603.67 329.11 608.37C328.982 609.22 328.638 610.022 328.11 610.7C327.855 611.041 327.678 611.434 327.59 611.85C325.66 619.38 333.71 651.85 346.48 653.26C346.48 653.26 350.81 654.69 352.2 650.79C352.87 648.91 352.86 645.79 351.36 640.72C351.36 640.72 344.61 632.58 348.98 623.81C351.54 618.68 355.77 611.81 358.83 606.96L360.09 604.96C362.84 608.43 364.53 610.66 364.53 610.66L374.35 600.1C374.56 600.55 374.77 600.99 374.99 601.41C375.725 602.881 376.574 604.292 377.53 605.63L384.19 632.04L386.88 631.44C386.82 632.08 386.78 632.76 386.74 633.44C386.52 638.18 386.74 644.33 388.93 648.72C390.57 652.08 393.34 654.42 397.86 654.31C413.36 653.93 417.86 645.54 417.86 645.54V624.54L423.19 623.35C423.19 623.35 422.8 577.21 421.43 551.48C421.43 550.91 421.37 550.36 421.34 549.82C421.34 549.74 421.34 549.66 421.34 549.59L455.57 512.78L458.2 511.73C480.2 503.04 480.54 480.65 480.54 480.65C480.54 480.65 480.54 468.29 483.2 457.93C485.86 447.57 483.54 393.76 478.54 380.4C473.54 367.04 471.87 351.98 471.87 351.98C471.87 351.98 476.87 344.98 471.87 339.15C470.458 337.405 469.281 335.482 468.37 333.43L474.88 332.36L478.63 331.74L480.63 331.4C479.63 340.24 479.46 347.03 481.83 348.65C489.17 353.65 513.83 336.95 513.83 336.95C504.83 336.95 499.83 269.78 501.66 268.11C503.49 266.44 506.22 232.78 503.83 226.78C501.44 220.78 512.22 193.99 512.22 193.99L513.88 191.53C513.88 191.53 553.22 208.7 557.55 211.99C561.88 215.28 575.55 203.99 577.88 208.36C580.21 212.73 594.88 219.24 594.88 219.24C594.88 219.24 616.55 217.05 618.88 222.4C621.21 227.75 635.22 240.28 635.22 240.28C635.227 237.342 635.404 234.408 635.75 231.49C636.04 232.18 636.32 232.88 636.62 233.59C643.26 249.3 654.31 269.19 664.55 258.49C676.15 246.33 667.32 223.85 661.65 212.52ZM365.16 283.52V283.71L365.08 283.63L365.16 283.52ZM357.4 206.44L353.16 251.15L344.83 259.78L343.83 260.84L335.22 251.47C335.22 251.47 330.88 249.47 335.22 245.79C339.56 242.11 327.89 233.79 327.89 233.79C327.89 233.79 327.55 227.79 331.89 226.11C336.23 224.43 341.89 213.41 341.89 213.41L357.56 205.41L357.4 206.44ZM413.16 435.28C413.464 434.999 413.799 434.754 414.16 434.55C416.03 433.49 417.23 434.65 417.85 436.69C418.667 440.109 418.419 443.696 417.14 446.97C414.81 452.32 420.48 473.71 420.48 473.71C420.48 473.71 413.14 477.04 411.81 483.4C411.612 484.182 411.273 484.921 410.81 485.58C410.72 485.02 410.64 484.48 410.56 483.96C409.91 479.96 409.56 477.38 409.56 477.38C408.364 472.234 408.137 466.91 408.89 461.68C409.95 455.25 412.09 442.19 412.89 437.24C413.09 436.04 413.2 435.32 413.21 435.24L413.16 435.28Z" fill="url(#paint0_linear_103:229)"/>
<path d="M459.64 109.7L461.8 108.26L467.89 121.11L465.55 123.86H458.47C458.47 123.86 458.72 116.86 458.89 116.61C459.06 116.36 459.64 109.7 459.64 109.7Z" fill="#464353"/>
<path d="M417.83 619.05V646.55C417.83 646.55 413.33 654.92 397.83 655.3C395.948 655.411 394.078 654.935 392.478 653.937C390.879 652.939 389.628 651.469 388.9 649.73C386.74 645.35 386.49 639.21 386.71 634.48C386.821 632.114 387.071 629.756 387.46 627.42L417.83 619.05Z" fill="#016B6B"/>
<path opacity="0.1" d="M417.83 619.05V627.56L386.71 634.48C386.82 632.114 387.071 629.756 387.46 627.42L417.83 619.05Z" fill="black"/>
<path d="M423.16 624.38L384.16 633.05L377.5 606.71C376.546 605.374 375.697 603.967 374.96 602.5C374.53 601.66 374.11 600.77 373.71 599.84C366.45 583.23 363.22 553.27 361.84 527.78C361.77 526.49 361.7 525.21 361.64 523.95C360.52 500.89 360.83 482.39 360.83 482.39C360.83 482.39 365.5 459.72 360.83 451.06C357.23 444.38 356.01 434.34 355.64 430.06C355.54 428.79 355.5 428.06 355.5 428.06L356.22 426.17L359.16 418.39H391.5L410.3 434.3L413.16 436.72L412.84 438.72C412.03 443.66 409.89 456.72 408.84 463.1C408.087 468.316 408.315 473.627 409.51 478.76C409.51 478.76 409.9 481.3 410.51 485.33C410.66 486.33 410.83 487.39 411.02 488.54C413.41 503.32 417.89 530.31 419.8 536.76C420.33 538.53 420.8 542.97 421.15 548.98C421.23 550.18 421.3 551.43 421.37 552.74C422.77 578.36 423.16 624.38 423.16 624.38Z" fill="#185E5C"/>
<path opacity="0.1" d="M417.83 646.27V646.55C417.83 646.55 413.33 654.92 397.83 655.3C395.948 655.411 394.078 654.935 392.478 653.937C390.878 652.939 389.628 651.469 388.9 649.73C395.85 651.44 407.13 652.54 417.83 646.27Z" fill="black"/>
<path d="M664.5 260.38C654.22 271.05 643.22 251.21 636.57 235.54C632.84 226.72 630.5 219.21 630.5 219.21L657.86 207.63C657.86 207.63 659.54 210.3 661.65 214.53C667.32 225.83 676.15 248.25 664.5 260.38Z" fill="#A1616A"/>
<path d="M461.95 104.17C461.512 114.069 462.253 123.986 464.16 133.71C464.16 133.71 408.5 139.71 413.5 131.05C416.43 125.97 418.33 112.56 419.39 102.31C420.16 95.05 420.5 89.38 420.5 89.38C420.5 89.38 473.83 68.05 465.83 86.05C463.44 91.42 462.33 97.78 461.95 104.17Z" fill="#A1616A"/>
<path d="M466.65 247.38L459.17 336.71L493.5 331.05L487.5 257.38L489.5 237.71L466.65 247.38Z" fill="#146C6C"/>
<path opacity="0.1" d="M493.5 331.19L478.59 333.65L459.16 336.85L460.53 320.55L466.65 247.52L474.44 244.22L479.96 241.89L489.5 237.85L487.5 257.52L493.5 331.19Z" fill="black"/>
<path d="M348.95 624.78C344.58 633.53 351.33 641.65 351.33 641.65C352.83 646.72 352.84 649.82 352.17 651.65C350.78 655.54 346.45 654.11 346.45 654.11C332.83 652.61 324.58 615.87 328.08 611.66C331.58 607.45 325.95 597.78 325.95 597.78L318.58 600.65L311.83 579.91L316.09 574.66L321.6 567.88L325.33 563.28L362.58 602.15C362.58 602.15 360.99 604.54 358.8 607.97C355.74 612.78 351.51 619.68 348.95 624.78Z" fill="#02675F"/>
<path opacity="0.1" d="M421.4 552.69L374.96 602.5C366.82 586.6 363.32 554.7 361.84 527.77C370.49 520.57 378.84 514.37 385.16 511.38C385.16 511.38 406.54 495.91 411.05 488.49C413.44 503.27 417.92 530.26 419.83 536.71C420.46 538.83 420.98 544.78 421.4 552.69Z" fill="black"/>
<path opacity="0.1" d="M410.3 434.29L356.22 426.16L359.16 418.38H391.5L410.3 434.29Z" fill="black"/>
<path opacity="0.1" d="M421.22 548.93L373.75 599.84C366.45 583.23 363.22 553.27 361.84 527.78C361.77 526.49 361.7 525.21 361.64 523.95C370.37 516.67 378.82 510.41 385.16 507.39C385.16 507.39 405.11 492.96 410.54 485.29C410.69 486.29 410.86 487.35 411.05 488.5C413.44 503.28 417.92 530.27 419.83 536.72C420.36 538.48 420.8 542.92 421.22 548.93Z" fill="black"/>
<path opacity="0.1" d="M362.58 602.17C362.58 602.17 360.99 604.56 358.8 607.99C350.85 597.94 332 574.8 321.6 567.9L325.33 563.3L362.58 602.17Z" fill="black"/>
<path d="M483.16 459.37C480.5 469.71 480.5 482.04 480.5 482.04C480.5 482.04 480.16 504.37 458.16 513.04L455.53 514.04L364.53 611.67C364.53 611.67 330.86 567.67 319.86 565C319.86 565 364.19 519.33 385.19 509.33C385.19 509.33 410.53 491 411.86 484.67C413.19 478.34 420.53 475 420.53 475C420.53 475 414.86 453.67 417.19 448.33C418.469 445.066 418.717 441.489 417.9 438.08C417.28 436.08 416.08 434.89 414.21 435.94C413.849 436.144 413.514 436.389 413.21 436.67L355.55 428V398.37C355.55 398.37 341.55 382.04 343.55 362.04C345.55 342.04 341.21 342.71 341.21 342.71C341.21 342.71 341.42 308.93 344.27 306.11C347.12 303.29 374.5 290.37 374.5 290.37L460.34 305.62L463.88 322.04C463.88 322.04 466.88 335.1 471.88 340.9C476.88 346.7 471.88 353.69 471.88 353.69C471.88 353.69 473.55 368.69 478.55 382.04C483.55 395.39 485.83 449.04 483.16 459.37Z" fill="#185E5C"/>
<path opacity="0.1" d="M465.83 86.05C463.44 91.42 462.33 97.82 461.95 104.17C455.962 109.357 448.215 112.055 440.3 111.709C432.385 111.363 424.903 108 419.39 102.31C420.16 95.05 420.5 89.38 420.5 89.38C420.5 89.38 473.83 68.05 465.83 86.05Z" fill="black"/>
<path d="M472.65 79.7801C472.645 87.6844 469.621 95.2884 464.196 101.037C458.771 106.786 451.355 110.245 443.465 110.708C435.574 111.171 427.804 108.602 421.745 103.526C415.685 98.4511 411.793 91.2527 410.865 83.4031C409.936 75.5535 412.041 67.6456 416.749 61.2965C421.457 54.9473 428.413 50.6364 436.194 49.2452C443.975 47.8541 451.993 49.4877 458.61 53.8121C465.226 58.1365 469.941 64.825 471.79 72.5101C472.363 74.8909 472.651 77.3313 472.65 79.7801V79.7801Z" fill="#A1616A"/>
<path opacity="0.1" d="M447.5 133.71C447.5 133.71 425.22 123.38 423.83 122.04C422.44 120.7 376.22 239.38 376.22 239.38L363.22 298.38C363.22 298.38 432.55 328.04 447.55 324.04C462.55 320.04 463.88 324.04 463.88 324.04C463.88 324.04 479.22 238.04 484.22 230.38C489.22 222.72 479.55 144.71 479.55 144.71L462.22 122.03L447.5 133.71Z" fill="black"/>
<path opacity="0.1" d="M447.5 129.71C447.5 129.71 425.22 119.38 423.83 118.04C422.44 116.7 376.22 235.38 376.22 235.38L363.22 294.38C363.22 294.38 432.55 324.04 447.55 320.04C462.55 316.04 463.88 320.04 463.88 320.04C463.88 320.04 479.22 234.04 484.22 226.38C489.22 218.72 479.55 140.71 479.55 140.71L462.22 118.03L447.5 129.71Z" fill="black"/>
<path d="M484.16 228.38C483.16 229.97 481.65 234.91 479.96 241.75C478.78 246.51 477.5 252.18 476.19 258.28C470.29 285.81 463.83 322.05 463.83 322.05C463.83 322.05 463.42 320.83 460.53 320.41C458.19 320.07 454.21 320.26 447.53 322.05C432.53 326.05 363.19 296.38 363.19 296.38L365.19 287.38L376.19 237.38C376.19 237.38 422.53 118.71 423.86 120.05C424.67 120.86 433.33 125.05 439.93 128.16C444.14 130.16 447.53 131.71 447.53 131.71L461.53 120.65L462.3 120.04L479.55 142.71C479.55 142.71 489.16 220.71 484.16 228.38Z" fill="#019387"/>
<path opacity="0.1" d="M431.16 143.38C433.16 151.07 428.5 163.71 428.5 163.71C428.5 163.71 412.5 203.05 407.83 221.23C403.16 239.41 376.45 276.05 376.45 276.05C376.45 276.05 372.53 279.98 367.04 285.45C366.43 286.06 365.79 286.69 365.15 287.35L376.15 237.35C376.15 237.35 422.49 118.68 423.82 120.02C424.63 120.83 433.29 125.02 439.89 128.13C435.76 131.89 429.83 138.29 431.16 143.38Z" fill="black"/>
<path d="M429.16 143.38C431.16 151.07 426.5 163.71 426.5 163.71C426.5 163.71 410.5 203.05 405.83 221.23C401.16 239.41 374.45 276.05 374.45 276.05C374.45 276.05 370.53 279.98 365.04 285.45C364.39 286.1 363.71 286.77 363.04 287.45C352.32 298.12 337.25 313.08 332.54 317.45C331.85 318.1 331.38 318.52 331.18 318.66C330.754 318.947 330.28 319.154 329.78 319.27C326.7 320.11 320.63 319.5 312.18 318.66C302.18 317.66 310.52 297 310.52 297L313.15 294.29L315.55 291.81L342.79 263.78L344.79 261.67L353.12 253.08L357.36 208.48L357.46 207.41C357.46 207.41 356.22 204.58 354.31 200.26C349.22 188.57 339.22 166.01 335.56 158.72C335.14 157.87 334.81 157.24 334.56 156.85C334.56 156.8 334.51 156.75 334.48 156.71C331.81 152.38 339.14 152.71 339.14 152.71C339.14 152.71 346.48 150.71 345.14 147.71C343.8 144.71 353.81 142.71 353.48 138.38C353.15 134.05 359.48 133.38 359.48 133.38C359.48 133.38 368.48 136.38 367.48 133.38C366.48 130.38 381.48 128.71 381.48 128.71C381.48 128.71 388.81 132.38 392.81 128.71C396.81 125.04 413.22 125.05 413.22 125.05C413.22 125.05 409.87 112.38 413.22 108.71C416.57 105.04 441.69 125.05 441.69 125.05C441.69 125.05 427.16 135.7 429.16 143.38Z" fill="#004444"/>
<path opacity="0.1" d="M345.83 314.04C345.83 314.04 373.5 353.04 392.83 340.38C412.16 327.72 366.83 294.71 366.83 294.71L345.83 314.04Z" fill="black"/>
<path d="M345.83 312.04C345.83 312.04 373.5 351.04 392.83 338.38C412.16 325.72 366.83 292.71 366.83 292.71L345.83 312.04Z" fill="#A1616A"/>
<path opacity="0.1" d="M478.59 333.51C480.7 315.1 486.82 287.44 481.83 279.05C479.36 274.89 477.53 266.96 476.19 258.28C475.47 253.61 474.9 248.72 474.44 244.08C473.22 231.77 472.83 221.23 472.83 221.23C472.83 221.23 460.83 167.71 463.16 156.71C464.62 149.83 462.94 132.59 461.48 120.65L462.25 120.04L479.5 142.71C479.5 142.71 489.16 220.71 484.16 228.38C483.16 229.97 481.65 234.91 479.96 241.75L489.5 237.75L487.5 257.42L493.5 331.09L478.59 333.51Z" fill="black"/>
<path d="M461.8 108.26C461.8 108.26 479.04 122.71 485.6 123.04C485.6 123.04 483.83 131.04 476.5 134.38C476.5 134.38 494.5 136.76 501.17 135.73C507.84 134.7 519.5 136.38 521.83 139.73C524.16 143.08 529.22 147.38 533.22 148.04C537.22 148.7 541.57 152.71 541.57 152.71L512.22 196.04C512.22 196.04 501.55 222.71 503.88 228.71C506.21 234.71 503.54 268.38 501.71 270.04C499.88 271.7 504.88 338.71 513.88 338.71C513.88 338.71 489.22 355.38 481.88 350.38C474.54 345.38 491.22 291.38 483.88 279.04C476.54 266.7 474.88 221.22 474.88 221.22C474.88 221.22 462.88 167.71 465.22 156.71C467.56 145.71 461.8 108.26 461.8 108.26Z" fill="#004444"/>
<path opacity="0.1" d="M661.65 214.53C652.74 211.75 639.09 211.67 636.57 235.53C632.84 226.71 630.5 219.2 630.5 219.2L657.86 207.62C657.86 207.62 659.54 210.3 661.65 214.53Z" fill="black"/>
<path d="M525.22 150.71L541.57 152.71C541.57 152.71 546.57 159.38 551.22 159.38C555.87 159.38 559.55 165.38 559.55 165.38C559.55 165.38 566.22 169.04 570.55 168.04C574.88 167.04 592.88 165.39 595.55 168.22C598.22 171.05 615.55 173.71 615.55 173.71C615.55 173.71 622.22 184.04 628.22 184.04C634.22 184.04 667.55 208.38 668.55 217.04C668.55 217.04 635.55 196.04 635.22 242.21C635.22 242.21 621.22 229.71 618.88 224.38C616.54 219.05 594.88 221.22 594.88 221.22C594.88 221.22 580.22 214.71 577.88 210.38C575.54 206.05 561.88 217.28 557.55 213.99C553.22 210.7 513.88 193.58 513.88 193.58L501.71 170.71L525.22 150.71Z" fill="#004444"/>
<path d="M449.83 191.21C451.393 191.21 452.66 189.943 452.66 188.38C452.66 186.817 451.393 185.55 449.83 185.55C448.267 185.55 447 186.817 447 188.38C447 189.943 448.267 191.21 449.83 191.21Z" fill="#3F3D56"/>
<path d="M447 250.3C448.563 250.3 449.83 249.033 449.83 247.47C449.83 245.907 448.563 244.64 447 244.64C445.437 244.64 444.17 245.907 444.17 247.47C444.17 249.033 445.437 250.3 447 250.3Z" fill="#3F3D56"/>
<path d="M449.83 219.2C451.393 219.2 452.66 217.933 452.66 216.37C452.66 214.807 451.393 213.54 449.83 213.54C448.267 213.54 447 214.807 447 216.37C447 217.933 448.267 219.2 449.83 219.2Z" fill="#3F3D56"/>
<path d="M441.66 281.4C443.223 281.4 444.49 280.133 444.49 278.57C444.49 277.007 443.223 275.74 441.66 275.74C440.097 275.74 438.83 277.007 438.83 278.57C438.83 280.133 440.097 281.4 441.66 281.4Z" fill="#3F3D56"/>
<path opacity="0.1" d="M352.22 651.7C350.83 655.59 346.5 654.16 346.5 654.16C332.88 652.66 324.63 615.92 328.13 611.71C331.63 607.5 325.95 597.78 325.95 597.78L318.58 600.65L311.83 579.91L316.09 574.66C320.33 582.01 326.4 592.58 327.83 595.28C330.545 600.879 331.834 607.063 331.58 613.28C331.35 619.78 338.89 650.86 352.22 651.7Z" fill="black"/>
<path opacity="0.1" d="M471.79 72.47C471.11 72.24 470.43 71.97 469.79 71.7C467.5 70.77 465.09 69.7 463.7 67.7C462.43 65.84 462.02 63.22 460.04 62.16C457.76 60.94 455.04 62.59 452.57 63.16C449.63 63.85 446.57 63.03 443.71 61.98C439.45 60.41 433.5 57.52 429.13 60.51C425.73 62.83 427.05 67.75 426.18 71.26C424.83 76.71 419.04 80.26 417.95 85.77C417.46 88.2 417.78 91.17 415.81 92.68C415.235 93.0899 414.581 93.376 413.89 93.52C411.959 89.6103 410.875 85.3371 410.708 80.9798C410.541 76.6224 411.296 72.2789 412.922 68.2329C414.548 64.1869 417.009 60.5295 420.145 57.4996C423.281 54.4696 427.021 52.1354 431.121 50.6493C435.22 49.1632 439.587 48.5587 443.936 48.8753C448.285 49.1918 452.518 50.4223 456.36 52.4864C460.201 54.5505 463.563 57.4017 466.227 60.8538C468.891 64.3059 470.797 68.2812 471.82 72.52L471.79 72.47Z" fill="black"/>
<path d="M443.69 59.9501C446.52 61.0001 449.6 61.8201 452.55 61.1201C455.06 60.5301 457.73 58.8801 460.01 60.1201C462.01 61.1901 462.41 63.8001 463.67 65.6601C465.06 67.6601 467.47 68.7801 469.77 69.6601C471.485 70.4598 473.319 70.9732 475.2 71.1801C476.141 71.2722 477.091 71.146 477.976 70.8112C478.86 70.4765 479.656 69.9423 480.3 69.2501C482.08 67.1001 481.54 63.8801 480.48 61.3101C479.42 58.7401 477.92 56.1801 478.03 53.4001C478.16 50.1001 480.55 47.2301 480.75 43.9401C481.01 39.7701 477.64 36.1301 473.82 34.4401C470.4 32.9301 466.49 32.5101 463.36 30.4401C459.79 28.1001 457.83 24.0401 455.19 20.6801C451.35 15.7901 445.34 12.1401 439.19 12.8401C435.4 13.2701 431.96 15.2501 428.19 16.0201C422.46 17.2101 416.4 15.4801 410.7 16.8101C409.323 17.0268 408.064 17.7162 407.14 18.7601C405.74 20.6401 406.46 23.2701 407.08 25.5301C408.19 29.6001 408.66 34.2101 406.45 37.7901C403.95 41.8401 398.64 43.5501 396.33 47.7101C395.662 48.9304 395.293 50.2918 395.253 51.6824C395.213 53.0731 395.503 54.4534 396.1 55.7101C397.2 58.0101 399.33 59.8801 399.66 62.4101C399.89 64.2301 399.14 66.0001 398.75 67.7801C398.36 69.5601 398.47 71.7801 399.94 72.7801C401.41 73.7801 403.47 73.5301 404.6 74.7801C404.942 75.2765 405.167 75.8437 405.259 76.4394C405.351 77.0351 405.307 77.6438 405.13 78.2201C404.73 80.2201 403.88 82.0301 403.43 83.9901C403.142 84.9514 403.061 85.9631 403.194 86.958C403.327 87.9529 403.67 88.9081 404.2 89.7601C406.14 92.3801 410.06 92.2201 413.2 91.5201C414.107 91.3759 414.97 91.0346 415.73 90.5201C417.73 89.0101 417.38 86.0401 417.87 83.6101C418.96 78.1101 424.75 74.5401 426.1 69.1001C426.97 65.5901 425.65 60.6601 429.05 58.3401C433.47 55.4901 439.43 58.3801 443.69 59.9501Z" fill="#464353"/>
<path opacity="0.1" d="M438.83 421.71C438.83 421.71 470.22 441.71 471.22 449.38L438.83 421.71Z" fill="black"/>
<path opacity="0.1" d="M437.22 437.71C437.22 437.71 473.22 455.04 471.22 461.04L437.22 437.71Z" fill="black"/>
<path opacity="0.1" d="M434.83 453.04C434.83 453.04 455.17 463.71 456.5 470.04L434.83 453.04Z" fill="black"/>
<path opacity="0.1" d="M443.5 477.04C443.5 477.04 456.83 488.71 459.5 485.71C462.17 482.71 443.5 477.04 443.5 477.04Z" fill="black"/>
<path opacity="0.1" d="M424.83 484.38C424.83 484.38 435.22 501.04 430.22 502.04C425.22 503.04 424.83 484.38 424.83 484.38Z" fill="black"/>
<path opacity="0.1" d="M379.22 188.38C379.22 188.38 361.55 199.04 366.88 201.71C372.21 204.38 379.22 188.38 379.22 188.38Z" fill="black"/>
<path opacity="0.1" d="M379.22 149.04C379.22 149.04 361.22 182.04 369.55 179.71C377.88 177.38 379.22 149.04 379.22 149.04Z" fill="black"/>
<path opacity="0.1" d="M570.5 182.04C570.5 182.04 559.5 194.98 561.5 202.04L570.5 182.04Z" fill="black"/>
<path opacity="0.1" d="M599.22 188.38C599.22 188.38 582.71 203.04 585.13 204.71L599.22 188.38Z" fill="black"/>
<path opacity="0.1" d="M609.5 206.39C609.5 206.39 607.83 216.03 610.5 216.39L609.5 206.39Z" fill="black"/>
<path opacity="0.05" d="M429.33 409.78C425.08 415.28 425.08 425.03 423.16 429.03C422.11 431.23 419.77 435.03 417.87 438.11C417.25 436.11 416.05 434.92 414.18 435.97C412.95 426.8 410.78 410.97 410.08 407.78C409.08 403.28 420.08 391.28 420.08 391.28C420.08 391.28 430.83 393.53 433.58 399.03C436.33 404.53 433.58 404.29 429.33 409.78Z" fill="black"/>
<path opacity="0.1" d="M373.83 294.05C361.83 295.71 339.5 327.71 339.5 327.71C339.5 327.71 336.57 323.45 332.5 317.5C327.38 309.95 320.5 299.66 315.5 291.86L344.8 261.64L350.13 267.38C350.13 267.38 360.47 277.71 360.47 279.71C360.47 280.49 362.47 282.86 365.01 285.45C368.9 289.48 373.83 294.05 373.83 294.05Z" fill="black"/>
<path opacity="0.1" d="M335.56 158.72C335.14 157.87 334.81 157.24 334.56 156.85L347.48 157.71L354.33 200.23C349.22 188.57 339.22 166.01 335.56 158.72Z" fill="black"/>
<path opacity="0.1" d="M363.02 287.48C352.3 298.15 337.23 313.11 332.52 317.48C331.83 318.13 331.36 318.55 331.16 318.69C330.734 318.977 330.26 319.183 329.76 319.3C325.05 312.38 318.33 302.41 313.13 294.3L315.53 291.82L342.79 263.78L346.16 267.41C346.16 267.41 356.5 277.74 356.5 279.74C356.5 280.7 359.73 284.18 363.02 287.48Z" fill="black"/>
<path d="M349.5 157.71L334.5 156.71C334.5 156.71 330.5 166.04 327.17 166.71C323.84 167.38 319.5 175.04 319.5 175.04C319.5 175.04 306.66 177.38 307.22 181.38C307.78 185.38 287.48 213.99 287.48 213.99C287.48 213.99 280.81 227.71 285.48 237.71C290.15 247.71 293.48 254.38 294.48 258.04C295.48 261.7 307.32 277.71 307.22 280.71C307.12 283.71 337.48 327.71 337.48 327.71C337.48 327.71 359.81 295.71 371.81 294.04C371.81 294.04 358.48 281.71 358.48 279.71C358.48 277.71 348.22 267.38 348.22 267.38L335.22 253.38C335.22 253.38 330.88 251.38 335.22 247.71C339.56 244.04 327.89 235.71 327.89 235.71C327.89 235.71 327.55 229.71 331.89 228.04C336.23 226.37 341.89 215.38 341.89 215.38L357.56 207.38L349.5 157.71Z" fill="#004444"/>
<path opacity="0.1" d="M292.22 224.04C292.22 224.04 310.22 220.38 310.55 222.71C310.88 225.04 292.22 224.04 292.22 224.04Z" fill="black"/>
<path opacity="0.1" d="M307.22 242.21C307.22 242.21 322.48 244.21 321.81 247.47C321.14 250.73 307.22 242.21 307.22 242.21Z" fill="black"/>
<path opacity="0.1" d="M319.83 185.54C319.83 185.54 334.5 206.31 336.5 202.01L319.83 185.54Z" fill="black"/>
<g opacity="0.1">
<path opacity="0.1" d="M407.98 30.7799C408.07 28.3569 407.766 25.9355 407.08 23.6099C406.791 22.6263 406.571 21.6239 406.42 20.6099C406.292 22.3042 406.517 24.0067 407.08 25.6099C407.555 27.2981 407.857 29.0304 407.98 30.7799V30.7799Z" fill="black"/>
<path opacity="0.1" d="M478.11 52.7797C478.5 49.7797 480.56 47.0497 480.75 43.9797C480.78 43.469 480.76 42.9565 480.69 42.4497C480.3 45.5497 478.15 48.2997 478.03 51.4497C478.017 51.8945 478.044 52.3396 478.11 52.7797V52.7797Z" fill="black"/>
<path opacity="0.1" d="M480.3 67.28C479.656 67.9722 478.86 68.5064 477.976 68.8412C477.091 69.1759 476.141 69.3021 475.2 69.21C473.319 69.0032 471.485 68.4897 469.77 67.69C467.47 66.76 465.06 65.69 463.67 63.69C462.4 61.83 461.99 59.22 460.01 58.15C457.73 56.93 455.01 58.58 452.54 59.15C449.6 59.85 446.54 59.03 443.69 57.98C439.43 56.41 433.47 53.52 429.1 56.5C425.7 58.82 427.02 63.75 426.15 67.26C424.8 72.7 419.01 76.26 417.92 81.77C417.43 84.2 417.75 87.17 415.78 88.68C415.017 89.1961 414.15 89.5376 413.24 89.68C410.06 90.38 406.14 90.54 404.24 87.92C403.691 87.1712 403.346 86.2924 403.24 85.37C402.982 86.9587 403.34 88.586 404.24 89.92C406.18 92.54 410.1 92.38 413.24 91.68C414.15 91.5376 415.017 91.1961 415.78 90.68C417.78 89.17 417.43 86.2 417.92 83.77C419.01 78.27 424.8 74.7 426.15 69.26C427.02 65.75 425.7 60.82 429.1 58.5C433.47 55.5 439.43 58.41 443.69 59.98C446.52 61.03 449.6 61.85 452.54 61.15C455.06 60.56 457.73 58.91 460.01 60.15C462.01 61.22 462.4 63.83 463.67 65.69C465.06 67.69 467.47 68.81 469.77 69.69C471.485 70.4897 473.319 71.0032 475.2 71.21C476.141 71.3021 477.091 71.1759 477.976 70.8412C478.86 70.5064 479.656 69.9722 480.3 69.28C480.785 68.63 481.132 67.8871 481.318 67.0974C481.503 66.3077 481.525 65.4883 481.38 64.69C481.275 65.6388 480.9 66.5375 480.3 67.28V67.28Z" fill="black"/>
<path opacity="0.1" d="M399.66 60.45C399.33 57.92 397.2 56.05 396.1 53.75C395.687 52.8839 395.423 51.9541 395.32 51C395.129 52.6252 395.399 54.2714 396.1 55.75C397.17 57.98 399.19 59.82 399.61 62.23C399.712 61.6421 399.729 61.0427 399.66 60.45Z" fill="black"/>
<path opacity="0.1" d="M405.22 76.07C405.363 75.5321 405.386 74.9694 405.287 74.4216C405.189 73.8739 404.971 73.3544 404.65 72.9C403.52 71.61 401.37 71.9 399.99 70.9C399.624 70.6106 399.32 70.251 399.095 69.8423C398.87 69.4336 398.729 68.984 398.68 68.52C398.46 70.15 398.68 71.95 399.99 72.9C401.3 73.85 403.52 73.65 404.65 74.9C404.931 75.2384 405.127 75.6398 405.22 76.07V76.07Z" fill="black"/>
</g>
<path d="M167.84 593.99C167.84 593.99 126.48 591.49 131.35 620.48C131.35 620.48 130.35 625.6 135.03 627.93C135.03 627.93 135.1 625.78 139.27 626.51C140.753 626.758 142.26 626.828 143.76 626.72C145.789 626.582 147.719 625.789 149.26 624.46V624.46C149.26 624.46 160.89 619.65 165.41 600.65C165.41 600.65 168.75 596.5 168.62 595.44L161.62 598.44C161.62 598.44 164.01 603.44 162.13 607.66C162.13 607.66 161.9 598.66 160.56 598.83C160.29 598.88 156.93 600.58 156.93 600.58C156.93 600.58 161.04 609.35 157.93 615.73C157.93 615.73 159.11 604.92 155.64 601.21L150.73 604.08C150.73 604.08 155.53 613.14 152.27 620.54C152.27 620.54 153.11 609.2 149.7 604.78L145.24 608.25C145.24 608.25 149.75 617.18 147 623.32C147 623.32 146.64 610.11 144.28 609.12C144.28 609.12 140.38 612.55 139.79 613.96C139.79 613.96 142.87 620.45 140.96 623.87C140.96 623.87 139.79 615.07 138.82 615.03C138.82 615.03 134.94 620.86 134.54 624.85C134.54 624.85 134.71 618.91 137.88 614.47C135.643 614.898 133.579 615.969 131.94 617.55C131.94 617.55 132.54 613.43 138.84 613.07C138.84 613.07 142.05 608.65 142.91 608.38C142.91 608.38 136.64 607.86 132.85 609.54C132.85 609.54 136.19 605.66 144.05 607.42L148.45 603.83C148.45 603.83 140.21 602.71 136.71 603.95C136.71 603.95 140.71 600.51 149.64 603.02L154.42 600.16C154.42 600.16 147.42 598.64 143.2 599.16C143.2 599.16 147.62 596.78 155.82 599.36L159.25 597.82C159.25 597.82 154.1 596.82 152.59 596.65C151.08 596.48 151 596.07 151 596.07C154.261 595.531 157.608 595.905 160.67 597.15C160.67 597.15 167.97 594.44 167.84 593.99Z" fill="#00BFA6"/>
<path opacity="0.1" d="M139.35 635.41C155.521 635.41 168.63 633.194 168.63 630.46C168.63 627.726 155.521 625.51 139.35 625.51C123.179 625.51 110.07 627.726 110.07 630.46C110.07 633.194 123.179 635.41 139.35 635.41Z" fill="#00BFA6"/>
<path d="M440.8 218.6C435.9 208.8 432 200.4 432 200C432 199.6 434.3 199 437.1 198.8C439.8 198.5 442.5 197.9 443 197.4C443.5 196.9 443 192.7 441.6 187.2L439.2 178H449.6C458.7 178 460 178.2 460 179.7C460 180.6 460.5 187.6 461.1 195.2C462.4 211.5 462.2 212 454.9 212H450.1L449.8 224.3L449.5 236.5L440.8 218.6Z" fill="#FFC81A"/>
<defs>
<linearGradient id="paint0_linear_103:229" x1="477.03" y1="654.42" x2="477.03" y2="10.2902" gradientUnits="userSpaceOnUse">
<stop stop-color="#808080" stop-opacity="0.25"/>
<stop offset="0.54" stop-color="#808080" stop-opacity="0.12"/>
<stop offset="1" stop-color="#808080" stop-opacity="0.1"/>
</linearGradient>
</defs>
</svg>
