<?xml version="1.0" encoding="utf-8"?>
<!-- Generator: Adobe Illustrator 24.3.0, SVG Export Plug-In . SVG Version: 6.00 Build 0)  -->
<svg version="1.1" xmlns="http://www.w3.org/2000/svg" xmlns:xlink="http://www.w3.org/1999/xlink" x="0px" y="0px"
	 viewBox="0 0 3710 3710" style="enable-background:new 0 0 3710 3710;" xml:space="preserve">
<style type="text/css">
	.st0{fill:#4B6070;}
	.st1{fill:#405364;}
	.st2{fill:url(#SVGID_1_);}
	.st3{opacity:0.65;fill:#FFFFFF;}
	.st4{fill:#D9E3E8;}
	.st5{fill:#FFFFFF;}
	.st6{opacity:0.5;fill:#FFFFFF;}
	.st7{opacity:0.78;fill:#FFFFFF;}
	.st8{fill:url(#SVGID_2_);}
	.st9{fill:url(#SVGID_3_);}
	.st10{fill:#333333;}
	.st11{fill:#009999;}
	.st12{fill:url(#SVGID_4_);}
	.st13{fill:url(#SVGID_5_);}
	.st14{fill:url(#SVGID_6_);}
	.st15{fill:url(#SVGID_7_);}
	.st16{fill:url(#SVGID_8_);}
	.st17{fill:url(#SVGID_9_);}
	.st18{fill:url(#SVGID_10_);}
	.st19{opacity:0.19;fill:#D9E3E8;}
	.st20{opacity:0.52;fill:#FFFFFF;}
	.st21{opacity:0.37;fill:#FFFFFF;}
	.st22{fill:url(#SVGID_11_);}
	.st23{fill:url(#SVGID_12_);}
	.st24{fill:url(#SVGID_13_);}
	.st25{fill:#5B7484;}
	.st26{fill:url(#SVGID_14_);}
	.st27{fill:url(#SVGID_15_);}
</style>
<g id="Background">
</g>
<g id="Illustration">
	<g>
		<g>
			<polygon class="st0" points="1642.39,2619.99 1586.13,3124.52 2238.81,3124.52 2153.8,2619.99 			"/>
			<path class="st1" d="M429.19,1388.47v1259.14c0,103.58,82.54,188.29,186.09,190.96c459.9,11.86,2068.41,40.61,2506.21,34.16
				c75.25-1.11,136.2-61.32,138.37-136.55c8.44-292.52,22.15-995.92-28.59-1322.48c-10.69-68.77-68.73-120.2-138.29-122.42
				c-385.34-12.33-2090.47-51.47-2528.06-41.64C489.45,1251.34,429.19,1312.98,429.19,1388.47z"/>
			<linearGradient id="SVGID_1_" gradientUnits="userSpaceOnUse" x1="2008.9843" y1="912.5984" x2="1594.2341" y2="3545.3523">
				<stop  offset="0" style="stop-color:#FDF53F"/>
				<stop  offset="1" style="stop-color:#D93C65"/>
			</linearGradient>
			<path class="st2" d="M508.2,1382.34v1196.27c0,60.48,48.55,109.75,109.02,110.66l2441.29,30.16
				c59.95,0.9,109.09-47.34,109.32-107.29l4.08-1185.58c0.16-42.87-34-78-76.85-79.04l-2499.43-50.49
				C547.69,1295.85,508.2,1334.39,508.2,1382.34z"/>
			<path class="st3" d="M3186.2,2768.26c-0.02,0-0.04,0-0.06,0l-2678-45.63c-1.76-0.03-3.16-1.48-3.13-3.24
				c0.03-1.76,1.41-3.05,3.24-3.13l2678,45.63c1.76,0.03,3.16,1.48,3.13,3.24C3189.35,2766.87,3187.93,2768.26,3186.2,2768.26z"/>
			<path class="st4" d="M508.2,1382.34v1196.27c0,60.48,48.55,109.75,109.02,110.66l2441.29,30.16
				c59.95,0.9,109.09-47.34,109.32-107.29l4.08-1185.58c0.16-42.87-34-78-76.85-79.04l-2499.43-50.49
				C547.69,1295.85,508.2,1334.39,508.2,1382.34z"/>
			<path class="st3" d="M1873.61,2823.99c-17.12,0-31.05-13.93-31.05-31.05c0-17.12,13.93-31.05,31.05-31.05
				c17.12,0,31.05,13.93,31.05,31.05C1904.66,2810.06,1890.74,2823.99,1873.61,2823.99z M1873.61,2768.26
				c-13.61,0-24.68,11.07-24.68,24.68c0,13.61,11.07,24.68,24.68,24.68c13.61,0,24.68-11.07,24.68-24.68
				C1898.29,2779.34,1887.22,2768.26,1873.61,2768.26z"/>
			<path class="st1" d="M2379.4,3227.75h-955.24c-25.95,0-45.44-18.47-40.42-38.32l12.26-48.48c3.69-14.58,19.72-25.28,38.77-25.88
				l920.88-28.74c19.9-0.62,37.52,9.94,41.86,25.09l22.1,77.21C2425.35,3208.71,2405.77,3227.75,2379.4,3227.75z"/>
			<path class="st5" d="M1938.38,3128.29c-1.74,0-3.16-1.4-3.18-3.14c-0.02-1.76,1.38-3.21,3.14-3.23l39.46-0.58
				c1.71-0.05,3.21,1.38,3.23,3.14c0.02,1.76-1.38,3.21-3.14,3.23l-39.46,0.58C1938.41,3128.29,1938.4,3128.29,1938.38,3128.29z"/>
			<path class="st5" d="M1419.1,3201.1c-0.17,0-0.34-0.01-0.51-0.04c-1.74-0.28-2.92-1.91-2.64-3.65l5.63-35.26
				c3.03-18.98,19.18-32.96,38.4-33.25l418.54-6.12c1.8,0.12,3.21,1.38,3.23,3.14c0.02,1.76-1.38,3.21-3.14,3.23l-418.54,6.12
				c-16.12,0.24-29.66,11.96-32.2,27.88l-5.63,35.26C1422,3199.98,1420.64,3201.1,1419.1,3201.1z"/>
		</g>
		<path class="st6" d="M2877.26,2689.45l-2107.8-24.29c-61.3-0.71-110.64-52.08-110.64-115.2v-778.48
			c0-64.35,51.19-116.23,113.68-115.2l2107.8,34.74c61.09,1.01,110.1,52.29,110.1,115.2v768.03
			C2990.4,2638.38,2939.54,2690.16,2877.26,2689.45z"/>
		<path class="st7" d="M2938.49,1635.85l-2225.66-21.41c-28.03-0.27-50.57-16.99-50.57-37.52v-76.56
			c0-20.95,23.43-37.84,52.04-37.52l2225.66,25.36c27.99,0.32,50.44,17.02,50.44,37.52v72.61
			C2990.4,1619.24,2967.05,1636.12,2938.49,1635.85z"/>
		<path class="st7" d="M2129.83,2584.16l-1264.94-17.64c-52.33-0.73-94.44-43.25-94.66-95.58l-2.63-625.5
			c-0.22-53.18,42.82-96.4,96-96.4h1267.57c53.02,0,96,42.98,96,96v643.13C2227.16,2541.71,2183.36,2584.9,2129.83,2584.16z"/>
		<path class="st7" d="M2875.31,2146.58h-519.94c-29.07,0-52.64-23.57-52.64-52.64v-291.1c0-29.52,24.28-53.27,53.79-52.62
			l519.94,11.43c28.61,0.63,51.48,24,51.48,52.62v279.68C2927.95,2123.02,2904.38,2146.58,2875.31,2146.58z"/>
		<path class="st7" d="M2877.55,2578.24h-524.41c-27.84,0-50.4-22.56-50.4-50.4V2231.1c0-27.84,22.56-50.4,50.4-50.4h524.41
			c27.84,0,50.4,22.56,50.4,50.4v296.74C2927.95,2555.68,2905.38,2578.24,2877.55,2578.24z"/>
		<g>
			<g>
				<path class="st1" d="M584.71,3173.15c0,0-12.12,19.11-15.17,72.61c-0.28,4.98,3.66,9.23,8.66,9.23h94.82
					c3.82,0,6.54-3.74,5.32-7.35c-5.56-16.44-22.36-56.54-59.84-79.45L584.71,3173.15z"/>
				<linearGradient id="SVGID_2_" gradientUnits="userSpaceOnUse" x1="580.5899" y1="3160.9001" x2="624.8382" y2="3160.9001">
					<stop  offset="0" style="stop-color:#F9B776"/>
					<stop  offset="1" style="stop-color:#F47960"/>
				</linearGradient>
				<path class="st8" d="M580.59,3136.9l5.36,44.97c0.46,3.88,3.5,6.99,7.38,7.43c5.19,0.6,12.72,1.02,20.05-0.19
					c6.66-1.1,11.45-7.03,11.45-13.78v-43.42L580.59,3136.9z"/>
				<path class="st1" d="M819.31,3168.2c0,0-18.15,20.16-17.76,47.84c0.09,6.52,7.73,11.71,16.85,11.71h147.26
					c6.9,0,9.69-6.33,4.05-9.17c-27.87-13.99-82.64-40.12-122.25-50.39H819.31z"/>
				<linearGradient id="SVGID_3_" gradientUnits="userSpaceOnUse" x1="804.1412" y1="3141.2524" x2="848.1453" y2="3141.2524">
					<stop  offset="0" style="stop-color:#F9B776"/>
					<stop  offset="1" style="stop-color:#F47960"/>
				</linearGradient>
				<path class="st9" d="M804.14,3119.63l11.44,55.54c1.28,6.21,7.36,10.39,13.55,9.01c3.76-0.84,8.2-2.45,12.95-5.42
					c4.51-2.82,6.79-8.18,5.87-13.42l-11.83-67.28L804.14,3119.63z"/>
				<path class="st0" d="M601.6,2347.48c0,0-39.77,35.07-47.26,77.25c-7.49,42.19,21.21,727.88,21.21,727.88s39.77,6.62,60.27-5.81
					c0,0,24.32-445.01,42.8-547.84c0,0,96.93,460.97,123.79,544.26c0,0,38.32,4.66,50.67-2.63c0,0-25.39-597.55-57.3-703.78
					L601.6,2347.48z"/>
				<path class="st10" d="M677.46,2584.5c-1.92,0-3.67-1.29-4.17-3.23l-16.47-63.18l-35.08-22.5c-2.01-1.29-2.59-3.96-1.3-5.97
					c1.29-2.01,3.95-2.59,5.97-1.3l36.5,23.42c0.91,0.58,1.57,1.49,1.85,2.55l16.89,64.81c0.6,2.31-0.78,4.67-3.09,5.27
					C678.19,2584.45,677.83,2584.5,677.46,2584.5z"/>
				<path class="st11" d="M994.1,1951.27c-167.43-13.9-211.19,20.75-211.19,20.75l80.46,127.03c0,0,164.52-3.25,282.4-94.11
					c-22.06-23.76-37.38-50.02-47.21-70.46C1068.16,1947.1,1033.15,1954.51,994.1,1951.27z"/>
				<linearGradient id="SVGID_4_" gradientUnits="userSpaceOnUse" x1="1098.5577" y1="1852.757" x2="1262.0986" y2="1852.757">
					<stop  offset="0" style="stop-color:#F9B776"/>
					<stop  offset="1" style="stop-color:#F47960"/>
				</linearGradient>
				<path class="st12" d="M1256.3,1705.5c-0.23-5.37-7.5-6.82-9.78-1.96l-21.36,45.59c-4.13,8.81-5.45,18.67-3.79,28.26l7.49,26.53
					c2.24,12.94-1.14,26.2-9.34,36.46c-19.63,24.54-61.44,69.36-120.96,94.1c9.83,20.45,25.15,46.7,47.21,70.46
					c43.25-33.34,80.24-78.46,100.5-139.56c9.71-2.98,16.2-12.12,15.81-22.27L1256.3,1705.5z"/>
				<path class="st11" d="M1049.21,2024.92c-58.94-63.51-171.22-92.21-236.22-104c-28.48-5.16-56.55,10.68-66.64,37.81
					c-29.25,78.63-108.81,283.21-124.23,318.38c-12.65,28.85-25.86,57.02-34.25,74.63c-5.01,10.52-0.63,23.11,9.87,28.17
					c54.69,26.36,153.1,56.19,192.99,67.82c8.78,2.56,17.51-4.03,17.51-13.17c0-7.75,2.11-15.36,6.1-22.01l151.09-251.79
					c94.18,104.42,176.65,113.97,240,91.11c-10.65-32.92-17.62-65.91-20.97-98.95C1090.87,2136.89,1049.21,2024.92,1049.21,2024.92z
					"/>
				<linearGradient id="SVGID_5_" gradientUnits="userSpaceOnUse" x1="1468.8696" y1="1888.4111" x2="1115.5018" y2="2328.0347">
					<stop  offset="0" style="stop-color:#F9B776"/>
					<stop  offset="1" style="stop-color:#F47960"/>
				</linearGradient>
				<path class="st13" d="M1339.17,2135.4l-16.89-22.52c-54.68,37.56-100.39,46.46-137.81,40.05c3.34,33.05,10.31,66.03,20.97,98.95
					C1288.9,2221.77,1339.17,2135.4,1339.17,2135.4z"/>
				<linearGradient id="SVGID_6_" gradientUnits="userSpaceOnUse" x1="1535.8657" y1="1942.2625" x2="1182.4983" y2="2381.8853">
					<stop  offset="0" style="stop-color:#F9B776"/>
					<stop  offset="1" style="stop-color:#F47960"/>
				</linearGradient>
				<path class="st14" d="M1327.26,2135.81l95.16,3.71l87.62-48.94c-12.58-7.88-83.7,8.23-83.7,8.23s-74.35-11.24-94.47-11.27
					c-16.71-0.02-14.32,24.01-13.04,32.16c0.26,1.66,0.48,2.66,0.48,2.66L1327.26,2135.81z"/>
				<linearGradient id="SVGID_7_" gradientUnits="userSpaceOnUse" x1="1071.329" y1="1622.7269" x2="729.092" y2="2251.5537">
					<stop  offset="0" style="stop-color:#F9B776"/>
					<stop  offset="1" style="stop-color:#F47960"/>
				</linearGradient>
				<path class="st15" d="M902.4,1804.27l-50.21,122.52c0,0,57.69,39.93,104.1,36.13l25.06-110.17L902.4,1804.27z"/>
				<g>
					
						<linearGradient id="SVGID_8_" gradientUnits="userSpaceOnUse" x1="613.7989" y1="4309.7349" x2="462.549" y2="4509.8262" gradientTransform="matrix(0.817 -0.5767 0.5767 0.817 -2023.4279 -1428.4956)">
						<stop  offset="0" style="stop-color:#F9B776"/>
						<stop  offset="1" style="stop-color:#F47960"/>
					</linearGradient>
					<path class="st16" d="M987.22,1720.75c1.15,1.63,36.32,128.7,36.32,128.7l-72.98,18.54l-51.23-115.48
						C899.33,1752.51,967.96,1693.47,987.22,1720.75z"/>
					<path class="st1" d="M926.81,1770.05l22.21,62.9c0.29,0.81,0.67,1.55,1.16,2.25c3.01,4.28,14.46,18.25,28.04,5.67
						c12.32-11.42,23.74-21.66,34.28-23.52c4.73-0.83,9.32,2.05,10.6,6.69c3.19,11.55,9.91,37.7,12.27,61.31
						c0.48,4.79-2.83,9.12-7.56,10.02c-14.25,2.71-44.48,7.58-69.71,5.8c-3.42-0.24-6.43-2.29-7.85-5.41
						c-6.95-15.19-28.26-61.29-36.18-73.22c-7.44-11.2-25.67-10.88-33.31-10.2c-2.51,0.22-4.97-0.59-6.86-2.24
						c-6.69-5.86-19.42-20.83-1.51-38.75c3.75-3.75,3.65-9.8-0.22-13.43c-7.69-7.23-15.91-20.06-3.1-35.96
						c13.02-16.17,30.21-13.59,40.75-9.75c4.26,1.55,8.91-0.25,11.22-4.14c1.32-2.22,3.62-3.9,7.6-3.56
						c5.37,0.46,9.89-4.02,9.79-9.41c-0.19-10.36,3.52-23.44,21.49-29.03c31.88-9.92,51.76,20.88,53.73,43.86
						c1.97,22.98-33.21,31.78-53.89,30.22c-15.73-1.18-27.4,14.41-32.1,21.95C926.17,1764.47,925.87,1767.4,926.81,1770.05z"/>
					
						<linearGradient id="SVGID_9_" gradientUnits="userSpaceOnUse" x1="392.2774" y1="4468.1909" x2="513.592" y2="4343.7251" gradientTransform="matrix(0.817 -0.5767 0.5767 0.817 -2023.4279 -1428.4956)">
						<stop  offset="0" style="stop-color:#F9B776"/>
						<stop  offset="1" style="stop-color:#F47960"/>
					</linearGradient>
					<path class="st17" d="M922.39,1845.36c0,0-5.15-39.9-21.75-41.85c-16.6-1.95-32.75,11.69-16.25,34.08
						C904.92,1865.44,922.39,1845.36,922.39,1845.36z"/>
				</g>
			</g>
			<g>
				<path class="st0" d="M1297.54,1542.25l969.17-6.11c22.19-0.14,40.21,16.8,40.04,37.64l-4.08,502.8
					c-0.17,20.96-18.66,37.69-40.97,37.06l-958.68-27.06c-21.29-0.6-38.3-16.86-38.58-36.86l-6.42-469.63
					C1257.75,1559.37,1275.48,1542.39,1297.54,1542.25z"/>
				<path class="st5" d="M2262.92,2082.99l-958.9-27.07c-3.71-0.1-6.65-2.99-6.71-6.59l-6.42-469.63c-0.03-1.85,0.68-3.52,2.04-4.83
					c1.33-1.26,2.99-1.93,4.82-1.94l969.18-6.11c1.87,0,3.55,0.65,4.87,1.89c1.38,1.31,2.1,2.99,2.08,4.85l-4.08,502.79
					C2269.77,2080.01,2266.68,2082.99,2262.92,2082.99z M2267.44,1573.5l-969.64,5.86l5.95,469.87l0.45,0.24l958.81,27.07
					L2267.44,1573.5z"/>
				<path class="st5" d="M1353.44,1642.52c0,16.21,10.05,29.36,22.46,29.36h824.32c12.4,0,22.46-13.15,22.46-29.36
					c0-16.22-10.05-29.36-22.46-29.36H1375.9C1363.5,1613.16,1353.44,1626.31,1353.44,1642.52z"/>
				<path class="st5" d="M1357.48,1702.88h347.06c12.29,0,22.25,9.36,22.25,20.9v269.13c0,11.77-10.34,21.21-22.86,20.89
					l-339.95-8.85c-11.82-0.31-21.32-9.25-21.62-20.35l-7.1-260.28C1334.92,1712.56,1344.97,1702.88,1357.48,1702.88z"/>
				<path class="st5" d="M1799.21,1709.5h387.4c8.43,0,15.26,7.88,15.26,17.61s-6.83,17.61-15.26,17.61h-387.4
					c-8.43,0-15.26-7.88-15.26-17.61S1790.78,1709.5,1799.21,1709.5z"/>
				<path class="st5" d="M1783.95,1802.51c0,9.71,6.82,17.58,15.23,17.58h387.46c8.41,0,15.23-7.87,15.23-17.58v-10.87
					c0-9.87-7.05-17.81-15.6-17.57l-387.46,10.86C1790.55,1785.17,1783.95,1792.96,1783.95,1802.51z"/>
			</g>
		</g>
		<g>
			
				<linearGradient id="SVGID_10_" gradientUnits="userSpaceOnUse" x1="-852.0619" y1="1418.0508" x2="-991.7596" y2="1846.2534" gradientTransform="matrix(0.7738 -0.6335 0.6335 0.7738 2385.0835 -47.8667)">
				<stop  offset="0" style="stop-color:#F9B776"/>
				<stop  offset="1" style="stop-color:#F47960"/>
			</linearGradient>
			<path class="st18" d="M2574.23,1749.32c0,0,6.34,276,296.54,324.4l52.1-51.43c0,0-251.29-85.44-316.7-263.99l13.97-94.69
				l-9.85-62.67L2574.23,1749.32z"/>
			<g>
				<path class="st11" d="M2860.74,1621.46l-1151.31,28.18c-46.67,1.14-86.55-33.41-92.07-79.77l-91.4-768.05
					c-6.22-52.28,33.32-98.81,85.92-101.1l1223.3-53.26c50.6-2.2,93.16,37.55,94.4,90.19l19.41,793.13
					C2950.21,1578.74,2910.7,1620.23,2860.74,1621.46z"/>
				<path class="st19" d="M2814.08,1581.05l-1063.24,26.03c-43.1,1.05-79.91-30.12-84.99-71.97l-84.02-693.32
					c-5.72-47.19,30.83-89.22,79.4-91.31l1129.73-48.7c46.73-2.01,86.01,33.86,87.13,79.57l17.52,715.99
					C2896.73,1542.44,2860.22,1579.92,2814.08,1581.05z"/>
				<path class="st11" d="M1535.21,862.19l1398.37-62.72l-1.56-61.93c-1.24-50.64-43.84-91.39-94.45-89.19l-1223.33,52.76
					c-52.6,2.29-92.07,50.57-85.84,102.84L1535.21,862.19z"/>
				<path class="st20" d="M2060.62,1391.8l-316.35,14.19c-10.76,0.48-20.93-27.22-23.25-63.32l-18.5-287.42
					c-2.55-39.6,5.29-73.6,17.08-74.13l321.94-14.44c11.27-0.51,21.79,29.85,23.49,67.81l12.9,287.67
					C2079.65,1360.12,2071.89,1391.29,2060.62,1391.8z"/>
				<path class="st20" d="M2826.94,992.43l-717.47,32.18c-3.37,0.15-6.22-2.45-6.37-5.82l-1.72-38.39
					c-0.15-3.37,2.45-6.22,5.82-6.37l717.47-32.18c3.37-0.15,6.22,2.45,6.37,5.82l1.72,38.39
					C2832.91,989.43,2830.31,992.28,2826.94,992.43z"/>
				<path class="st20" d="M2838.61,1172.35l-717.47,32.18c-3.36,0.15-6.22-2.45-6.37-5.82l-1.72-38.39
					c-0.15-3.37,2.45-6.22,5.82-6.37l717.47-32.18c3.36-0.15,6.22,2.45,6.37,5.82l1.72,38.39
					C2844.58,1169.35,2841.97,1172.2,2838.61,1172.35z"/>
				<path class="st20" d="M2502.03,915.23l-792.47,35.55c-3.36,0.15-6.22-2.45-6.37-5.82l-1.72-38.39
					c-0.15-3.36,2.45-6.22,5.82-6.37l792.47-35.54c3.36-0.15,6.22,2.45,6.37,5.82l1.72,38.39
					C2508,912.23,2505.4,915.08,2502.03,915.23z"/>
				<path class="st20" d="M2830.9,1080.69l-717.47,32.18c-3.36,0.15-6.22-2.45-6.37-5.82l-1.72-38.39
					c-0.15-3.37,2.45-6.22,5.82-6.37l717.47-32.18c3.36-0.15,6.22,2.45,6.37,5.82l1.72,38.39
					C2836.87,1077.69,2834.27,1080.54,2830.9,1080.69z"/>
				<path class="st20" d="M2843.55,1265.48l-717.47,32.18c-3.36,0.15-6.22-2.45-6.37-5.82l-1.72-38.39
					c-0.15-3.37,2.45-6.22,5.82-6.37l717.47-32.18c3.36-0.15,6.22,2.45,6.37,5.82l1.72,38.39
					C2849.52,1262.48,2846.92,1265.33,2843.55,1265.48z"/>
				<path class="st20" d="M2855.22,1445.39l-717.47,32.18c-3.36,0.15-6.22-2.45-6.37-5.82l-1.72-38.39
					c-0.15-3.37,2.45-6.22,5.82-6.37l717.47-32.18c3.36-0.15,6.22,2.45,6.37,5.82l1.72,38.39
					C2861.19,1442.39,2858.58,1445.24,2855.22,1445.39z"/>
				<path class="st20" d="M2847.51,1353.73l-717.47,32.18c-3.36,0.15-6.22-2.45-6.37-5.82l-1.72-38.39
					c-0.15-3.36,2.45-6.22,5.82-6.37l717.47-32.18c3.36-0.15,6.22,2.45,6.37,5.82l1.72,38.39
					C2853.48,1350.73,2850.88,1353.58,2847.51,1353.73z"/>
				<circle class="st21" cx="1640.54" cy="785.62" r="25.64"/>
				
					<ellipse transform="matrix(0.6747 -0.7381 0.7381 0.6747 -17.1637 1525.0195)" class="st21" cx="1721.56" cy="781.98" rx="25.64" ry="25.64"/>
				<circle class="st21" cx="1814.31" cy="777.82" r="25.64"/>
			</g>
			
				<linearGradient id="SVGID_11_" gradientUnits="userSpaceOnUse" x1="-100.0241" y1="2932.5557" x2="157.3534" y2="2932.5557" gradientTransform="matrix(1 0 0 1 3169.7083 0)">
				<stop  offset="0" style="stop-color:#F9B776"/>
				<stop  offset="1" style="stop-color:#F47960"/>
			</linearGradient>
			<path class="st22" d="M2854.81,2694.96c0,0,137.68,300.08,209.92,424.37c0,0,14.35,78.21,0,102.8l-12.23,5.43l57.06-1.7
				c0,0,5.07-105.2,1.11-111.07c-3.96-5.88-11.88-5.49-11.88-5.49s-24.47-193.85-95.33-235.23l-68.67-236.53L2854.81,2694.96z"/>
			<path class="st1" d="M3028.13,3242.3c-0.08,1.38,44.56,0.75,68.81,0.3c8.95-0.16,16.59-6.46,18.5-15.21l18.31-96.22
				c1.74-9.14-4.07-18.03-13.14-20.1l-10.22-2.34c0,0-14.58,20-9.99,38.84c4.59,18.83,8.68,67.62-2.92,73.31
				c-11.6,5.69-44.97,6.68-44.97,6.68S3028.9,3229.91,3028.13,3242.3z"/>
			<path class="st1" d="M2724.31,3244.05c-4.52,2.57-2.65,9.47,2.54,9.41c40.58-0.41,131.52-1.69,139.6-5.05
				c10.43-4.34-3.8-41.83-18.78-54.52l-82.72,27L2724.31,3244.05z"/>
			
				<linearGradient id="SVGID_12_" gradientUnits="userSpaceOnUse" x1="-216.618" y1="2951.6934" x2="-67.5754" y2="2951.6934" gradientTransform="matrix(1 0 0 1 3169.7083 0)">
				<stop  offset="0" style="stop-color:#F9B776"/>
				<stop  offset="1" style="stop-color:#F47960"/>
			</linearGradient>
			<path class="st23" d="M2698.64,2675.82c0,0,88.97,430.42,114.14,514.38l-59.54,37.36c0,0,29.84-5.07,51.96-6.68
				c22.13-1.6,42.48-27,42.48-27l-7.13-11.38c0,0-22.31-428.08-16.88-476.69L2698.64,2675.82z"/>
			
				<linearGradient id="SVGID_13_" gradientUnits="userSpaceOnUse" x1="-792.1365" y1="1833.4823" x2="-500.3591" y2="1833.4823" gradientTransform="matrix(1 0 0 1 3169.7083 0)">
				<stop  offset="0" style="stop-color:#F9B776"/>
				<stop  offset="1" style="stop-color:#F47960"/>
			</linearGradient>
			<path class="st24" d="M2477.77,1671.86c0,0-12.27,223.9,191.58,338.32l-49.08,111.93c0,0-184.56-111.63-177.73-416.09
				c0.2-8.74-2.96-17.22-8.66-23.84l-39.22-45.5c-14.94-17.34-20.53-40.86-14.97-63.06l5.16-20.64c1.73-6.91,9.6-10.23,15.76-6.66
				l4.1,2.38c13.06,7.58,23.4,19.08,29.57,32.87l19.26,43.05c7.19,16.08,23.78,25.85,41.34,24.33l11.91-1.03L2477.77,1671.86z"/>
			<path class="st25" d="M2662.25,1993.4c34.1,9.46,149.64,39.85,221.77,38.61l-44.29,249.91l3.52,40.76l-144.39-0.65
				c0,0-40.65-94.4-72.72-141.46c-9.26-13.59-2.37-29.8,2.88-45.39l-7.21-4.8c-7.34-4.89-10.52-14.07-7.78-22.45l35.16-107.58
				C2651.03,1994.93,2656.74,1991.87,2662.25,1993.4z"/>
			<path class="st11" d="M2687.3,2300.7l2.84,24.69c0,0-40.8,122.2,20.4,407.61c0,0,132.56,37.55,241.51-52.31
				c0,0-30.73-269.38-39.13-281.93c-41.81-62.5-69.67-76.09-69.67-76.09l-1.26-26.98C2842.01,2295.7,2725.48,2316.76,2687.3,2300.7z
				"/>
			
				<linearGradient id="SVGID_14_" gradientUnits="userSpaceOnUse" x1="-425.8899" y1="1976.7313" x2="-334.6836" y2="1976.7313" gradientTransform="matrix(1 0 0 1 3169.7083 0)">
				<stop  offset="0" style="stop-color:#F9B776"/>
				<stop  offset="1" style="stop-color:#F47960"/>
			</linearGradient>
			<path class="st26" d="M2743.82,2013.54c-0.51-0.67,30.14-92.54,30.14-92.54l43.9,3.98l17.15,104.22
				C2835.02,2029.2,2766.22,2043.09,2743.82,2013.54z"/>
			
				<linearGradient id="SVGID_15_" gradientUnits="userSpaceOnUse" x1="-280.9351" y1="1858.8671" x2="382.9241" y2="1904.0095" gradientTransform="matrix(1 0 0 1 3169.7083 0)">
				<stop  offset="0" style="stop-color:#F9B776"/>
				<stop  offset="1" style="stop-color:#F47960"/>
			</linearGradient>
			<path class="st27" d="M2807.36,1776.12c-2.93,1.82-93.82,39.39-74.29,133.75c1.15,5.58,4.87,10.3,10.08,12.62
				c13.34,5.95,42.05,16.14,76.4,12.65c47.61-4.84,78.81-87.93,77.49-112.1C2895.7,1798.85,2836.38,1758.05,2807.36,1776.12z"/>
			<path class="st1" d="M2835.02,1739.43c-2.39,0.31-52.52,17.77-27.66,54.1c24.86,36.33,34.19,57.71,22.43,73.67
				c-10.71,14.53-34.45,6.25-32.38,36.49c0.41,6.05-2.2,11.93-7.23,15.33c-22.36,15.14-76.93,61.73-22.87,128.19
				c4.39,5.4,5.3,12.86,1.91,18.94c-15.83,28.4-49.09,111.59,71.32,157.74c118.98,45.6,161.94-32.17,173.94-63.26
				c2.6-6.72,9.22-10.84,16.42-10.5c13.07,0.62,31.6-1.56,30.75-19.03c-0.52-10.61-7.14-20.12-14.96-27.75
				c-7.74-7.55-6.21-20.76,3.19-26.1c7.1-4.04,13.39-10.34,16.04-20.16c7.21-26.72-7.19-106.61-83.76-120.15
				c-6.39-1.13-13.08-7.12-14.01-13.54c-0.01-0.1-0.03-0.19-0.04-0.29c-1.03-6.21,1.07-12.56,6.15-16.28
				c12.23-8.97,27.91-27.03,15.17-55.99c-11.3-25.69-32.96-34.35-49.05-37.11c-9.45-1.62-15.66-10.56-13.67-19.93
				C2932.13,1768.25,2927.39,1727.32,2835.02,1739.43z"/>
		</g>
	</g>
</g>
</svg>
