<svg id="Layer_1" data-name="Layer 1" xmlns="http://www.w3.org/2000/svg" viewBox="0 0 283.6 56.76"><defs><style>.cls-1{fill:#009286;}.cls-2{fill:#38b4ac;}.cls-3{fill:none;stroke:teal;}.cls-3,.cls-8{stroke-miterlimit:10;}.cls-4{fill:#fedb64;}.cls-5{fill:#fec750;}.cls-6{fill:#009387;}.cls-7{fill:#019387;}.cls-8{fill:#fff;stroke:#000;}</style></defs><path class="cls-1" d="M251.1,34.86V9.09c0-.8.16-1.07,1-1.07h38.23c.83,0,1,.24,1,1q-.07,3.64,0,7.29c0,.8-.2,1-1,1h-27c-1,0-1.23.24-1.21,1.21.06,3.17.05,6.34,0,9.51,0,.86.27,1,1.08,1h24.89c1,0,1.32.27,1.28,1.29-.08,2.25-.07,4.5,0,6.75,0,.93-.21,1.19-1.16,1.19-8.26,0-16.53,0-24.79,0-1,0-1.32.19-1.31,1.25.07,4,.06,8.1,0,12.15,0,.87.21,1.12,1.1,1.12h28c1,0,1.24.28,1.21,1.23-.07,2.39,0,4.79,0,7.18,0,.62-.14.85-.82.85H252c-.88,0-.84-.44-.84-1Q251.12,47.87,251.1,34.86Z" transform="translate(-8.82 -6.74)"/><path class="cls-1" d="M239.77,28.76c-.05,5.39.15,11.7-.39,18a17.23,17.23,0,0,1-3.06,9.09,16.07,16.07,0,0,1-10.13,6.22,38.45,38.45,0,0,1-16.3-.17,15.94,15.94,0,0,1-12.7-14,94.6,94.6,0,0,1-.59-11.16V9.17c0-.92.21-1.18,1.16-1.16,2.93.07,5.86.06,8.79,0,.87,0,1.12.2,1.12,1.1q-.06,14.46,0,28.94c0,2.14.06,4.29.21,6.43a9.12,9.12,0,0,0,8.86,8.8,15.35,15.35,0,0,0,6.56-.67,7.34,7.34,0,0,0,5.07-6.2,52,52,0,0,0,.43-7.69V9.26c0-1,.3-1.28,1.29-1.25,2.86.07,5.72.06,8.58,0,.9,0,1.19.17,1.18,1.14C239.74,15.39,239.77,21.62,239.77,28.76Z" transform="translate(-8.82 -6.74)"/><path class="cls-2" d="M168.83,61.71c-.15.55-.62.37-1,.37H154a1.17,1.17,0,0,1-1.28-.94Q143,35,133.22,8.92c-.35-.94-.09-1,.75-1h13.34A1.41,1.41,0,0,1,148.88,9q5.73,15.46,11.52,30.92a3.08,3.08,0,0,0,.57,1.23c.48.34.52.91.7,1.38Z" transform="translate(-8.82 -6.74)"/><path class="cls-3" d="M64,63H10.51c-1,0-1.19-.27-1.19-1.21V8.45c0-1,.23-1.23,1.2-1.21,3.81.06,7.63,0,11.44,0h95.42c1.08,0,1.32.26,1.31,1.32V61.9c0,.88-.23,1.1-1.1,1.1Z" transform="translate(-8.82 -6.74)"/><path class="cls-1" d="M168.83,61.71c-.53-.06-.49-.56-.61-.88q-3.54-9.42-7-18.86a6,6,0,0,1-.21-.81q6-16.29,12.08-32.59a.91.91,0,0,1,1-.65H188c.93,0,.84.32.59,1-1.4,3.68-2.75,7.37-4.13,11.06-.15.05-.29.12-.43.18a1.24,1.24,0,0,0-.72.42c-2.27,2.21-4.63,4.33-6.94,6.5-2.12,2-4.24,4-6.4,6-.28.26-.68.51-.54,1s.62.38,1,.41c2.25.23,4.5.38,6.75.43,1.53,0,1.78.37,1.26,1.77-1.57,4.19-3.09,8.39-4.69,12.56a2.32,2.32,0,0,1-.51.92Z" transform="translate(-8.82 -6.74)"/><path class="cls-4" d="M184.11,19.87l.34.09c-1.1,3-2.19,6-3.33,9-.31.81-.17,1,.7,1.06a57.43,57.43,0,0,1,6.56.18c.43.06,1-.12,1.19.44s-.19.78-.45,1.1L178.11,45l-3.72,4.45c-.24.29-.39.7-.87.67a3,3,0,0,1,.6-1.76c2.08-4.11,4.24-8.18,6.27-12.32.1-.19.22-.37.3-.56.37-.93.1-1.39-.89-1.55-1.5-.24-3-.27-4.52-.42a14.71,14.71,0,0,1-1.47-.17c-1.22-.24-1.34-.5-.53-1.49,1.18-1.44,2.43-2.83,3.69-4.2,2.12-2.31,4.13-4.7,6.28-7A4.25,4.25,0,0,1,184.11,19.87Z" transform="translate(-8.82 -6.74)"/><path class="cls-5" d="M184.11,19.87c-1.38,1.94-3.11,3.59-4.67,5.4-2,2.35-4.12,4.68-6.19,7-.47.52-.33.66.31.71,2.09.19,4.18.42,6.27.62,1.24.12,1.7.86,1.15,1.93l-7.46,14.54h-.3a60.19,60.19,0,0,1,2.27-6.41q1.33-3.75,2.82-7.46c.31-.77.2-1.05-.65-1.09-2.5-.11-5-.28-7.49-.42-.45,0-.95.09-1.15-.49s.18-.78.48-1.07l13.81-12.92C183.53,20,183.72,19.7,184.11,19.87Z" transform="translate(-8.82 -6.74)"/><path class="cls-6" d="M64.27,39.8v3.91a1.52,1.52,0,0,1-.85,1.56c-3.8,1.77-7.62,2.15-11.5.24A8.85,8.85,0,0,1,47.4,40.3a13.22,13.22,0,0,1,1-11.6c2.3-3.85,6.89-5.54,11.63-4.49a10.08,10.08,0,0,1,3.43,1.35,1.66,1.66,0,0,1,.9,1.23c0,.42.09.89-.31,1.17s-.73-.06-1-.26a10.42,10.42,0,0,0-5-1.73,7.9,7.9,0,0,0-8.57,6.4c-.75,3.36-.5,6.58,1.68,9.43,2.51,3.28,7.37,3.55,10.59,1.94a.73.73,0,0,0,.42-.76V37.17c0-.57-.21-.71-.75-.7H57c-.7,0-1.06-.24-1.06-1s.26-1.07,1.07-1q3,.06,6,0c1,0,1.37.4,1.37,1.32C64.26,37.12,64.27,38.46,64.27,39.8Z" transform="translate(-8.82 -6.74)"/><path class="cls-6" d="M70.28,35.41V25.27c0-.85.24-1.2,1.13-1.2s1.14.36,1.12,1.21v7.6c0,.73.19,1,.94,1q4.61-.06,9.21,0c.7,0,.9-.21.89-.9V25.27c0-.92.35-1.16,1.18-1.16s1.09.32,1.09,1.14V45.52c0,1-.41,1.12-1.2,1.12s-1.08-.32-1.07-1.15V36.84c0-.76-.15-1-1-1-3,0-6.07,0-9.1,0-.74,0-1,.21-1,.95v8.76c0,1-.43,1.11-1.21,1.12s-1.06-.36-1-1.16C70.3,42.1,70.28,38.75,70.28,35.41Z" transform="translate(-8.82 -6.74)"/><path class="cls-7" d="M98.52,36.38v8.87c0,.88-.14,1.38-1.18,1.36s-1.12-.5-1.12-1.33V27.55c0-1.55.18-1.36-1.33-1.36H90.13c-.77,0-1.11-.28-1.09-1s.33-1,1.06-1h14.49c.78,0,1.08.3,1.08,1a.87.87,0,0,1-1,1H99.59c-.81,0-1.09.17-1.08,1C98.56,30.26,98.52,33.32,98.52,36.38Z" transform="translate(-8.82 -6.74)"/><path class="cls-7" d="M24.59,35.2V25.38c0-.83.11-1.32,1.12-1.32s1.17.42,1.17,1.29V43.3c0,.91.19,1.21,1.15,1.17,2.26-.08,4.52,0,6.78,0,.79,0,1.17.24,1.15,1.08s-.39,1-1.13,1H26.15c-1.22,0-1.5-.26-1.5-1.48C24.58,41.75,24.59,38.47,24.59,35.2Z" transform="translate(-8.82 -6.74)"/><path class="cls-6" d="M41.63,35.42v10c0,.9-.32,1.16-1.16,1.18s-1.11-.37-1.11-1.21V25.25c0-.89.29-1.18,1.15-1.19s1.12.39,1.11,1.22C41.61,28.67,41.63,32,41.63,35.42Z" transform="translate(-8.82 -6.74)"/><path class="cls-8" d="M236.53,6.26" transform="translate(-8.82 -6.74)"/></svg>